<?xml version="1.0" encoding="us-ascii" standalone="no"?><svg xmlns="http://www.w3.org/2000/svg" xmlns:xlink="http://www.w3.org/1999/xlink" contentStyleType="text/css" height="1328.125px" preserveAspectRatio="none" style="width:3036px;height:1328px;background:#FFFFFF;" version="1.1" viewBox="0 0 3036 1328" width="3036.4583px" zoomAndPan="magnify"><defs/><g><!--entity User--><g id="elem_User"><ellipse cx="111.9792" cy="678.125" fill="#F1F1F1" rx="41.6667" ry="41.6667" style="stroke:#181818;stroke-width:2.6041666666666665;"/><path d="M111.9792,719.7917 L111.9792,860.4167 M44.2708,761.4583 L179.6875,761.4583 M111.9792,860.4167 L44.2708,938.5417 M111.9792,860.4167 L179.6875,938.5417 " fill="none" style="stroke:#181818;stroke-width:2.6041666666666665;"/><text fill="#000000" font-family="sans-serif" font-size="72.9167" lengthAdjust="spacing" textLength="161.4583" x="31.25" y="1024.3017">User</text></g><g id="elem_FormStructureSave"><ellipse cx="1012.1462" cy="136.6272" fill="#F1F1F1" rx="464.3858" ry="105.3772" style="stroke:#181818;stroke-width:2.6041666666666665;"/><text fill="#000000" font-family="sans-serif" font-size="72.9167" lengthAdjust="spacing" textLength="666.6667" x="663.1879" y="161.278">FormStructureSave</text></g><g id="elem_FormStructureUpdate"><ellipse cx="1012.147" cy="537.6377" fill="#F1F1F1" rx="501.7303" ry="112.8461" style="stroke:#181818;stroke-width:2.6041666666666665;"/><text fill="#000000" font-family="sans-serif" font-size="72.9167" lengthAdjust="spacing" textLength="760.4167" x="616.3136" y="562.2886">FormStructureUpdate</text></g><g id="elem_FormStructureDelete"><ellipse cx="1012.1147" cy="943.9125" fill="#F1F1F1" rx="489.0938" ry="110.3188" style="stroke:#181818;stroke-width:2.6041666666666665;"/><text fill="#000000" font-family="sans-serif" font-size="72.9167" lengthAdjust="spacing" textLength="729.1667" x="631.9063" y="968.5634">FormStructureDelete</text></g><g id="elem_FormStructureShow"><ellipse cx="2535.3131" cy="537.6772" fill="#F1F1F1" rx="474.5839" ry="107.4168" style="stroke:#181818;stroke-width:2.6041666666666665;"/><text fill="#000000" font-family="sans-serif" font-size="72.9167" lengthAdjust="spacing" textLength="692.7083" x="2173.3339" y="562.3281">FormStructureShow</text></g><!--link User to FormStructureSave--><g id="link_User_FormStructureSave"><path d="M195.0521,703.125 C265.0521,590.9375 377.1354,434.6875 510.4167,334.5313 C573.4896,287.1875 620.4065,261.0188 693.6878,231.748 " fill="none" id="User-to-FormStructureSave" style="stroke:#181818;stroke-width:5.208333333333333;"/><polygon fill="#181818" points="722.7083,220.1562,671.4496,218.1968,698.5245,229.816,686.9053,256.8909,722.7083,220.1562" style="stroke:#181818;stroke-width:5.208333333333333;"/></g><!--link User to FormStructureUpdate--><g id="link_User_FormStructureUpdate"><path d="M194.0625,809.2708 C239.0104,791.7187 296.9792,769.5833 348.9583,751.1979 C466.7187,709.6354 567.6383,676.1566 681.3362,639.6983 " fill="none" id="User-to-FormStructureUpdate" style="stroke:#181818;stroke-width:5.208333333333333;"/><polygon fill="#181818" points="711.0938,630.1563,660.0961,624.631,686.2958,638.108,672.8188,664.3077,711.0938,630.1563" style="stroke:#181818;stroke-width:5.208333333333333;"/></g><!--link User to FormStructureDelete--><g id="link_User_FormStructureDelete"><path d="M194.5833,848.8021 C281.25,858.9583 397.7113,872.6225 543.4404,889.6538 " fill="none" id="User-to-FormStructureDelete" style="stroke:#181818;stroke-width:5.208333333333333;"/><polygon fill="#181818" points="574.4792,893.2812,530.3394,867.1475,548.6135,890.2584,525.5027,908.5325,574.4792,893.2812" style="stroke:#181818;stroke-width:5.208333333333333;"/></g><!--link User to FormStructureShow--><g id="link_User_FormStructureShow"><path d="M194.6354,926.5104 C267.6042,1001.1979 384.2708,1103.5937 510.4167,1147.0312 C932.0833,1292.2396 1084.0625,1266.0417 1513.8542,1147.0312 C1868.75,1048.8021 2199.908,809.6354 2381.6267,662.8645 " fill="none" id="User-to-FormStructureShow" style="stroke:#181818;stroke-width:5.208333333333333;"/><polygon fill="#181818" points="2405.9375,643.2292,2356.3811,656.475,2385.6785,659.592,2382.5616,688.8894,2405.9375,643.2292" style="stroke:#181818;stroke-width:5.208333333333333;"/></g><!--link FormStructureSave to FormStructureShow--><g id="link_FormStructureSave_FormStructureShow"><path d="M1321.6667,217.2917 C1582.6563,286.5104 1926.878,377.7167 2189.5863,447.4042 " fill="none" id="FormStructureSave-to-FormStructureShow" style="stroke:#181818;stroke-width:5.208333333333333;stroke-dasharray:7.0,7.0;"/><polygon fill="#181818" points="2219.7917,455.4167,2179.8253,423.2611,2194.6205,448.7396,2169.142,463.5349,2219.7917,455.4167" style="stroke:#181818;stroke-width:5.208333333333333;"/><text fill="#000000" font-family="sans-serif" font-size="67.7083" lengthAdjust="spacing" textLength="223.9583" x="1675.3125" y="291.7553">include</text></g><!--link FormStructureUpdate to FormStructureShow--><g id="link_FormStructureUpdate_FormStructureShow"><path d="M1514.7917,537.6563 C1690.4687,537.6563 1856.0938,537.6563 2029.375,537.6563 " fill="none" id="FormStructureUpdate-to-FormStructureShow" style="stroke:#181818;stroke-width:5.208333333333333;stroke-dasharray:7.0,7.0;"/><polygon fill="#181818" points="2060.625,537.6563,2013.75,516.8229,2034.5833,537.6563,2013.75,558.4896,2060.625,537.6563" style="stroke:#181818;stroke-width:5.208333333333333;"/><text fill="#000000" font-family="sans-serif" font-size="67.7083" lengthAdjust="spacing" textLength="223.9583" x="1675.3125" y="516.2865">include</text></g><!--SRC=[ZOyn3i8m34Ltdy9iT6YwCp0XBX3r055YMajfKZaEN1-gCgO8oVBo_fVzJfnyh87Gc66VgXpBK4YLqrJCMfS84EcXg1c5frani91NpWcSromu5XBO5lRz5S_tB8jLgLwha7LFwexWk0Qdn_X6aNvWE-TN1z2uzx5fXl62NrzeFl97xmq0]--></g></svg>