<?xml version="1.0" encoding="us-ascii" standalone="no"?><svg xmlns="http://www.w3.org/2000/svg" xmlns:xlink="http://www.w3.org/1999/xlink" contentStyleType="text/css" height="1317.7083px" preserveAspectRatio="none" style="width:2781px;height:1317px;background:#FFFFFF;" version="1.1" viewBox="0 0 2781 1317" width="2781.25px" zoomAndPan="magnify"><defs/><g><!--entity User--><g id="elem_User"><ellipse cx="111.9792" cy="572.1354" fill="#F1F1F1" rx="41.6667" ry="41.6667" style="stroke:#181818;stroke-width:2.6041666666666665;"/><path d="M111.9792,613.8021 L111.9792,754.4271 M44.2708,655.4687 L179.6875,655.4687 M111.9792,754.4271 L44.2708,832.5521 M111.9792,754.4271 L179.6875,832.5521 " fill="none" style="stroke:#181818;stroke-width:2.6041666666666665;"/><text fill="#000000" font-family="sans-serif" font-size="72.9167" lengthAdjust="spacing" textLength="161.4583" x="31.25" y="918.3122">User</text></g><g id="elem_FormDataSave"><ellipse cx="947.1023" cy="124.3788" fill="#F1F1F1" rx="403.144" ry="93.1288" style="stroke:#181818;stroke-width:2.6041666666666665;"/><text fill="#000000" font-family="sans-serif" font-size="72.9167" lengthAdjust="spacing" textLength="500" x="681.4773" y="149.0297">FormDataSave</text></g><g id="elem_FormDataUpdate"><ellipse cx="947.0768" cy="499.3633" fill="#F1F1F1" rx="436.6601" ry="99.832" style="stroke:#181818;stroke-width:2.6041666666666665;"/><text fill="#000000" font-family="sans-serif" font-size="72.9167" lengthAdjust="spacing" textLength="593.75" x="634.5768" y="524.0142">FormDataUpdate</text></g><g id="elem_FormDataDelete"><ellipse cx="947.0719" cy="879.5706" fill="#F1F1F1" rx="425.1969" ry="97.5394" style="stroke:#181818;stroke-width:2.6041666666666665;"/><text fill="#000000" font-family="sans-serif" font-size="72.9167" lengthAdjust="spacing" textLength="562.5" x="650.1969" y="904.2215">FormDataDelete</text></g><g id="elem_FormDataShow"><ellipse cx="2342.8075" cy="712.9052" fill="#F1F1F1" rx="412.1825" ry="94.9365" style="stroke:#181818;stroke-width:2.6041666666666665;"/><text fill="#000000" font-family="sans-serif" font-size="72.9167" lengthAdjust="spacing" textLength="526.0417" x="2064.1617" y="737.5561">FormDataShow</text></g><!--link User to FormDataSave--><g id="link_User_FormDataSave"><path d="M194.2708,626.9271 C266.9792,532.3958 383.4896,395.9896 510.4167,306.6667 C570.2604,264.5312 612.4822,241.4883 679.5134,213.7279 " fill="none" id="User-to-FormDataSave" style="stroke:#181818;stroke-width:5.208333333333333;"/><polygon fill="#181818" points="708.3854,201.7708,657.1061,200.4585,684.3254,211.7351,673.0488,238.9544,708.3854,201.7708" style="stroke:#181818;stroke-width:5.208333333333333;"/></g><!--link User to FormDataUpdate--><g id="link_User_FormDataUpdate"><path d="M194.0104,706.4062 C238.9583,690.7812 296.875,671.25 348.9583,655.625 C444.7917,626.875 519.9751,606.0835 614.9751,581.2397 " fill="none" id="User-to-FormDataUpdate" style="stroke:#181818;stroke-width:5.208333333333333;"/><polygon fill="#181818" points="645.2083,573.3333,594.5875,565.0374,620.0139,579.922,605.1293,605.3485,645.2083,573.3333" style="stroke:#181818;stroke-width:5.208333333333333;"/></g><!--link User to FormDataDelete--><g id="link_User_FormDataDelete"><path d="M194.7917,747.4479 C289.0104,764.1146 423.342,787.8916 574.4358,814.6104 " fill="none" id="User-to-FormDataDelete" style="stroke:#181818;stroke-width:5.208333333333333;"/><polygon fill="#181818" points="605.2083,820.0521,562.6773,791.3745,579.5645,815.5173,555.4217,832.4046,605.2083,820.0521" style="stroke:#181818;stroke-width:5.208333333333333;"/></g><!--link User to FormDataShow--><g id="link_User_FormDataShow"><path d="M194.4792,829.3229 C266.5104,910.0521 381.875,1019.9479 510.4167,1067.0833 C1100.4688,1283.4896 1820.7649,980.7291 2146.1816,815.9895 " fill="none" id="User-to-FormDataShow" style="stroke:#181818;stroke-width:5.208333333333333;"/><polygon fill="#181818" points="2174.0625,801.875,2122.8315,804.4595,2150.8284,813.6371,2141.6508,841.634,2174.0625,801.875" style="stroke:#181818;stroke-width:5.208333333333333;"/></g><!--link FormDataSave to FormDataShow--><g id="link_FormDataSave_FormDataShow"><path d="M1163.0208,204.9479 C1329.8958,269.5312 1568.2813,363.8021 1774.375,452.5 C1903.0208,507.8646 2017.9899,560.8276 2127.7816,612.6505 " fill="none" id="FormDataSave-to-FormDataShow" style="stroke:#181818;stroke-width:5.208333333333333;stroke-dasharray:7.0,7.0;"/><polygon fill="#181818" points="2156.0417,625.9896,2122.5443,587.1409,2132.4916,614.8737,2104.7588,624.821,2156.0417,625.9896" style="stroke:#181818;stroke-width:5.208333333333333;"/><text fill="#000000" font-family="sans-serif" font-size="67.7083" lengthAdjust="spacing" textLength="223.9583" x="1545.2083" y="337.2761">include</text></g><!--link FormDataUpdate to FormDataShow--><g id="link_FormDataUpdate_FormDataShow"><path d="M1314.4271,555.2083 C1525.2604,587.7083 1758.5939,623.677 1965.7293,655.604 " fill="none" id="FormDataUpdate-to-FormDataShow" style="stroke:#181818;stroke-width:5.208333333333333;stroke-dasharray:7.0,7.0;"/><polygon fill="#181818" points="1996.6146,660.3646,1953.4604,632.6336,1970.8769,656.3975,1947.113,673.814,1996.6146,660.3646" style="stroke:#181818;stroke-width:5.208333333333333;"/><text fill="#000000" font-family="sans-serif" font-size="67.7083" lengthAdjust="spacing" textLength="223.9583" x="1545.2083" y="571.9636">include</text></g><!--link FormDataDelete to FormDataShow--><g id="link_FormDataDelete_FormDataShow"><path d="M1373.9583,875.6771 C1502.9167,870.5208 1644.8438,860.8333 1774.375,843.125 C1871.3021,829.8958 1945.7039,815.0938 2038.308,792.9063 " fill="none" id="FormDataDelete-to-FormDataShow" style="stroke:#181818;stroke-width:5.208333333333333;stroke-dasharray:7.0,7.0;"/><polygon fill="#181818" points="2068.6979,785.625,2018.2589,776.287,2043.373,791.6927,2027.9673,816.8068,2068.6979,785.625" style="stroke:#181818;stroke-width:5.208333333333333;"/><text fill="#000000" font-family="sans-serif" font-size="67.7083" lengthAdjust="spacing" textLength="223.9583" x="1545.2083" y="821.7553">include</text></g><!--SRC=[ZOyn2iCm34LtdKBTcY7Etg5Jw0L23c1iDH4uTf3bzFfjQPO6Kmf2W_xZ_wyJHnUA9pIc-qnH3hdBfCfnocOjIm08T5VKXCBJhEXPo2cd2DPf4Xmp2RmNjkqLpxSaIs_L3dQZfd8VLs-rglGKgAuCSteq0D_Uhz9712-uVmJ7l3_flSDl-Wa0]--></g></svg>