<?xml version="1.0" encoding="us-ascii" standalone="no"?><svg xmlns="http://www.w3.org/2000/svg" xmlns:xlink="http://www.w3.org/1999/xlink" contentStyleType="text/css" height="1223.9583px" preserveAspectRatio="none" style="width:2781px;height:1223px;background:#FFFFFF;" version="1.1" viewBox="0 0 2781 1223" width="2781.25px" zoomAndPan="magnify"><defs/><g><!--entity User--><g id="elem_User"><ellipse cx="111.9792" cy="613.75" fill="#F1F1F1" rx="41.6667" ry="41.6667" style="stroke:#181818;stroke-width:2.6041666666666665;"/><path d="M111.9792,655.4167 L111.9792,796.0417 M44.2708,697.0833 L179.6875,697.0833 M111.9792,796.0417 L44.2708,874.1667 M111.9792,796.0417 L179.6875,874.1667 " fill="none" style="stroke:#181818;stroke-width:2.6041666666666665;"/><text fill="#000000" font-family="sans-serif" font-size="72.9167" lengthAdjust="spacing" textLength="161.4583" x="31.25" y="959.9267">User</text></g><g id="elem_FormDataSave"><ellipse cx="947.1023" cy="124.3788" fill="#F1F1F1" rx="403.144" ry="93.1288" style="stroke:#181818;stroke-width:2.6041666666666665;"/><text fill="#000000" font-family="sans-serif" font-size="72.9167" lengthAdjust="spacing" textLength="500" x="681.4773" y="149.0297">FormDataSave</text></g><g id="elem_FormDataUpdate"><ellipse cx="947.0768" cy="499.3633" fill="#F1F1F1" rx="436.6601" ry="99.832" style="stroke:#181818;stroke-width:2.6041666666666665;"/><text fill="#000000" font-family="sans-serif" font-size="72.9167" lengthAdjust="spacing" textLength="593.75" x="634.5768" y="524.0142">FormDataUpdate</text></g><g id="elem_FormDataDelete"><ellipse cx="947.0719" cy="879.5706" fill="#F1F1F1" rx="425.1969" ry="97.5394" style="stroke:#181818;stroke-width:2.6041666666666665;"/><text fill="#000000" font-family="sans-serif" font-size="72.9167" lengthAdjust="spacing" textLength="562.5" x="650.1969" y="904.2215">FormDataDelete</text></g><g id="elem_FormDataShow"><ellipse cx="2342.8075" cy="499.3636" fill="#F1F1F1" rx="412.1825" ry="94.9365" style="stroke:#181818;stroke-width:2.6041666666666665;"/><text fill="#000000" font-family="sans-serif" font-size="72.9167" lengthAdjust="spacing" textLength="526.0417" x="2064.1617" y="524.0145">FormDataShow</text></g><!--link User to FormDataSave--><g id="link_User_FormDataSave"><path d="M194.8437,653.6458 C266.25,549.8438 380.5729,402.6042 510.4167,306.6667 C568.6458,263.6458 609.6174,240.4461 676.0236,212.9461 " fill="none" id="User-to-FormDataSave" style="stroke:#181818;stroke-width:5.208333333333333;"/><polygon fill="#181818" points="704.8958,200.9896,653.6165,199.6762,680.8357,210.9533,669.5585,238.1725,704.8958,200.9896" style="stroke:#181818;stroke-width:5.208333333333333;"/></g><!--link User to FormDataUpdate--><g id="link_User_FormDataUpdate"><path d="M194.4271,749.2708 C239.4792,734.0625 297.4479,714.5313 348.9583,697.2917 C461.6146,659.4792 556.7078,627.6946 662.6453,592.3821 " fill="none" id="User-to-FormDataUpdate" style="stroke:#181818;stroke-width:5.208333333333333;"/><polygon fill="#181818" points="692.2917,582.5,641.2341,577.5589,667.5864,590.7351,654.4102,617.0874,692.2917,582.5" style="stroke:#181818;stroke-width:5.208333333333333;"/></g><!--link User to FormDataDelete--><g id="link_User_FormDataDelete"><path d="M194.7917,785.2083 C281.7708,796.1979 398.215,810.8761 539.2567,828.6886 " fill="none" id="User-to-FormDataDelete" style="stroke:#181818;stroke-width:5.208333333333333;"/><polygon fill="#181818" points="570.2604,832.6042,526.3652,806.0617,544.424,829.3412,521.1445,847.4,570.2604,832.6042" style="stroke:#181818;stroke-width:5.208333333333333;"/></g><!--link User to FormDataShow--><g id="link_User_FormDataShow"><path d="M194.1146,856.4583 C267.5521,927.5 385.3125,1025.7292 510.4167,1067.0833 C878.9583,1188.8021 1009.4792,1170 1383.75,1067.0833 C1720.9896,974.2708 2035.1425,747.3116 2203.58,611.6345 " fill="none" id="User-to-FormDataShow" style="stroke:#181818;stroke-width:5.208333333333333;"/><polygon fill="#181818" points="2227.9167,592.0313,2178.3428,605.2117,2207.6361,608.3673,2204.4805,637.6606,2227.9167,592.0313" style="stroke:#181818;stroke-width:5.208333333333333;"/></g><!--link FormDataSave to FormDataShow--><g id="link_FormDataSave_FormDataShow"><path d="M1216.0938,195.7813 C1461.0417,262.0833 1793.7418,352.1474 2039.8356,418.7619 " fill="none" id="FormDataSave-to-FormDataShow" style="stroke:#181818;stroke-width:5.208333333333333;stroke-dasharray:7.0,7.0;"/><polygon fill="#181818" points="2070,426.9271,2030.1968,394.5697,2044.863,420.1228,2019.3099,434.789,2070,426.9271" style="stroke:#181818;stroke-width:5.208333333333333;"/><text fill="#000000" font-family="sans-serif" font-size="67.7083" lengthAdjust="spacing" textLength="223.9583" x="1545.2083" y="268.0053">include</text></g><!--link FormDataUpdate to FormDataShow--><g id="link_FormDataUpdate_FormDataShow"><path d="M1384.8958,499.375 C1558.75,499.375 1726.9271,499.375 1898.2292,499.375 " fill="none" id="FormDataUpdate-to-FormDataShow" style="stroke:#181818;stroke-width:5.208333333333333;stroke-dasharray:7.0,7.0;"/><polygon fill="#181818" points="1929.4792,499.375,1882.6042,478.5417,1903.4375,499.375,1882.6042,520.2083,1929.4792,499.375" style="stroke:#181818;stroke-width:5.208333333333333;"/><text fill="#000000" font-family="sans-serif" font-size="67.7083" lengthAdjust="spacing" textLength="223.9583" x="1545.2083" y="478.0053">include</text></g><!--SRC=[VOyn3eCm34LtdyBToa3OEtH2lG3Y057YWgMG8CUXrsyhM8gYIbyU_d-o_IySNIYUq9XkLr4EkSkaod7APYrB00ZqLDI4mjEiw5d8AQS8rcaI73C9V0UsxHslZoHBRzKETgEcue-hjrfDUWfKJuOvlHg0tzsVfyy8tl1e1ETx_-at]--></g></svg>