<?xml version="1.0" encoding="us-ascii" standalone="no"?><svg xmlns="http://www.w3.org/2000/svg" xmlns:xlink="http://www.w3.org/1999/xlink" contentStyleType="text/css" height="1161.4583px" preserveAspectRatio="none" style="width:2536px;height:1161px;background:#FFFFFF;" version="1.1" viewBox="0 0 2536 1161" width="2536.4583px" zoomAndPan="magnify"><defs/><g><!--entity User--><g id="elem_User"><ellipse cx="111.9792" cy="572.5521" fill="#F1F1F1" rx="41.6667" ry="41.6667" style="stroke:#181818;stroke-width:2.6041666666666665;"/><path d="M111.9792,614.2187 L111.9792,754.8438 M44.2708,655.8854 L179.6875,655.8854 M111.9792,754.8438 L44.2708,832.9688 M111.9792,754.8438 L179.6875,832.9688 " fill="none" style="stroke:#181818;stroke-width:2.6041666666666665;"/><text fill="#000000" font-family="sans-serif" font-size="72.9167" lengthAdjust="spacing" textLength="161.4583" x="31.25" y="918.7288">User</text></g><g id="elem_InputSave"><ellipse cx="896.2125" cy="119.637" fill="#F1F1F1" rx="320.9" ry="88.387" style="stroke:#181818;stroke-width:2.6041666666666665;"/><text fill="#000000" font-family="sans-serif" font-size="72.9167" lengthAdjust="spacing" textLength="354.1667" x="703.5042" y="144.2879">InputSave</text></g><g id="elem_InputUpdate"><ellipse cx="896.1964" cy="479.0309" fill="#F1F1F1" rx="385.7797" ry="89.6559" style="stroke:#181818;stroke-width:2.6041666666666665;"/><text fill="#000000" font-family="sans-serif" font-size="72.9167" lengthAdjust="spacing" textLength="447.9167" x="656.6131" y="503.6818">InputUpdate</text></g><g id="elem_InputDelete"><ellipse cx="896.1963" cy="838.3821" fill="#F1F1F1" rx="368.1755" ry="88.6946" style="stroke:#181818;stroke-width:2.6041666666666665;"/><text fill="#000000" font-family="sans-serif" font-size="72.9167" lengthAdjust="spacing" textLength="416.6667" x="672.238" y="863.033">InputDelete</text></g><g id="elem_InputShow"><ellipse cx="2169.4512" cy="478.9942" fill="#F1F1F1" rx="340.5971" ry="88.5255" style="stroke:#181818;stroke-width:2.6041666666666665;"/><text fill="#000000" font-family="sans-serif" font-size="72.9167" lengthAdjust="spacing" textLength="380.2083" x="1963.7221" y="503.6451">InputShow</text></g><!--link User to InputSave--><g id="link_User_InputSave"><path d="M194.5313,625.7292 C267.3958,529.5833 384.0104,390.2604 510.4167,296.7188 C567.2396,254.6875 607.0664,231.75 670.1394,203.7291 " fill="none" id="User-to-InputSave" style="stroke:#181818;stroke-width:5.208333333333333;"/><polygon fill="#181818" points="698.6979,191.0417,647.4018,191.0338,674.8991,201.6145,664.3184,229.1119,698.6979,191.0417" style="stroke:#181818;stroke-width:5.208333333333333;"/></g><!--link User to InputUpdate--><g id="link_User_InputUpdate"><path d="M194.2187,708.8021 C303.5417,672.7604 478.4477,615.0494 637.7707,562.4973 " fill="none" id="User-to-InputUpdate" style="stroke:#181818;stroke-width:5.208333333333333;"/><polygon fill="#181818" points="667.4479,552.7083,616.4061,547.6069,642.7169,560.8658,629.458,587.1766,667.4479,552.7083" style="stroke:#181818;stroke-width:5.208333333333333;"/></g><!--link User to InputDelete--><g id="link_User_InputDelete"><path d="M194.2187,744.5833 C282.1354,756.4062 400.6947,772.4033 538.7676,790.945 " fill="none" id="User-to-InputDelete" style="stroke:#181818;stroke-width:5.208333333333333;"/><polygon fill="#181818" points="569.7396,795.1042,526.0544,768.2174,543.9296,791.6382,520.5088,809.5134,569.7396,795.1042" style="stroke:#181818;stroke-width:5.208333333333333;"/></g><!--link User to InputShow--><g id="link_User_InputShow"><path d="M194.375,813.8542 C268.0208,883.6458 385.9375,980.1562 510.4167,1020.6771 C836.4583,1126.8229 951.9792,1113.9062 1281.9792,1020.6771 C1598.4896,931.25 1889.3631,712.9142 2043.1651,584.2684 " fill="none" id="User-to-InputShow" style="stroke:#181818;stroke-width:5.208333333333333;"/><polygon fill="#181818" points="2067.1354,564.2187,2017.8136,578.313,2047.1602,580.9268,2044.5464,610.2734,2067.1354,564.2187" style="stroke:#181818;stroke-width:5.208333333333333;"/></g><!--link InputSave to InputShow--><g id="link_InputSave_InputShow"><path d="M1125.7292,183.4375 C1353.2292,248.2292 1673.6421,339.3604 1903.4337,404.7771 " fill="none" id="InputSave-to-InputShow" style="stroke:#181818;stroke-width:5.208333333333333;stroke-dasharray:7.0,7.0;"/><polygon fill="#181818" points="1933.4896,413.3333,1894.11,380.4617,1908.4431,406.2031,1882.7017,420.5362,1933.4896,413.3333" style="stroke:#181818;stroke-width:5.208333333333333;"/><text fill="#000000" font-family="sans-serif" font-size="67.7083" lengthAdjust="spacing" textLength="223.9583" x="1443.4375" y="256.4428">include</text></g><!--link InputUpdate to InputShow--><g id="link_InputUpdate_InputShow"><path d="M1283.75,479.0104 C1457.2396,479.0104 1629.375,479.0104 1796.9271,479.0104 " fill="none" id="InputUpdate-to-InputShow" style="stroke:#181818;stroke-width:5.208333333333333;stroke-dasharray:7.0,7.0;"/><polygon fill="#181818" points="1828.1771,479.0104,1781.3021,458.1771,1802.1354,479.0104,1781.3021,499.8437,1828.1771,479.0104" style="stroke:#181818;stroke-width:5.208333333333333;"/><text fill="#000000" font-family="sans-serif" font-size="67.7083" lengthAdjust="spacing" textLength="223.9583" x="1443.4375" y="457.6407">include</text></g><!--SRC=[VOun3i8m34Ltdy9iT6YwCp2nC5SzG9IOrb98ekG7hWy81We8oVBm_fVzDXfTQ5xOcE4v3HhgK0NGE5UJspaG1Jc1aRZel82z5d7G5CawfC9JbKAFnNs_v-qnveRHNgJxX5Fs5j_u845-u759ruxexTxTSXNoZb_-j7hmftS3]--></g></svg>