<?xml version="1.0" encoding="us-ascii" standalone="no"?><svg xmlns="http://www.w3.org/2000/svg" xmlns:xlink="http://www.w3.org/1999/xlink" contentStyleType="text/css" height="3213.5417px" preserveAspectRatio="none" style="width:4734px;height:3213px;background:#FFFFFF;" version="1.1" viewBox="0 0 4734 3213" width="4734.375px" zoomAndPan="magnify"><defs/><g><ellipse cx="4213.5417" cy="83.3333" fill="#222222" rx="52.0833" ry="52.0833" style="stroke:#222222;stroke-width:5.208333333333333;"/><g id="OPENED_FORM_BUILDER"><rect fill="#F1F1F1" height="260.4167" rx="52.0833" ry="52.0833" style="stroke:#181818;stroke-width:2.6041666666666665;" width="968.75" x="3729.1667" y="453.125"/><line style="stroke:#181818;stroke-width:2.6041666666666665;" x1="3729.1667" x2="4697.9167" y1="604.5204" y2="604.5204"/><text fill="#000000" font-family="sans-serif" font-size="72.9167" lengthAdjust="spacing" textLength="864.5833" x="3781.25" y="557.1142">OPENED_FORM_BUILDER</text></g><g id="OPENED_FORM_STRUCTURE_MANAGEMENT"><rect fill="#F1F1F1" height="260.4167" rx="52.0833" ry="52.0833" style="stroke:#181818;stroke-width:2.6041666666666665;" width="1630.2083" x="1268.2292" y="1135.4167"/><line style="stroke:#181818;stroke-width:2.6041666666666665;" x1="1268.2292" x2="2898.4375" y1="1286.8121" y2="1286.8121"/><text fill="#000000" font-family="sans-serif" font-size="72.9167" lengthAdjust="spacing" textLength="1526.0417" x="1320.3125" y="1239.4059">OPENED_FORM_STRUCTURE_MANAGEMENT</text></g><g id="OPENED_FORM_DATA_MANAGEMENT"><rect fill="#F1F1F1" height="260.4167" rx="52.0833" ry="52.0833" style="stroke:#181818;stroke-width:2.6041666666666665;" width="1406.25" x="2369.7917" y="1760.4167"/><line style="stroke:#181818;stroke-width:2.6041666666666665;" x1="2369.7917" x2="3776.0417" y1="1911.8121" y2="1911.8121"/><text fill="#000000" font-family="sans-serif" font-size="72.9167" lengthAdjust="spacing" textLength="1302.0833" x="2421.875" y="1864.4059">OPENED_FORM_DATA_MANAGEMENT</text></g><g id="OPENED_INPUT_MANAGEMENT"><rect fill="#F1F1F1" height="260.4167" rx="52.0833" ry="52.0833" style="stroke:#181818;stroke-width:2.6041666666666665;" width="1197.9167" x="36.4583" y="2385.4167"/><line style="stroke:#181818;stroke-width:2.6041666666666665;" x1="36.4583" x2="1234.375" y1="2536.8121" y2="2536.8121"/><text fill="#000000" font-family="sans-serif" font-size="72.9167" lengthAdjust="spacing" textLength="1093.75" x="88.5417" y="2489.4059">OPENED_INPUT_MANAGEMENT</text></g><ellipse cx="2661.4583" cy="3125" fill="none" rx="57.2917" ry="57.2917" style="stroke:#222222;stroke-width:5.208333333333333;"/><ellipse cx="2661.4583" cy="3125" fill="#222222" rx="31.25" ry="31.25" style="stroke:#222222;stroke-width:5.208333333333333;"/><!--link *start* to OPENED_FORM_BUILDER--><g id="link_*start*_OPENED_FORM_BUILDER"><path d="M4213.5417,137.2917 C4213.5417,209.8437 4213.5417,317.4479 4213.5417,420.0521 " fill="none" id="*start*-to-OPENED_FORM_BUILDER" style="stroke:#181818;stroke-width:5.208333333333333;"/><polygon fill="#181818" points="4213.5417,451.3021,4234.375,404.4271,4213.5417,425.2604,4192.7083,404.4271,4213.5417,451.3021" style="stroke:#181818;stroke-width:5.208333333333333;"/></g><!--link OPENED_FORM_BUILDER to OPENED_FORM_STRUCTURE_MANAGEMENT--><g id="link_OPENED_FORM_BUILDER_OPENED_FORM_STRUCTURE_MANAGEMENT"><path d="M3810.3646,715.7292 C3430.9896,835.3646 2895.8973,1004.1444 2516.4703,1123.7798 " fill="none" id="OPENED_FORM_BUILDER-to-OPENED_FORM_STRUCTURE_MANAGEMENT" style="stroke:#181818;stroke-width:5.208333333333333;"/><polygon fill="#181818" points="2486.6667,1133.1771,2537.6369,1138.9503,2511.503,1125.3461,2525.1072,1099.2122,2486.6667,1133.1771" style="stroke:#181818;stroke-width:5.208333333333333;"/></g><!--link OPENED_FORM_BUILDER to OPENED_FORM_DATA_MANAGEMENT--><g id="link_OPENED_FORM_BUILDER_OPENED_FORM_DATA_MANAGEMENT"><path d="M4188.1771,715.2604 C4138.125,965.7292 4031.25,1500 4031.25,1500 C4031.25,1500 3697.4832,1634.2263 3418.3686,1746.4659 " fill="none" id="OPENED_FORM_BUILDER-to-OPENED_FORM_DATA_MANAGEMENT" style="stroke:#181818;stroke-width:5.208333333333333;"/><polygon fill="#181818" points="3389.375,1758.125,3440.6381,1759.9654,3413.5363,1748.4091,3425.0926,1721.3073,3389.375,1758.125" style="stroke:#181818;stroke-width:5.208333333333333;"/></g><!--link OPENED_INPUT_MANAGEMENT to OPENED_INPUT_MANAGEMENT--><g id="link_OPENED_INPUT_MANAGEMENT_OPENED_INPUT_MANAGEMENT"><path d="M1236.5104,2446.3542 C1342.6562,2455.4688 1416.6667,2478.5417 1416.6667,2515.625 C1416.6667,2552.6563 1373.7917,2573.1077 1267.6458,2582.2223 " fill="none" id="OPENED_INPUT_MANAGEMENT-to-OPENED_INPUT_MANAGEMENT" style="stroke:#181818;stroke-width:5.208333333333333;"/><polygon fill="#181818" points="1236.5104,2584.8958,1284.9959,2601.6425,1262.4566,2582.6679,1281.4312,2560.1286,1236.5104,2584.8958" style="stroke:#181818;stroke-width:5.208333333333333;"/><path d="M1442.7083,2359.375 L1442.7083,2671.875 A52.0833,52.0833 0 0 0 1494.7917,2723.9583 L1984.375,2723.9583 A52.0833,52.0833 0 0 0 2036.4583,2671.875 L2036.4583,2359.375 L1984.375,2307.2917 L1494.7917,2307.2917 A52.0833,52.0833 0 0 0 1442.7083,2359.375 " fill="#FEFFDD" style="stroke:#181818;stroke-width:2.6041666666666665;"/><path d="M1984.375,2307.2917 L1984.375,2333.3333 A26.0417,26.0417 0 0 0 2010.4167,2359.375 L2036.4583,2359.375 L1984.375,2307.2917 " fill="#FEFFDD" style="stroke:#181818;stroke-width:2.6041666666666665;"/><ellipse cx="1502.6042" cy="2386.4897" fill="#000000" rx="13.0208" ry="13.0208" style="stroke:#000000;stroke-width:0.0;"/><text fill="#000000" font-family="sans-serif" font-size="67.7083" lengthAdjust="spacing" textLength="333.3333" x="1536.4583" y="2405.7136">Save Input</text><ellipse cx="1502.6042" cy="2478.7085" fill="#000000" rx="13.0208" ry="13.0208" style="stroke:#000000;stroke-width:0.0;"/><text fill="#000000" font-family="sans-serif" font-size="67.7083" lengthAdjust="spacing" textLength="421.875" x="1536.4583" y="2497.9324">Update Input</text><ellipse cx="1502.6042" cy="2570.9273" fill="#000000" rx="13.0208" ry="13.0208" style="stroke:#000000;stroke-width:0.0;"/><text fill="#000000" font-family="sans-serif" font-size="67.7083" lengthAdjust="spacing" textLength="385.4167" x="1536.4583" y="2590.1513">Delete Input</text><ellipse cx="1502.6042" cy="2663.1462" fill="#000000" rx="13.0208" ry="13.0208" style="stroke:#000000;stroke-width:0.0;"/><text fill="#000000" font-family="sans-serif" font-size="67.7083" lengthAdjust="spacing" textLength="359.375" x="1536.4583" y="2682.3701">Show Input</text></g><!--link OPENED_FORM_STRUCTURE_MANAGEMENT to OPENED_FORM_STRUCTURE_MANAGEMENT--><g id="link_OPENED_FORM_STRUCTURE_MANAGEMENT_OPENED_FORM_STRUCTURE_MANAGEMENT"><path d="M2899.2708,1200.4167 C3008.2813,1211.4583 3080.7292,1233.1771 3080.7292,1265.625 C3080.7292,1298.0729 3039.3722,1316.6425 2930.3617,1327.6841 " fill="none" id="OPENED_FORM_STRUCTURE_MANAGEMENT-to-OPENED_FORM_STRUCTURE_MANAGEMENT" style="stroke:#181818;stroke-width:5.208333333333333;"/><polygon fill="#181818" points="2899.2708,1330.8333,2948.0067,1346.8368,2925.1799,1328.209,2943.8077,1305.3823,2899.2708,1330.8333" style="stroke:#181818;stroke-width:5.208333333333333;"/><path d="M3106.7708,1109.375 L3106.7708,1421.875 A52.0833,52.0833 0 0 0 3158.8542,1473.9583 L3950.5208,1473.9583 A52.0833,52.0833 0 0 0 4002.6042,1421.875 L4002.6042,1109.375 L3950.5208,1057.2917 L3158.8542,1057.2917 A52.0833,52.0833 0 0 0 3106.7708,1109.375 " fill="#FEFFDD" style="stroke:#181818;stroke-width:2.6041666666666665;"/><path d="M3950.5208,1057.2917 L3950.5208,1083.3333 A26.0417,26.0417 0 0 0 3976.5625,1109.375 L4002.6042,1109.375 L3950.5208,1057.2917 " fill="#FEFFDD" style="stroke:#181818;stroke-width:2.6041666666666665;"/><ellipse cx="3166.6667" cy="1136.4897" fill="#000000" rx="13.0208" ry="13.0208" style="stroke:#000000;stroke-width:0.0;"/><text fill="#000000" font-family="sans-serif" font-size="67.7083" lengthAdjust="spacing" textLength="635.4167" x="3200.5208" y="1155.7136">Save Form Structure</text><ellipse cx="3166.6667" cy="1228.7085" fill="#000000" rx="13.0208" ry="13.0208" style="stroke:#000000;stroke-width:0.0;"/><text fill="#000000" font-family="sans-serif" font-size="67.7083" lengthAdjust="spacing" textLength="723.9583" x="3200.5208" y="1247.9324">Update Form Structure</text><ellipse cx="3166.6667" cy="1320.9273" fill="#000000" rx="13.0208" ry="13.0208" style="stroke:#000000;stroke-width:0.0;"/><text fill="#000000" font-family="sans-serif" font-size="67.7083" lengthAdjust="spacing" textLength="687.5" x="3200.5208" y="1340.1513">Delete Form Structure</text><ellipse cx="3166.6667" cy="1413.1462" fill="#000000" rx="13.0208" ry="13.0208" style="stroke:#000000;stroke-width:0.0;"/><text fill="#000000" font-family="sans-serif" font-size="67.7083" lengthAdjust="spacing" textLength="661.4583" x="3200.5208" y="1432.3701">Show Form Structure</text></g><!--link OPENED_FORM_STRUCTURE_MANAGEMENT to OPENED_INPUT_MANAGEMENT--><g id="link_OPENED_FORM_STRUCTURE_MANAGEMENT_OPENED_INPUT_MANAGEMENT"><path d="M1935.2083,1397.6563 C1657.7083,1635.2083 1086.3441,2124.3656 808.167,2362.4906 " fill="none" id="OPENED_FORM_STRUCTURE_MANAGEMENT-to-OPENED_INPUT_MANAGEMENT" style="stroke:#181818;stroke-width:5.208333333333333;"/><polygon fill="#181818" points="784.4271,2382.8125,833.5849,2368.1563,804.2104,2365.8776,806.4891,2336.5031,784.4271,2382.8125" style="stroke:#181818;stroke-width:5.208333333333333;"/></g><!--link OPENED_FORM_DATA_MANAGEMENT to OPENED_FORM_DATA_MANAGEMENT--><g id="link_OPENED_FORM_DATA_MANAGEMENT_OPENED_FORM_DATA_MANAGEMENT"><path d="M3777.9167,1783.75 C3885.3646,1800.0521 3958.3333,1835.6771 3958.3333,1890.625 C3958.3333,1945.5729 3916.261,1976.5103 3808.8131,1992.8124 " fill="none" id="OPENED_FORM_DATA_MANAGEMENT-to-OPENED_FORM_DATA_MANAGEMENT" style="stroke:#181818;stroke-width:5.208333333333333;"/><polygon fill="#181818" points="3777.9167,1997.5,3827.3864,2011.0662,3803.6637,1993.5936,3821.1362,1969.8709,3777.9167,1997.5" style="stroke:#181818;stroke-width:5.208333333333333;"/><path d="M3984.375,1734.375 L3984.375,2046.875 A52.0833,52.0833 0 0 0 4036.4583,2098.9583 L4520.8333,2098.9583 A52.0833,52.0833 0 0 0 4572.9167,2046.875 L4572.9167,1734.375 L4520.8333,1682.2917 L4036.4583,1682.2917 A52.0833,52.0833 0 0 0 3984.375,1734.375 " fill="#FEFFDD" style="stroke:#181818;stroke-width:2.6041666666666665;"/><path d="M4520.8333,1682.2917 L4520.8333,1708.3333 A26.0417,26.0417 0 0 0 4546.875,1734.375 L4572.9167,1734.375 L4520.8333,1682.2917 " fill="#FEFFDD" style="stroke:#181818;stroke-width:2.6041666666666665;"/><ellipse cx="4044.2708" cy="1761.4897" fill="#000000" rx="13.0208" ry="13.0208" style="stroke:#000000;stroke-width:0.0;"/><text fill="#000000" font-family="sans-serif" font-size="67.7083" lengthAdjust="spacing" textLength="328.125" x="4078.125" y="1780.7136">Save Form</text><ellipse cx="4044.2708" cy="1853.7085" fill="#000000" rx="13.0208" ry="13.0208" style="stroke:#000000;stroke-width:0.0;"/><text fill="#000000" font-family="sans-serif" font-size="67.7083" lengthAdjust="spacing" textLength="416.6667" x="4078.125" y="1872.9324">Update Form</text><ellipse cx="4044.2708" cy="1945.9273" fill="#000000" rx="13.0208" ry="13.0208" style="stroke:#000000;stroke-width:0.0;"/><text fill="#000000" font-family="sans-serif" font-size="67.7083" lengthAdjust="spacing" textLength="380.2083" x="4078.125" y="1965.1513">Delete Form</text><ellipse cx="4044.2708" cy="2038.1462" fill="#000000" rx="13.0208" ry="13.0208" style="stroke:#000000;stroke-width:0.0;"/><text fill="#000000" font-family="sans-serif" font-size="67.7083" lengthAdjust="spacing" textLength="354.1667" x="4078.125" y="2057.3701">Show Form</text></g><!--link OPENED_INPUT_MANAGEMENT to *end*--><g id="link_OPENED_INPUT_MANAGEMENT_*end*"><path d="M1065.1042,2647.8646 C1576.1979,2798.9583 2357.8444,3030.0475 2575.9694,3094.5267 " fill="none" id="OPENED_INPUT_MANAGEMENT-to-*end*" style="stroke:#181818;stroke-width:5.208333333333333;"/><polygon fill="#181818" points="2605.9375,3103.3854,2566.8912,3070.1186,2580.9641,3096.0031,2555.0796,3110.076,2605.9375,3103.3854" style="stroke:#181818;stroke-width:5.208333333333333;"/></g><!--link OPENED_FORM_STRUCTURE_MANAGEMENT to *end*--><g id="link_OPENED_FORM_STRUCTURE_MANAGEMENT_*end*"><path d="M2123.0729,1397.9167 C2238.125,1765.8854 2558.903,2791.7887 2635.9343,3038.1428 " fill="none" id="OPENED_FORM_STRUCTURE_MANAGEMENT-to-*end*" style="stroke:#181818;stroke-width:5.208333333333333;"/><polygon fill="#181818" points="2645.2604,3067.9687,2651.1552,3017.0124,2637.4886,3043.1138,2611.3873,3029.4473,2645.2604,3067.9687" style="stroke:#181818;stroke-width:5.208333333333333;"/></g><!--link OPENED_FORM_DATA_MANAGEMENT to *end*--><g id="link_OPENED_FORM_DATA_MANAGEMENT_*end*"><path d="M3030.4167,2022.1875 C2941.3021,2287.2917 2748.1372,2861.9943 2688.2934,3039.9631 " fill="none" id="OPENED_FORM_DATA_MANAGEMENT-to-*end*" style="stroke:#181818;stroke-width:5.208333333333333;"/><polygon fill="#181818" points="2678.3333,3069.5833,2713.0203,3031.793,2686.6334,3044.8998,2673.5267,3018.5129,2678.3333,3069.5833" style="stroke:#181818;stroke-width:5.208333333333333;"/></g><!--link OPENED_FORM_BUILDER to *end*--><g id="link_OPENED_FORM_BUILDER_*end*"><path d="M4249.375,715.2083 C4329.375,998.0208 4515.625,1656.25 4515.625,1656.25 C4515.625,1656.25 4515.625,2125 4515.625,2125 C4515.625,2125 3033.4761,2920.2288 2738.5802,3078.4059 " fill="none" id="OPENED_FORM_BUILDER-to-*end*" style="stroke:#181818;stroke-width:5.208333333333333;"/><polygon fill="#181818" points="2711.0417,3093.1771,2762.197,3089.3793,2733.9905,3080.8677,2742.5021,3052.6612,2711.0417,3093.1771" style="stroke:#181818;stroke-width:5.208333333333333;"/></g><!--SRC=[bP9HIyCm4CVVyodEry6wRo1Kcqd1TgDjdaHAMGyDIvFG9ig-lNPEITFeAkJbxdyN_h-xk-7o86oB44MRhsSD5yDcG6EuV1aYRJj1XYENkkcR3WINQ4uQGIjn6WD2dbRFi5xVmcvFSvhKsrsHrNSiVKneGKWWEIikguBTLwoWTHRdyGFDQ5ujQapYAdPxlflIVCygHt0RVOr8PH2K7CcE1605PVE6a4fjpJbakcsCcqXGu2HHlghtIuYoXV73ANW8SDaKmkQsgk-WDBqz6DkZwpAWNEm6bBDlB_y3y1__ivcIFxPqTOk_C_kaFj-KQhwCu5rydkyoMBymnENNk9SxQXy0]--></g></svg>