<?xml version="1.0" encoding="us-ascii" standalone="no"?><svg xmlns="http://www.w3.org/2000/svg" xmlns:xlink="http://www.w3.org/1999/xlink" contentStyleType="text/css" height="3213.5417px" preserveAspectRatio="none" style="width:4260px;height:3213px;background:#FFFFFF;" version="1.1" viewBox="0 0 4260 3213" width="4260.4167px" zoomAndPan="magnify"><defs/><g><ellipse cx="3598.9583" cy="83.3333" fill="#222222" rx="52.0833" ry="52.0833" style="stroke:#222222;stroke-width:5.208333333333333;"/><g id="OPENED_FORM_BUILDER"><rect fill="#F1F1F1" height="260.4167" rx="52.0833" ry="52.0833" style="stroke:#181818;stroke-width:2.6041666666666665;" width="968.75" x="3114.5833" y="453.125"/><line style="stroke:#181818;stroke-width:2.6041666666666665;" x1="3114.5833" x2="4083.3333" y1="604.5204" y2="604.5204"/><text fill="#000000" font-family="sans-serif" font-size="72.9167" lengthAdjust="spacing" textLength="864.5833" x="3166.6667" y="557.1142">OPENED_FORM_BUILDER</text></g><g id="OPENED_FORM_STRUCTURE_MANAGEMENT"><rect fill="#F1F1F1" height="260.4167" rx="52.0833" ry="52.0833" style="stroke:#181818;stroke-width:2.6041666666666665;" width="1630.2083" x="1143.2292" y="1135.4167"/><line style="stroke:#181818;stroke-width:2.6041666666666665;" x1="1143.2292" x2="2773.4375" y1="1286.8121" y2="1286.8121"/><text fill="#000000" font-family="sans-serif" font-size="72.9167" lengthAdjust="spacing" textLength="1526.0417" x="1195.3125" y="1239.4059">OPENED_FORM_STRUCTURE_MANAGEMENT</text></g><g id="OPENED_FORM_DATA_MANAGEMENT"><rect fill="#F1F1F1" height="260.4167" rx="52.0833" ry="52.0833" style="stroke:#181818;stroke-width:2.6041666666666665;" width="1406.25" x="2182.2917" y="1760.4167"/><line style="stroke:#181818;stroke-width:2.6041666666666665;" x1="2182.2917" x2="3588.5417" y1="1911.8121" y2="1911.8121"/><text fill="#000000" font-family="sans-serif" font-size="72.9167" lengthAdjust="spacing" textLength="1302.0833" x="2234.375" y="1864.4059">OPENED_FORM_DATA_MANAGEMENT</text></g><g id="OPENED_INPUT_MANAGEMENT"><rect fill="#F1F1F1" height="260.4167" rx="52.0833" ry="52.0833" style="stroke:#181818;stroke-width:2.6041666666666665;" width="1197.9167" x="36.4583" y="2385.4167"/><line style="stroke:#181818;stroke-width:2.6041666666666665;" x1="36.4583" x2="1234.375" y1="2536.8121" y2="2536.8121"/><text fill="#000000" font-family="sans-serif" font-size="72.9167" lengthAdjust="spacing" textLength="1093.75" x="88.5417" y="2489.4059">OPENED_INPUT_MANAGEMENT</text></g><ellipse cx="2473.9583" cy="3125" fill="none" rx="57.2917" ry="57.2917" style="stroke:#222222;stroke-width:5.208333333333333;"/><ellipse cx="2473.9583" cy="3125" fill="#222222" rx="31.25" ry="31.25" style="stroke:#222222;stroke-width:5.208333333333333;"/><!--link *start* to OPENED_FORM_BUILDER--><g id="link_*start*_OPENED_FORM_BUILDER"><path d="M3598.9583,137.2917 C3598.9583,209.8437 3598.9583,317.4479 3598.9583,420.0521 " fill="none" id="*start*-to-OPENED_FORM_BUILDER" style="stroke:#181818;stroke-width:5.208333333333333;"/><polygon fill="#181818" points="3598.9583,451.3021,3619.7917,404.4271,3598.9583,425.2604,3578.125,404.4271,3598.9583,451.3021" style="stroke:#181818;stroke-width:5.208333333333333;"/></g><!--link OPENED_FORM_BUILDER to OPENED_FORM_STRUCTURE_MANAGEMENT--><g id="link_OPENED_FORM_BUILDER_OPENED_FORM_STRUCTURE_MANAGEMENT"><path d="M3288.4375,715.7292 C2996.3021,835.3646 2590.1184,1001.7024 2297.8788,1121.3378 " fill="none" id="OPENED_FORM_BUILDER-to-OPENED_FORM_STRUCTURE_MANAGEMENT" style="stroke:#181818;stroke-width:5.208333333333333;"/><polygon fill="#181818" points="2268.9583,1133.1771,2320.2319,1134.6984,2293.0587,1123.311,2304.4462,1096.1378,2268.9583,1133.1771" style="stroke:#181818;stroke-width:5.208333333333333;"/></g><!--link OPENED_FORM_BUILDER to OPENED_FORM_DATA_MANAGEMENT--><g id="link_OPENED_FORM_BUILDER_OPENED_FORM_DATA_MANAGEMENT"><path d="M3573.5938,715.2604 C3523.5417,965.7292 3416.6667,1500 3416.6667,1500 C3416.6667,1500 3240.8691,1627.537 3086.1295,1739.7765 " fill="none" id="OPENED_FORM_BUILDER-to-OPENED_FORM_DATA_MANAGEMENT" style="stroke:#181818;stroke-width:5.208333333333333;"/><polygon fill="#181818" points="3060.8333,1758.125,3111.0099,1747.4664,3081.9135,1742.8346,3086.5453,1713.7382,3060.8333,1758.125" style="stroke:#181818;stroke-width:5.208333333333333;"/></g><!--link OPENED_INPUT_MANAGEMENT to OPENED_INPUT_MANAGEMENT--><g id="link_OPENED_INPUT_MANAGEMENT_OPENED_INPUT_MANAGEMENT"><path d="M1236.5104,2446.3542 C1342.6562,2455.4688 1416.6667,2478.5417 1416.6667,2515.625 C1416.6667,2552.6563 1373.7917,2573.1077 1267.6458,2582.2223 " fill="none" id="OPENED_INPUT_MANAGEMENT-to-OPENED_INPUT_MANAGEMENT" style="stroke:#181818;stroke-width:5.208333333333333;"/><polygon fill="#181818" points="1236.5104,2584.8958,1284.9959,2601.6425,1262.4566,2582.6679,1281.4312,2560.1286,1236.5104,2584.8958" style="stroke:#181818;stroke-width:5.208333333333333;"/><path d="M1442.7083,2359.375 L1442.7083,2671.875 A52.0833,52.0833 0 0 0 1494.7917,2723.9583 L1796.875,2723.9583 A52.0833,52.0833 0 0 0 1848.9583,2671.875 L1848.9583,2359.375 L1796.875,2307.2917 L1494.7917,2307.2917 A52.0833,52.0833 0 0 0 1442.7083,2359.375 " fill="#FEFFDD" style="stroke:#181818;stroke-width:2.6041666666666665;"/><path d="M1796.875,2307.2917 L1796.875,2333.3333 A26.0417,26.0417 0 0 0 1822.9167,2359.375 L1848.9583,2359.375 L1796.875,2307.2917 " fill="#FEFFDD" style="stroke:#181818;stroke-width:2.6041666666666665;"/><ellipse cx="1502.6042" cy="2386.4897" fill="#000000" rx="13.0208" ry="13.0208" style="stroke:#000000;stroke-width:0.0;"/><text fill="#000000" font-family="sans-serif" font-size="67.7083" lengthAdjust="spacing" textLength="145.8333" x="1536.4583" y="2405.7136">Save</text><ellipse cx="1502.6042" cy="2478.7085" fill="#000000" rx="13.0208" ry="13.0208" style="stroke:#000000;stroke-width:0.0;"/><text fill="#000000" font-family="sans-serif" font-size="67.7083" lengthAdjust="spacing" textLength="234.375" x="1536.4583" y="2497.9324">Update</text><ellipse cx="1502.6042" cy="2570.9273" fill="#000000" rx="13.0208" ry="13.0208" style="stroke:#000000;stroke-width:0.0;"/><text fill="#000000" font-family="sans-serif" font-size="67.7083" lengthAdjust="spacing" textLength="197.9167" x="1536.4583" y="2590.1513">Delete</text><ellipse cx="1502.6042" cy="2663.1462" fill="#000000" rx="13.0208" ry="13.0208" style="stroke:#000000;stroke-width:0.0;"/><text fill="#000000" font-family="sans-serif" font-size="67.7083" lengthAdjust="spacing" textLength="171.875" x="1536.4583" y="2682.3701">Show</text></g><!--link OPENED_FORM_STRUCTURE_MANAGEMENT to OPENED_FORM_STRUCTURE_MANAGEMENT--><g id="link_OPENED_FORM_STRUCTURE_MANAGEMENT_OPENED_FORM_STRUCTURE_MANAGEMENT"><path d="M2774.2708,1200.4167 C2883.2813,1211.4583 2955.7292,1233.1771 2955.7292,1265.625 C2955.7292,1298.0729 2914.3722,1316.6425 2805.3617,1327.6841 " fill="none" id="OPENED_FORM_STRUCTURE_MANAGEMENT-to-OPENED_FORM_STRUCTURE_MANAGEMENT" style="stroke:#181818;stroke-width:5.208333333333333;"/><polygon fill="#181818" points="2774.2708,1330.8333,2823.0067,1346.8368,2800.1799,1328.209,2818.8077,1305.3823,2774.2708,1330.8333" style="stroke:#181818;stroke-width:5.208333333333333;"/><path d="M2981.7708,1109.375 L2981.7708,1421.875 A52.0833,52.0833 0 0 0 3033.8542,1473.9583 L3335.9375,1473.9583 A52.0833,52.0833 0 0 0 3388.0208,1421.875 L3388.0208,1109.375 L3335.9375,1057.2917 L3033.8542,1057.2917 A52.0833,52.0833 0 0 0 2981.7708,1109.375 " fill="#FEFFDD" style="stroke:#181818;stroke-width:2.6041666666666665;"/><path d="M3335.9375,1057.2917 L3335.9375,1083.3333 A26.0417,26.0417 0 0 0 3361.9792,1109.375 L3388.0208,1109.375 L3335.9375,1057.2917 " fill="#FEFFDD" style="stroke:#181818;stroke-width:2.6041666666666665;"/><ellipse cx="3041.6667" cy="1136.4897" fill="#000000" rx="13.0208" ry="13.0208" style="stroke:#000000;stroke-width:0.0;"/><text fill="#000000" font-family="sans-serif" font-size="67.7083" lengthAdjust="spacing" textLength="145.8333" x="3075.5208" y="1155.7136">Save</text><ellipse cx="3041.6667" cy="1228.7085" fill="#000000" rx="13.0208" ry="13.0208" style="stroke:#000000;stroke-width:0.0;"/><text fill="#000000" font-family="sans-serif" font-size="67.7083" lengthAdjust="spacing" textLength="234.375" x="3075.5208" y="1247.9324">Update</text><ellipse cx="3041.6667" cy="1320.9273" fill="#000000" rx="13.0208" ry="13.0208" style="stroke:#000000;stroke-width:0.0;"/><text fill="#000000" font-family="sans-serif" font-size="67.7083" lengthAdjust="spacing" textLength="197.9167" x="3075.5208" y="1340.1513">Delete</text><ellipse cx="3041.6667" cy="1413.1462" fill="#000000" rx="13.0208" ry="13.0208" style="stroke:#000000;stroke-width:0.0;"/><text fill="#000000" font-family="sans-serif" font-size="67.7083" lengthAdjust="spacing" textLength="171.875" x="3075.5208" y="1432.3701">Show</text></g><!--link OPENED_FORM_STRUCTURE_MANAGEMENT to OPENED_INPUT_MANAGEMENT--><g id="link_OPENED_FORM_STRUCTURE_MANAGEMENT_OPENED_INPUT_MANAGEMENT"><path d="M1824.2188,1396.5104 C1570.625,1634.1146 1046.5536,2125.1953 792.6994,2363.0598 " fill="none" id="OPENED_FORM_STRUCTURE_MANAGEMENT-to-OPENED_INPUT_MANAGEMENT" style="stroke:#181818;stroke-width:5.208333333333333;"/><polygon fill="#181818" points="769.8958,2384.4271,818.346,2367.5786,788.8988,2366.621,789.8564,2337.1738,769.8958,2384.4271" style="stroke:#181818;stroke-width:5.208333333333333;"/></g><!--link OPENED_FORM_DATA_MANAGEMENT to OPENED_FORM_DATA_MANAGEMENT--><g id="link_OPENED_FORM_DATA_MANAGEMENT_OPENED_FORM_DATA_MANAGEMENT"><path d="M3590.4167,1783.75 C3697.8646,1800.0521 3770.8333,1835.6771 3770.8333,1890.625 C3770.8333,1945.5729 3728.761,1976.5103 3621.3131,1992.8124 " fill="none" id="OPENED_FORM_DATA_MANAGEMENT-to-OPENED_FORM_DATA_MANAGEMENT" style="stroke:#181818;stroke-width:5.208333333333333;"/><polygon fill="#181818" points="3590.4167,1997.5,3639.8864,2011.0662,3616.1637,1993.5936,3633.6362,1969.8709,3590.4167,1997.5" style="stroke:#181818;stroke-width:5.208333333333333;"/><path d="M3796.875,1734.375 L3796.875,2046.875 A52.0833,52.0833 0 0 0 3848.9583,2098.9583 L4151.0417,2098.9583 A52.0833,52.0833 0 0 0 4203.125,2046.875 L4203.125,1734.375 L4151.0417,1682.2917 L3848.9583,1682.2917 A52.0833,52.0833 0 0 0 3796.875,1734.375 " fill="#FEFFDD" style="stroke:#181818;stroke-width:2.6041666666666665;"/><path d="M4151.0417,1682.2917 L4151.0417,1708.3333 A26.0417,26.0417 0 0 0 4177.0833,1734.375 L4203.125,1734.375 L4151.0417,1682.2917 " fill="#FEFFDD" style="stroke:#181818;stroke-width:2.6041666666666665;"/><ellipse cx="3856.7708" cy="1761.4897" fill="#000000" rx="13.0208" ry="13.0208" style="stroke:#000000;stroke-width:0.0;"/><text fill="#000000" font-family="sans-serif" font-size="67.7083" lengthAdjust="spacing" textLength="145.8333" x="3890.625" y="1780.7136">Save</text><ellipse cx="3856.7708" cy="1853.7085" fill="#000000" rx="13.0208" ry="13.0208" style="stroke:#000000;stroke-width:0.0;"/><text fill="#000000" font-family="sans-serif" font-size="67.7083" lengthAdjust="spacing" textLength="234.375" x="3890.625" y="1872.9324">Update</text><ellipse cx="3856.7708" cy="1945.9273" fill="#000000" rx="13.0208" ry="13.0208" style="stroke:#000000;stroke-width:0.0;"/><text fill="#000000" font-family="sans-serif" font-size="67.7083" lengthAdjust="spacing" textLength="197.9167" x="3890.625" y="1965.1513">Delete</text><ellipse cx="3856.7708" cy="2038.1462" fill="#000000" rx="13.0208" ry="13.0208" style="stroke:#000000;stroke-width:0.0;"/><text fill="#000000" font-family="sans-serif" font-size="67.7083" lengthAdjust="spacing" textLength="171.875" x="3890.625" y="2057.3701">Show</text></g><!--link OPENED_INPUT_MANAGEMENT to *end*--><g id="link_OPENED_INPUT_MANAGEMENT_*end*"><path d="M1025.3125,2647.8646 C1485.9375,2797.9167 2185.859,3025.948 2389.7652,3092.3543 " fill="none" id="OPENED_INPUT_MANAGEMENT-to-*end*" style="stroke:#181818;stroke-width:5.208333333333333;"/><polygon fill="#181818" points="2419.4792,3102.0313,2381.3595,3067.7065,2394.7175,3093.9671,2368.4569,3107.3251,2419.4792,3102.0313" style="stroke:#181818;stroke-width:5.208333333333333;"/></g><!--link OPENED_FORM_STRUCTURE_MANAGEMENT to *end*--><g id="link_OPENED_FORM_STRUCTURE_MANAGEMENT_*end*"><path d="M1990.625,1396.875 C2051.4583,1634.4792 2177.0833,2125 2177.0833,2125 C2177.0833,2125 2388.4061,2833.0762 2449.4998,3037.7637 " fill="none" id="OPENED_FORM_STRUCTURE_MANAGEMENT-to-*end*" style="stroke:#181818;stroke-width:5.208333333333333;"/><polygon fill="#181818" points="2458.4375,3067.7083,2464.9941,3016.8329,2450.9894,3042.7545,2425.0679,3028.7498,2458.4375,3067.7083" style="stroke:#181818;stroke-width:5.208333333333333;"/></g><!--link OPENED_FORM_DATA_MANAGEMENT to *end*--><g id="link_OPENED_FORM_DATA_MANAGEMENT_*end*"><path d="M2842.9167,2022.1875 C2753.8021,2287.2917 2560.6372,2861.9943 2500.7934,3039.9631 " fill="none" id="OPENED_FORM_DATA_MANAGEMENT-to-*end*" style="stroke:#181818;stroke-width:5.208333333333333;"/><polygon fill="#181818" points="2490.8333,3069.5833,2525.5203,3031.793,2499.1334,3044.8998,2486.0267,3018.5129,2490.8333,3069.5833" style="stroke:#181818;stroke-width:5.208333333333333;"/></g><!--link OPENED_FORM_BUILDER to *end*--><g id="link_OPENED_FORM_BUILDER_*end*"><path d="M3663.8542,715.2083 C3808.6979,998.0208 4145.8333,1656.25 4145.8333,1656.25 C4145.8333,1656.25 4145.8333,2125 4145.8333,2125 C4145.8333,2125 2823.1566,2911.9877 2549.0421,3075.1127 " fill="none" id="OPENED_FORM_BUILDER-to-*end*" style="stroke:#181818;stroke-width:5.208333333333333;"/><polygon fill="#181818" points="2522.1875,3091.0938,2573.1234,3085.0252,2544.5663,3077.7762,2551.8153,3049.2191,2522.1875,3091.0938" style="stroke:#181818;stroke-width:5.208333333333333;"/></g><!--SRC=[hPBTYi8m48Nlvod6suBr3HQwDegmhT8cLoAbs463CGtRLF7jjVv0hKKh2hcOv9m3yqsc9_LIbHcXwmukfxHI5OE2h9LwLRYct2eeDbARz3_TefAQxC4GcbmTgWl0t5bWl_-3qnaBcP-Cfb6G_8h9dyyYW9R71tFC8p7a8c99u8NUc0Kiv9s2liUzUkOMceGpmMj2FTZKGEUMCDSLsGOG7OpJ7PqBORBKNagV55tBU9tlWNI6LV0Ui0sa6-rdJRpJmmC_F9deoub_PtYj_tLQgsvWJMCRGzDJtwXAEm80]--></g></svg>