<?xml version="1.0" encoding="us-ascii" standalone="no"?><svg xmlns="http://www.w3.org/2000/svg" xmlns:xlink="http://www.w3.org/1999/xlink" contentStyleType="text/css" height="4828.125px" preserveAspectRatio="none" style="width:3437px;height:4828px;background:#FFFFFF;" version="1.1" viewBox="0 0 3437 4828" width="3437.5px" zoomAndPan="magnify"><defs/><g><ellipse cx="1828.125" cy="83.3333" fill="#222222" rx="52.0833" ry="52.0833" style="stroke:#222222;stroke-width:5.208333333333333;"/><g id="OPENED_FORM_DATA_MANAGEMENT"><rect fill="#F1F1F1" height="260.4167" rx="52.0833" ry="52.0833" style="stroke:#181818;stroke-width:2.6041666666666665;" width="1406.25" x="1125" y="447.9167"/><line style="stroke:#181818;stroke-width:2.6041666666666665;" x1="1125" x2="2531.25" y1="599.3121" y2="599.3121"/><text fill="#000000" font-family="sans-serif" font-size="72.9167" lengthAdjust="spacing" textLength="1302.0833" x="1177.0833" y="551.9059">OPENED_FORM_DATA_MANAGEMENT</text></g><path d="M88.5417,1020.8333 L1807.2917,1020.8333 A52.0833,52.0833 0 0 1 1859.375,1072.9167 L1859.375,1172.2287 L36.4583,1172.2287 L36.4583,1072.9167 A52.0833,52.0833 0 0 1 88.5417,1020.8333 " fill="#F1F1F1" style="stroke:#F1F1F1;stroke-width:5.208333333333333;"/><rect fill="none" height="3349.3121" rx="52.0833" ry="52.0833" style="stroke:#181818;stroke-width:2.6041666666666665;" width="1822.9167" x="36.4583" y="1020.8333"/><line style="stroke:#181818;stroke-width:2.6041666666666665;" x1="36.4583" x2="1859.375" y1="1172.2287" y2="1172.2287"/><text fill="#000000" font-family="sans-serif" font-size="72.9167" lengthAdjust="spacing" textLength="630.2083" x="632.8125" y="1124.8226">SAVE_FORM_DATA</text><g id="SAVE_FORM_DATA.CF1"><rect fill="#F1F1F1" height="260.4167" rx="52.0833" ry="52.0833" style="stroke:#181818;stroke-width:2.6041666666666665;" width="260.4167" x="781.25" y="1526.3954"/><line style="stroke:#181818;stroke-width:2.6041666666666665;" x1="781.25" x2="1041.6667" y1="1677.7908" y2="1677.7908"/><text fill="#000000" font-family="sans-serif" font-size="72.9167" lengthAdjust="spacing" textLength="20.8333" x="901.0417" y="1630.3846">&#160;</text></g><g id="SAVE_FORM_DATA.CF2"><rect fill="#F1F1F1" height="260.4167" rx="52.0833" ry="52.0833" style="stroke:#181818;stroke-width:2.6041666666666665;" width="260.4167" x="781.25" y="1979.5204"/><line style="stroke:#181818;stroke-width:2.6041666666666665;" x1="781.25" x2="1041.6667" y1="2130.9158" y2="2130.9158"/><text fill="#000000" font-family="sans-serif" font-size="72.9167" lengthAdjust="spacing" textLength="20.8333" x="901.0417" y="2083.5096">&#160;</text></g><g id="SAVE_FORM_DATA.CF3"><rect fill="#F1F1F1" height="260.4167" rx="52.0833" ry="52.0833" style="stroke:#181818;stroke-width:2.6041666666666665;" width="260.4167" x="213.5417" y="2820.6662"/><line style="stroke:#181818;stroke-width:2.6041666666666665;" x1="213.5417" x2="473.9583" y1="2972.0616" y2="2972.0616"/><text fill="#000000" font-family="sans-serif" font-size="72.9167" lengthAdjust="spacing" textLength="20.8333" x="333.3333" y="2924.6555">&#160;</text></g><g id="elem_CFC1"><polygon fill="#F1F1F1" points="1395.8333,3885.7704,1458.3333,3948.2704,1395.8333,4010.7704,1333.3333,3948.2704,1395.8333,3885.7704" style="stroke:#181818;stroke-width:2.6041666666666665;"/></g><g id="elem_CFC2"><polygon fill="#F1F1F1" points="911.4583,3286.8121,973.9583,3349.3121,911.4583,3411.8121,848.9583,3349.3121,911.4583,3286.8121" style="stroke:#181818;stroke-width:2.6041666666666665;"/></g><ellipse cx="911.4583" cy="1281.6037" fill="#222222" rx="52.0833" ry="52.0833" style="stroke:#222222;stroke-width:5.208333333333333;"/><ellipse cx="1395.8333" cy="4260.7704" fill="none" rx="57.2917" ry="57.2917" style="stroke:#222222;stroke-width:5.208333333333333;"/><ellipse cx="1395.8333" cy="4260.7704" fill="#222222" rx="31.25" ry="31.25" style="stroke:#222222;stroke-width:5.208333333333333;"/><!--link *start*SAVE_FORM_DATA to CF1--><g id="link_*start*SAVE_FORM_DATA_CF1"><path d="M911.4583,1335.9787 C911.4583,1384.2079 911.4583,1428.4267 911.4583,1493.4787 " fill="none" id="*start*SAVE_FORM_DATA-to-CF1" style="stroke:#181818;stroke-width:5.208333333333333;"/><polygon fill="#181818" points="911.4583,1524.7287,932.2917,1477.8537,911.4583,1498.6871,890.625,1477.8537,911.4583,1524.7287" style="stroke:#181818;stroke-width:5.208333333333333;"/></g><!--link CF1 to CF2--><g id="link_CF1_CF2"><path d="M911.4583,1787.4892 C911.4583,1846.8121 911.4583,1886.1871 911.4583,1945.7183 " fill="none" id="CF1-to-CF2" style="stroke:#181818;stroke-width:5.208333333333333;"/><polygon fill="#181818" points="911.4583,1976.9683,932.2917,1930.0933,911.4583,1950.9267,890.625,1930.0933,911.4583,1976.9683" style="stroke:#181818;stroke-width:5.208333333333333;"/></g><!--link CF2 to CF3--><g id="link_CF2_CF3"><path d="M780.1042,2150.0933 C548.9063,2211.9162 93.75,2333.6871 93.75,2333.6871 C93.75,2333.6871 93.75,2713.8954 93.75,2713.8954 C93.75,2713.8954 128.5507,2746.1293 188.4987,2801.7543 " fill="none" id="CF2-to-CF3" style="stroke:#181818;stroke-width:5.208333333333333;"/><polygon fill="#181818" points="211.4063,2823.01,191.2153,2775.8547,192.3166,2805.2969,162.8744,2806.3982,211.4063,2823.01" style="stroke:#181818;stroke-width:5.208333333333333;"/><path d="M119.7917,2411.8121 L119.7917,2635.7704 A52.0833,52.0833 0 0 0 171.875,2687.8537 L760.4167,2687.8537 A52.0833,52.0833 0 0 0 812.5,2635.7704 L812.5,2411.8121 L760.4167,2359.7287 L171.875,2359.7287 A52.0833,52.0833 0 0 0 119.7917,2411.8121 " fill="#FEFFDD" style="stroke:#181818;stroke-width:2.6041666666666665;"/><path d="M760.4167,2359.7287 L760.4167,2385.7704 A26.0417,26.0417 0 0 0 786.4583,2411.8121 L812.5,2411.8121 L760.4167,2359.7287 " fill="#FEFFDD" style="stroke:#181818;stroke-width:2.6041666666666665;"/><text fill="#000000" font-family="sans-serif" font-size="67.7083" font-weight="bold" lengthAdjust="spacing" textLength="583.3333" x="151.0417" y="2458.1507">System allows to:</text><ellipse cx="179.6875" cy="2531.1456" fill="#000000" rx="13.0208" ry="13.0208" style="stroke:#000000;stroke-width:0.0;"/><text fill="#000000" font-family="sans-serif" font-size="67.7083" lengthAdjust="spacing" textLength="145.8333" x="213.5417" y="2550.3695">Save</text><ellipse cx="179.6875" cy="2623.3644" fill="#000000" rx="13.0208" ry="13.0208" style="stroke:#000000;stroke-width:0.0;"/><text fill="#000000" font-family="sans-serif" font-size="67.7083" lengthAdjust="spacing" textLength="234.375" x="213.5417" y="2642.5883">Update</text></g><!--link CF3 to CFC2--><g id="link_CF3_CFC2"><path d="M475.4167,3046.0829 C606.4583,3135.6142 773.0451,3249.5569 851.0139,3302.786 " fill="none" id="CF3-to-CFC2" style="stroke:#181818;stroke-width:5.208333333333333;"/><polygon fill="#181818" points="876.8229,3320.4058,849.8559,3276.7701,855.3154,3305.7227,826.3629,3311.1822,876.8229,3320.4058" style="stroke:#181818;stroke-width:5.208333333333333;"/></g><!--link CFC2 to CFC1--><g id="link_CFC2_CFC1"><path d="M928.5417,3398.0621 C972.0312,3508.7392 1083.3333,3792.0204 1083.3333,3792.0204 C1083.3333,3792.0204 1242.1219,3868.7913 1326.8615,3909.7288 " fill="none" id="CFC2-to-CFC1" style="stroke:#008000;stroke-width:5.208333333333333;"/><polygon fill="#008000" points="1355,3923.3225,1321.8547,3884.173,1331.5512,3911.9944,1303.7298,3921.691,1355,3923.3225" style="stroke:#008000;stroke-width:5.208333333333333;"/><path d="M1109.375,3583.6871 L1109.375,3713.8954 A52.0833,52.0833 0 0 0 1161.4583,3765.9787 L1734.375,3765.9787 A52.0833,52.0833 0 0 0 1786.4583,3713.8954 L1786.4583,3583.6871 L1734.375,3531.6037 L1161.4583,3531.6037 A52.0833,52.0833 0 0 0 1109.375,3583.6871 " fill="#FEFFDD" style="stroke:#181818;stroke-width:2.6041666666666665;"/><path d="M1734.375,3531.6037 L1734.375,3557.6454 A26.0417,26.0417 0 0 0 1760.4167,3583.6871 L1786.4583,3583.6871 L1734.375,3531.6037 " fill="#FEFFDD" style="stroke:#181818;stroke-width:2.6041666666666665;"/><text fill="#000000" font-family="sans-serif" font-size="67.7083" font-weight="bold" lengthAdjust="spacing" textLength="489.5833" x="1140.625" y="3630.0257">System shows:</text><text fill="#000000" font-family="sans-serif" font-size="67.7083" lengthAdjust="spacing" textLength="567.7083" x="1140.625" y="3722.2445">Saved successfully</text></g><!--link CFC2 to CF2--><g id="link_CFC2_CF2"><path d="M911.4583,3283.3746 C911.4583,3092.6975 911.4583,2534.4162 911.4583,2273.1142 " fill="none" id="CFC2-to-CF2" style="stroke:#FF0000;stroke-width:5.208333333333333;"/><polygon fill="#FF0000" points="911.4583,2241.8642,890.625,2288.7392,911.4583,2267.9058,932.2917,2288.7392,911.4583,2241.8642" style="stroke:#FF0000;stroke-width:5.208333333333333;"/><path d="M937.5,2885.7704 L937.5,3015.9787 A52.0833,52.0833 0 0 0 989.5833,3068.0621 L1661.4583,3068.0621 A52.0833,52.0833 0 0 0 1713.5417,3015.9787 L1713.5417,2885.7704 L1661.4583,2833.6871 L989.5833,2833.6871 A52.0833,52.0833 0 0 0 937.5,2885.7704 " fill="#FEFFDD" style="stroke:#181818;stroke-width:2.6041666666666665;"/><path d="M1661.4583,2833.6871 L1661.4583,2859.7287 A26.0417,26.0417 0 0 0 1687.5,2885.7704 L1713.5417,2885.7704 L1661.4583,2833.6871 " fill="#FEFFDD" style="stroke:#181818;stroke-width:2.6041666666666665;"/><text fill="#000000" font-family="sans-serif" font-size="67.7083" font-weight="bold" lengthAdjust="spacing" textLength="567.7083" x="968.75" y="2932.109">System requires:</text><ellipse cx="997.3958" cy="3005.1039" fill="#000000" rx="13.0208" ry="13.0208" style="stroke:#000000;stroke-width:0.0;"/><text fill="#000000" font-family="sans-serif" font-size="67.7083" lengthAdjust="spacing" textLength="604.1667" x="1031.25" y="3024.3278">Required form data</text></g><!--link CFC1 to CF2--><g id="link_CFC1_CF2"><path d="M1440.4167,3926.9162 C1547.9167,3887.9579 1812.5,3792.0204 1812.5,3792.0204 C1812.5,3792.0204 1812.5,3505.5621 1812.5,3505.5621 C1812.5,3505.5621 1760.4167,2807.6454 1760.4167,2807.6454 C1760.4167,2807.6454 1307.0754,2437.7684 1068.3254,2242.9247 " fill="none" id="CFC1-to-CF2" style="stroke:#181818;stroke-width:5.208333333333333;"/><polygon fill="#181818" points="1044.1146,2223.1662,1067.2586,2268.9445,1064.2903,2239.6316,1093.6032,2236.6634,1044.1146,2223.1662" style="stroke:#181818;stroke-width:5.208333333333333;"/></g><!--link CFC1 to *end*SAVE_FORM_DATA--><g id="link_CFC1_*end*SAVE_FORM_DATA"><path d="M1395.8333,4013.1662 C1395.8333,4068.1662 1395.8333,4117.8537 1395.8333,4170.8225 " fill="none" id="CFC1-to-*end*SAVE_FORM_DATA" style="stroke:#181818;stroke-width:5.208333333333333;"/><polygon fill="#181818" points="1395.8333,4202.0725,1416.6667,4155.1975,1395.8333,4176.0308,1375,4155.1975,1395.8333,4202.0725" style="stroke:#181818;stroke-width:5.208333333333333;"/></g><path d="M2095.3125,1307.2917 L3331.7914,1307.2917 A52.0833,52.0833 0 0 1 3383.8747,1359.375 L3383.8747,1458.6871 L2043.2292,1458.6871 L2043.2292,1359.375 A52.0833,52.0833 0 0 1 2095.3125,1307.2917 " fill="#F1F1F1" style="stroke:#F1F1F1;stroke-width:5.208333333333333;"/><rect fill="none" height="2776.3954" rx="52.0833" ry="52.0833" style="stroke:#181818;stroke-width:2.6041666666666665;" width="1340.6455" x="2043.2292" y="1307.2917"/><line style="stroke:#181818;stroke-width:2.6041666666666665;" x1="2043.2292" x2="3383.8747" y1="1458.6871" y2="1458.6871"/><text fill="#000000" font-family="sans-serif" font-size="72.9167" lengthAdjust="spacing" textLength="713.5417" x="2356.7811" y="1411.2809">DELETE_FORM_DATA</text><g id="DELETE_FORM_DATA.DF1"><rect fill="#F1F1F1" height="260.4167" rx="52.0833" ry="52.0833" style="stroke:#181818;stroke-width:2.6041666666666665;" width="260.4167" x="3076.583" y="1812.8537"/><line style="stroke:#181818;stroke-width:2.6041666666666665;" x1="3076.583" x2="3336.9997" y1="1964.2491" y2="1964.2491"/><text fill="#000000" font-family="sans-serif" font-size="72.9167" lengthAdjust="spacing" textLength="20.8333" x="3196.3747" y="1916.843">&#160;</text></g><g id="DELETE_FORM_DATA.DF2"><rect fill="#F1F1F1" height="260.4167" rx="52.0833" ry="52.0833" style="stroke:#181818;stroke-width:2.6041666666666665;" width="260.4167" x="2118.2497" y="2547.2287"/><line style="stroke:#181818;stroke-width:2.6041666666666665;" x1="2118.2497" x2="2378.6664" y1="2698.6241" y2="2698.6241"/><text fill="#000000" font-family="sans-serif" font-size="72.9167" lengthAdjust="spacing" textLength="20.8333" x="2238.0414" y="2651.218">&#160;</text></g><g id="elem_DFC1"><polygon fill="#F1F1F1" points="2972.4164,3599.3121,3034.9164,3661.8121,2972.4164,3724.3121,2909.9164,3661.8121,2972.4164,3599.3121" style="stroke:#181818;stroke-width:2.6041666666666665;"/></g><g id="elem_DFC2"><polygon fill="#F1F1F1" points="2545.333,3000.3537,2607.833,3062.8537,2545.333,3125.3537,2482.833,3062.8537,2545.333,3000.3537" style="stroke:#181818;stroke-width:2.6041666666666665;"/></g><ellipse cx="3206.7914" cy="1568.0621" fill="#222222" rx="52.0833" ry="52.0833" style="stroke:#222222;stroke-width:5.208333333333333;"/><ellipse cx="2972.4164" cy="3974.3121" fill="none" rx="57.2917" ry="57.2917" style="stroke:#222222;stroke-width:5.208333333333333;"/><ellipse cx="2972.4164" cy="3974.3121" fill="#222222" rx="31.25" ry="31.25" style="stroke:#222222;stroke-width:5.208333333333333;"/><!--link *start*DELETE_FORM_DATA to DF1--><g id="link_*start*DELETE_FORM_DATA_DF1"><path d="M3206.7914,1622.4371 C3206.7914,1670.6662 3206.7914,1714.885 3206.7914,1779.9371 " fill="none" id="*start*DELETE_FORM_DATA-to-DF1" style="stroke:#181818;stroke-width:5.208333333333333;"/><polygon fill="#181818" points="3206.7914,1811.1871,3227.6247,1764.3121,3206.7914,1785.1454,3185.958,1764.3121,3206.7914,1811.1871" style="stroke:#181818;stroke-width:5.208333333333333;"/></g><!--link DF1 to DF2--><g id="link_DF1_DF2"><path d="M3075.0205,1975.51 C2791.583,2034.1558 2149.4997,2167.0204 2149.4997,2167.0204 C2149.4997,2167.0204 2149.4997,2453.4787 2149.4997,2453.4787 C2149.4997,2453.4787 2156.2549,2468.392 2178.0257,2516.517 " fill="none" id="DF1-to-DF2" style="stroke:#181818;stroke-width:5.208333333333333;"/><polygon fill="#181818" points="2190.906,2544.9892,2190.567,2493.6941,2180.1724,2521.2624,2152.6042,2510.8678,2190.906,2544.9892" style="stroke:#181818;stroke-width:5.208333333333333;"/><path d="M2175.5414,2245.1454 L2175.5414,2375.3537 A52.0833,52.0833 0 0 0 2227.6247,2427.4371 L3055.7497,2427.4371 A52.0833,52.0833 0 0 0 3107.833,2375.3537 L3107.833,2245.1454 L3055.7497,2193.0621 L2227.6247,2193.0621 A52.0833,52.0833 0 0 0 2175.5414,2245.1454 " fill="#FEFFDD" style="stroke:#181818;stroke-width:2.6041666666666665;"/><path d="M3055.7497,2193.0621 L3055.7497,2219.1037 A26.0417,26.0417 0 0 0 3081.7914,2245.1454 L3107.833,2245.1454 L3055.7497,2193.0621 " fill="#FEFFDD" style="stroke:#181818;stroke-width:2.6041666666666665;"/><text fill="#000000" font-family="sans-serif" font-size="67.7083" font-weight="bold" lengthAdjust="spacing" textLength="567.7083" x="2206.7914" y="2291.484">System requires:</text><ellipse cx="2235.4372" cy="2364.4789" fill="#000000" rx="13.0208" ry="13.0208" style="stroke:#000000;stroke-width:0.0;"/><text fill="#000000" font-family="sans-serif" font-size="67.7083" lengthAdjust="spacing" textLength="760.4167" x="2269.2914" y="2383.7028">Confirmation of deletion</text></g><!--link DF2 to DFC2--><g id="link_DF2_DFC2"><path d="M2348.9789,2809.6246 C2408.8747,2885.2496 2460.9997,2951.1036 2499.0205,2999.1765 " fill="none" id="DF2-to-DFC2" style="stroke:#181818;stroke-width:5.208333333333333;"/><polygon fill="#181818" points="2518.406,3023.6871,2505.6682,2973.9976,2502.2514,3003.2616,2472.9875,2999.8448,2518.406,3023.6871" style="stroke:#181818;stroke-width:5.208333333333333;"/></g><!--link DFC2 to DFC1--><g id="link_DFC2_DFC1"><path d="M2546.0101,3127.0725 C2547.4685,3246.4996 2550.5414,3505.5621 2550.5414,3505.5621 C2550.5414,3505.5621 2791.6405,3591.9049 2899.453,3630.4987 " fill="none" id="DFC2-to-DFC1" style="stroke:#008000;stroke-width:5.208333333333333;"/><polygon fill="#008000" points="2928.8747,3641.0308,2891.7635,3605.6182,2904.3566,3632.2541,2877.7207,3644.8471,2928.8747,3641.0308" style="stroke:#008000;stroke-width:5.208333333333333;"/><path d="M2576.583,3297.2287 L2576.583,3427.4371 A52.0833,52.0833 0 0 0 2628.6664,3479.5204 L3253.6664,3479.5204 A52.0833,52.0833 0 0 0 3305.7497,3427.4371 L3305.7497,3297.2287 L3253.6664,3245.1454 L2628.6664,3245.1454 A52.0833,52.0833 0 0 0 2576.583,3297.2287 " fill="#FEFFDD" style="stroke:#181818;stroke-width:2.6041666666666665;"/><path d="M3253.6664,3245.1454 L3253.6664,3271.1871 A26.0417,26.0417 0 0 0 3279.708,3297.2287 L3305.7497,3297.2287 L3253.6664,3245.1454 " fill="#FEFFDD" style="stroke:#181818;stroke-width:2.6041666666666665;"/><text fill="#000000" font-family="sans-serif" font-size="67.7083" font-weight="bold" lengthAdjust="spacing" textLength="489.5833" x="2607.833" y="3343.5673">System shows:</text><text fill="#000000" font-family="sans-serif" font-size="67.7083" lengthAdjust="spacing" textLength="619.7917" x="2607.833" y="3435.7862">Deleted successfully</text></g><!--link DFC2 to DF1--><g id="link_DFC2_DF1"><path d="M2575.333,3026.8642 C2695.281,2903.7392 3133.8747,2453.4787 3133.8747,2453.4787 C3133.8747,2453.4787 3162.3237,2256.3348 3183.9383,2106.6994 " fill="none" id="DFC2-to-DF1" style="stroke:#FF0000;stroke-width:5.208333333333333;"/><polygon fill="#FF0000" points="3188.406,2075.7704,3161.0852,2119.1855,3184.6829,2101.5446,3202.3238,2125.1423,3188.406,2075.7704" style="stroke:#FF0000;stroke-width:5.208333333333333;"/></g><!--link DFC1 to DF1--><g id="link_DFC1_DF1"><path d="M3015.0726,3638.6871 C3110.2289,3598.6871 3331.7914,3505.5621 3331.7914,3505.5621 C3331.7914,3505.5621 3331.7914,3219.1037 3331.7914,3219.1037 C3331.7914,3219.1037 3253.913,2427.287 3222.2984,2105.8807 " fill="none" id="DFC1-to-DF1" style="stroke:#181818;stroke-width:5.208333333333333;"/><polygon fill="#181818" points="3219.2393,2074.7808,3203.0946,2123.4701,3221.7885,2100.6974,3244.5612,2119.3913,3219.2393,2074.7808" style="stroke:#181818;stroke-width:5.208333333333333;"/></g><!--link DFC1 to *end*DELETE_FORM_DATA--><g id="link_DFC1_*end*DELETE_FORM_DATA"><path d="M2972.4164,3726.7079 C2972.4164,3781.7079 2972.4164,3831.3954 2972.4164,3884.3642 " fill="none" id="DFC1-to-*end*DELETE_FORM_DATA" style="stroke:#181818;stroke-width:5.208333333333333;"/><polygon fill="#181818" points="2972.4164,3915.6142,2993.2497,3868.7392,2972.4164,3889.5725,2951.583,3868.7392,2972.4164,3915.6142" style="stroke:#181818;stroke-width:5.208333333333333;"/></g><ellipse cx="1828.125" cy="4739.9479" fill="none" rx="57.2917" ry="57.2917" style="stroke:#222222;stroke-width:5.208333333333333;"/><ellipse cx="1828.125" cy="4739.9479" fill="#222222" rx="31.25" ry="31.25" style="stroke:#222222;stroke-width:5.208333333333333;"/><!--link *start* to OPENED_FORM_DATA_MANAGEMENT--><g id="link_*start*_OPENED_FORM_DATA_MANAGEMENT"><path d="M1828.125,136.7708 C1828.125,208.0729 1828.125,312.8646 1828.125,414.1667 " fill="none" id="*start*-to-OPENED_FORM_DATA_MANAGEMENT" style="stroke:#181818;stroke-width:5.208333333333333;"/><polygon fill="#181818" points="1828.125,445.4167,1848.9583,398.5417,1828.125,419.375,1807.2917,398.5417,1828.125,445.4167" style="stroke:#181818;stroke-width:5.208333333333333;"/></g><!--link OPENED_FORM_DATA_MANAGEMENT to DELETE_FORM_DATA--><g id="link_OPENED_FORM_DATA_MANAGEMENT_DELETE_FORM_DATA"><path d="M1881.5104,710.4167 C1936.4583,841.1979 2016.3871,1031.2408 2119.5642,1276.8658 " fill="none" id="OPENED_FORM_DATA_MANAGEMENT-to-DELETE_FORM_DATA" style="stroke:#181818;stroke-width:5.208333333333333;"/><polygon fill="#181818" points="2131.6667,1305.6771,2132.7205,1254.3918,2121.5813,1281.6676,2094.3054,1270.5284,2131.6667,1305.6771" style="stroke:#181818;stroke-width:5.208333333333333;"/></g><!--link OPENED_FORM_DATA_MANAGEMENT to SAVE_FORM_DATA--><g id="link_OPENED_FORM_DATA_MANAGEMENT_SAVE_FORM_DATA"><path d="M1775.0521,710.4167 C1742.9167,787.3438 1710.0732,866.0114 1657.6253,991.4802 " fill="none" id="OPENED_FORM_DATA_MANAGEMENT-to-SAVE_FORM_DATA" style="stroke:#181818;stroke-width:5.208333333333333;"/><polygon fill="#181818" points="1645.5729,1020.3125,1682.873,985.0989,1655.6166,996.2856,1644.4299,969.0291,1645.5729,1020.3125" style="stroke:#181818;stroke-width:5.208333333333333;"/></g><!--link DELETE_FORM_DATA to *end*--><g id="link_DELETE_FORM_DATA_*end*"><path d="M2110.7292,4085.5729 C1992.5,4357.0833 1904.3979,4559.5233 1862.0542,4656.8149 " fill="none" id="DELETE_FORM_DATA-to-*end*" style="stroke:#181818;stroke-width:5.208333333333333;"/><polygon fill="#181818" points="1849.5833,4685.4688,1887.3921,4650.8019,1859.9757,4661.5906,1849.1871,4634.1741,1849.5833,4685.4688" style="stroke:#181818;stroke-width:5.208333333333333;"/></g><!--link SAVE_FORM_DATA to *end*--><g id="link_SAVE_FORM_DATA_*end*"><path d="M1670.7813,4371.0938 C1732.0833,4512.7604 1768.2539,4596.4297 1794.4518,4656.8984 " fill="none" id="SAVE_FORM_DATA-to-*end*" style="stroke:#181818;stroke-width:5.208333333333333;"/><polygon fill="#181818" points="1806.875,4685.5729,1807.3566,4634.279,1796.5224,4661.6775,1769.1239,4650.8432,1806.875,4685.5729" style="stroke:#181818;stroke-width:5.208333333333333;"/></g><!--SRC=[fPHDJy9048Rl_HKZtao0K6w6D6cwnOk00VH222dj01kskxMxrH3ZVtVxASK2HfiUEkzqzvsPVRABkoMqsnPCdjonIrR3oNIq8lRSNetiiVtWZjpntBYXt6T9WD3fTFCtKPJ9haIbAD_AJfI4p91xoYClza9WbACwH0YHO8SqCAJo5CBCVd6_7U330FtaAMVO0qz22rerqMmI-qsYquF1mDy9wgDbrJFcSIPBBOgcjMikfFQvO1QnMSJzBEP2RoLusja-4z9diBPc1wam18ynyIv1YVj1TsrLFzp1p7l3e_0v2dHDcO0yo7Oj_Vk5dsEMYgwxlRZTneXycQTwlwb5xdGfzJhIAWAGYU-Zb9k4iKDZ2RbXZC7oQ19Nt69yJMYCyhJnQQu7i15n2Bfhhzco6ZlK5Nr2ngTHS4FSHtT-ZXpIH0vf8eUSXOHSWeIKa9024lA_qJY2RsWSUehgjM830J9Clni6H0eCIOK5ESM2_1qBaXfV1uFKmJWQXzEh1bGJYiExSANawqwEzUg2-lrX_C2Yz3wvPqhv2m00]--></g></svg>