<?xml version="1.0" encoding="us-ascii" standalone="no"?><svg xmlns="http://www.w3.org/2000/svg" xmlns:xlink="http://www.w3.org/1999/xlink" contentStyleType="text/css" height="5473.9583px" preserveAspectRatio="none" style="width:5260px;height:5473px;background:#FFFFFF;" version="1.1" viewBox="0 0 5260 5473" width="5260.4167px" zoomAndPan="magnify"><defs/><g><ellipse cx="2781.25" cy="83.3333" fill="#222222" rx="52.0833" ry="52.0833" style="stroke:#222222;stroke-width:5.208333333333333;"/><g id="OPENED_FORM_STRUCTURE_MANAGEMENT"><rect fill="#F1F1F1" height="260.4167" rx="52.0833" ry="52.0833" style="stroke:#181818;stroke-width:2.6041666666666665;" width="1630.2083" x="1966.1458" y="447.9167"/><line style="stroke:#181818;stroke-width:2.6041666666666665;" x1="1966.1458" x2="3596.3542" y1="599.3121" y2="599.3121"/><text fill="#000000" font-family="sans-serif" font-size="72.9167" lengthAdjust="spacing" textLength="1526.0417" x="2018.2292" y="551.9059">OPENED_FORM_STRUCTURE_MANAGEMENT</text></g><path d="M88.5417,1020.8333 L2796.875,1020.8333 A52.0833,52.0833 0 0 1 2848.9583,1072.9167 L2848.9583,1172.2287 L36.4583,1172.2287 L36.4583,1072.9167 A52.0833,52.0833 0 0 1 88.5417,1020.8333 " fill="#F1F1F1" style="stroke:#F1F1F1;stroke-width:5.208333333333333;"/><rect fill="none" height="3995.1454" rx="52.0833" ry="52.0833" style="stroke:#181818;stroke-width:2.6041666666666665;" width="2812.5" x="36.4583" y="1020.8333"/><line style="stroke:#181818;stroke-width:2.6041666666666665;" x1="36.4583" x2="2848.9583" y1="1172.2287" y2="1172.2287"/><text fill="#000000" font-family="sans-serif" font-size="72.9167" lengthAdjust="spacing" textLength="854.1667" x="1015.625" y="1124.8226">SAVE_FORM_STRUCTURE</text><g id="SAVE_FORM_STRUCTURE.CFS1"><rect fill="#F1F1F1" height="260.4167" rx="52.0833" ry="52.0833" style="stroke:#181818;stroke-width:2.6041666666666665;" width="260.4167" x="963.5417" y="1526.3954"/><line style="stroke:#181818;stroke-width:2.6041666666666665;" x1="963.5417" x2="1223.9583" y1="1677.7908" y2="1677.7908"/><text fill="#000000" font-family="sans-serif" font-size="72.9167" lengthAdjust="spacing" textLength="20.8333" x="1083.3333" y="1630.3846">&#160;</text></g><g id="SAVE_FORM_STRUCTURE.CFS2"><rect fill="#F1F1F1" height="260.4167" rx="52.0833" ry="52.0833" style="stroke:#181818;stroke-width:2.6041666666666665;" width="260.4167" x="963.5417" y="2443.0621"/><line style="stroke:#181818;stroke-width:2.6041666666666665;" x1="963.5417" x2="1223.9583" y1="2594.4575" y2="2594.4575"/><text fill="#000000" font-family="sans-serif" font-size="72.9167" lengthAdjust="spacing" textLength="20.8333" x="1083.3333" y="2547.0513">&#160;</text></g><g id="SAVE_FORM_STRUCTURE.CFS3"><rect fill="#F1F1F1" height="260.4167" rx="52.0833" ry="52.0833" style="stroke:#181818;stroke-width:2.6041666666666665;" width="260.4167" x="302.0833" y="3375.3537"/><line style="stroke:#181818;stroke-width:2.6041666666666665;" x1="302.0833" x2="562.5" y1="3526.7491" y2="3526.7491"/><text fill="#000000" font-family="sans-serif" font-size="72.9167" lengthAdjust="spacing" textLength="20.8333" x="421.875" y="3479.343">&#160;</text></g><g id="elem_CFC1"><polygon fill="#F1F1F1" points="2010.4167,4531.6037,2072.9167,4594.1037,2010.4167,4656.6037,1947.9167,4594.1037,2010.4167,4531.6037" style="stroke:#181818;stroke-width:2.6041666666666665;"/></g><g id="elem_CFC2"><polygon fill="#F1F1F1" points="1093.75,3932.6454,1156.25,3995.1454,1093.75,4057.6454,1031.25,3995.1454,1093.75,3932.6454" style="stroke:#181818;stroke-width:2.6041666666666665;"/></g><ellipse cx="1093.75" cy="1281.6037" fill="#222222" rx="52.0833" ry="52.0833" style="stroke:#222222;stroke-width:5.208333333333333;"/><ellipse cx="2010.4167" cy="4906.6037" fill="none" rx="57.2917" ry="57.2917" style="stroke:#222222;stroke-width:5.208333333333333;"/><ellipse cx="2010.4167" cy="4906.6037" fill="#222222" rx="31.25" ry="31.25" style="stroke:#222222;stroke-width:5.208333333333333;"/><!--link *start*SAVE_FORM_STRUCTURE to CFS1--><g id="link_*start*SAVE_FORM_STRUCTURE_CFS1"><path d="M1093.75,1335.9787 C1093.75,1384.2079 1093.75,1428.4267 1093.75,1493.4787 " fill="none" id="*start*SAVE_FORM_STRUCTURE-to-CFS1" style="stroke:#181818;stroke-width:5.208333333333333;"/><polygon fill="#181818" points="1093.75,1524.7287,1114.5833,1477.8537,1093.75,1498.6871,1072.9167,1477.8537,1093.75,1524.7287" style="stroke:#181818;stroke-width:5.208333333333333;"/></g><!--link CFS1 to CFS2--><g id="link_CFS1_CFS2"><path d="M1093.75,1787.8017 C1093.75,1960.4579 1093.75,2237.5412 1093.75,2410.4058 " fill="none" id="CFS1-to-CFS2" style="stroke:#181818;stroke-width:5.208333333333333;"/><polygon fill="#181818" points="1093.75,2441.6558,1114.5833,2394.7808,1093.75,2415.6142,1072.9167,2394.7808,1093.75,2441.6558" style="stroke:#181818;stroke-width:5.208333333333333;"/><path d="M1119.7917,1958.6871 L1119.7917,2271.1871 A52.0833,52.0833 0 0 0 1171.875,2323.2704 L1744.7917,2323.2704 A52.0833,52.0833 0 0 0 1796.875,2271.1871 L1796.875,1958.6871 L1744.7917,1906.6037 L1171.875,1906.6037 A52.0833,52.0833 0 0 0 1119.7917,1958.6871 " fill="#FEFFDD" style="stroke:#181818;stroke-width:2.6041666666666665;"/><path d="M1744.7917,1906.6037 L1744.7917,1932.6454 A26.0417,26.0417 0 0 0 1770.8333,1958.6871 L1796.875,1958.6871 L1744.7917,1906.6037 " fill="#FEFFDD" style="stroke:#181818;stroke-width:2.6041666666666665;"/><text fill="#000000" font-family="sans-serif" font-size="67.7083" font-weight="bold" lengthAdjust="spacing" textLength="567.7083" x="1151.0417" y="2005.0257">System requires:</text><ellipse cx="1179.6875" cy="2078.0206" fill="#000000" rx="13.0208" ry="13.0208" style="stroke:#000000;stroke-width:0.0;"/><text fill="#000000" font-family="sans-serif" font-size="67.7083" lengthAdjust="spacing" textLength="187.5" x="1213.5417" y="2097.2445">Name</text><ellipse cx="1179.6875" cy="2170.2394" fill="#000000" rx="13.0208" ry="13.0208" style="stroke:#000000;stroke-width:0.0;"/><text fill="#000000" font-family="sans-serif" font-size="67.7083" lengthAdjust="spacing" textLength="354.1667" x="1213.5417" y="2189.4633">Description</text><ellipse cx="1179.6875" cy="2262.4582" fill="#000000" rx="13.0208" ry="13.0208" style="stroke:#000000;stroke-width:0.0;"/><text fill="#000000" font-family="sans-serif" font-size="67.7083" lengthAdjust="spacing" textLength="203.125" x="1213.5417" y="2281.6822">Inputs</text></g><!--link CFS2 to CFS3--><g id="link_CFS2_CFS3"><path d="M960.9375,2607.5412 C688.9583,2667.0204 93.75,2797.2287 93.75,2797.2287 C93.75,2797.2287 93.75,3177.4371 93.75,3177.4371 C93.75,3177.4371 182.7533,3262.3248 277.8053,3353.0019 " fill="none" id="CFS2-to-CFS3" style="stroke:#181818;stroke-width:5.208333333333333;"/><polygon fill="#181818" points="300.4167,3374.5725,280.8801,3327.1424,281.5739,3356.597,252.1193,3357.2908,300.4167,3374.5725" style="stroke:#181818;stroke-width:5.208333333333333;"/><path d="M119.7917,2875.3537 L119.7917,3099.3121 A52.0833,52.0833 0 0 0 171.875,3151.3954 L942.7083,3151.3954 A52.0833,52.0833 0 0 0 994.7917,3099.3121 L994.7917,2875.3537 L942.7083,2823.2704 L171.875,2823.2704 A52.0833,52.0833 0 0 0 119.7917,2875.3537 " fill="#FEFFDD" style="stroke:#181818;stroke-width:2.6041666666666665;"/><path d="M942.7083,2823.2704 L942.7083,2849.3121 A26.0417,26.0417 0 0 0 968.75,2875.3537 L994.7917,2875.3537 L942.7083,2823.2704 " fill="#FEFFDD" style="stroke:#181818;stroke-width:2.6041666666666665;"/><text fill="#000000" font-family="sans-serif" font-size="67.7083" font-weight="bold" lengthAdjust="spacing" textLength="583.3333" x="151.0417" y="2921.6923">System allows to:</text><ellipse cx="179.6875" cy="2994.6872" fill="#000000" rx="13.0208" ry="13.0208" style="stroke:#000000;stroke-width:0.0;"/><text fill="#000000" font-family="sans-serif" font-size="67.7083" lengthAdjust="spacing" textLength="614.5833" x="213.5417" y="3013.9112">Save form structure</text><ellipse cx="179.6875" cy="3086.9061" fill="#000000" rx="13.0208" ry="13.0208" style="stroke:#000000;stroke-width:0.0;"/><text fill="#000000" font-family="sans-serif" font-size="67.7083" lengthAdjust="spacing" textLength="703.125" x="213.5417" y="3106.13">Update form structure</text></g><!--link CFS3 to CFC2--><g id="link_CFS3_CFC2"><path d="M564.5833,3606.6037 C719.8958,3719.1037 942.6105,3880.4566 1033.548,3946.342 " fill="none" id="CFS3-to-CFC2" style="stroke:#181818;stroke-width:5.208333333333333;"/><polygon fill="#181818" points="1058.8542,3964.6767,1033.118,3920.3039,1037.7657,3949.3978,1008.6718,3954.0454,1058.8542,3964.6767" style="stroke:#181818;stroke-width:5.208333333333333;"/></g><!--link CFC2 to CFC1--><g id="link_CFC2_CFC1"><path d="M1130.8333,4024.1558 C1278.8542,4119.2079 1800.5258,4454.1481 1947.6091,4548.5752 " fill="none" id="CFC2-to-CFC1" style="stroke:#008000;stroke-width:5.208333333333333;"/><polygon fill="#008000" points="1973.9063,4565.4579,1945.7157,4522.6025,1951.992,4551.389,1923.2055,4557.6653,1973.9063,4565.4579" style="stroke:#008000;stroke-width:5.208333333333333;"/><path d="M1790.625,4229.5204 L1790.625,4359.7287 A52.0833,52.0833 0 0 0 1842.7083,4411.8121 L2644.7917,4411.8121 A52.0833,52.0833 0 0 0 2696.875,4359.7287 L2696.875,4229.5204 L2644.7917,4177.4371 L1842.7083,4177.4371 A52.0833,52.0833 0 0 0 1790.625,4229.5204 " fill="#FEFFDD" style="stroke:#181818;stroke-width:2.6041666666666665;"/><path d="M2644.7917,4177.4371 L2644.7917,4203.4787 A26.0417,26.0417 0 0 0 2670.8333,4229.5204 L2696.875,4229.5204 L2644.7917,4177.4371 " fill="#FEFFDD" style="stroke:#181818;stroke-width:2.6041666666666665;"/><text fill="#000000" font-family="sans-serif" font-size="67.7083" font-weight="bold" lengthAdjust="spacing" textLength="489.5833" x="1821.875" y="4275.859">System shows:</text><text fill="#000000" font-family="sans-serif" font-size="67.7083" lengthAdjust="spacing" textLength="796.875" x="1821.875" y="4368.0778">Form created successfully</text></g><!--link CFC2 to CFS2--><g id="link_CFC2_CFS2"><path d="M1093.75,3929.885 C1093.75,3717.1246 1093.75,3027.8017 1093.75,2734.9892 " fill="none" id="CFC2-to-CFS2" style="stroke:#FF0000;stroke-width:5.208333333333333;"/><polygon fill="#FF0000" points="1093.75,2703.7392,1072.9167,2750.6142,1093.75,2729.7808,1114.5833,2750.6142,1093.75,2703.7392" style="stroke:#FF0000;stroke-width:5.208333333333333;"/><path d="M1119.7917,3349.3121 L1119.7917,3661.8121 A52.0833,52.0833 0 0 0 1171.875,3713.8954 L2703.125,3713.8954 A52.0833,52.0833 0 0 0 2755.2083,3661.8121 L2755.2083,3349.3121 L2703.125,3297.2287 L1171.875,3297.2287 A52.0833,52.0833 0 0 0 1119.7917,3349.3121 " fill="#FEFFDD" style="stroke:#181818;stroke-width:2.6041666666666665;"/><path d="M2703.125,3297.2287 L2703.125,3323.2704 A26.0417,26.0417 0 0 0 2729.1667,3349.3121 L2755.2083,3349.3121 L2703.125,3297.2287 " fill="#FEFFDD" style="stroke:#181818;stroke-width:2.6041666666666665;"/><text fill="#000000" font-family="sans-serif" font-size="67.7083" font-weight="bold" lengthAdjust="spacing" textLength="567.7083" x="1151.0417" y="3395.6507">System requires:</text><ellipse cx="1179.6875" cy="3468.6456" fill="#000000" rx="13.0208" ry="13.0208" style="stroke:#000000;stroke-width:0.0;"/><text fill="#000000" font-family="sans-serif" font-size="67.7083" lengthAdjust="spacing" textLength="895.8333" x="1213.5417" y="3487.8695">Required one or more inputs</text><ellipse cx="1179.6875" cy="3560.8644" fill="#000000" rx="13.0208" ry="13.0208" style="stroke:#000000;stroke-width:0.0;"/><text fill="#000000" font-family="sans-serif" font-size="67.7083" lengthAdjust="spacing" textLength="1255.2083" x="1213.5417" y="3580.0883">Required name with at least 3 characters</text><ellipse cx="1179.6875" cy="3653.0832" fill="#000000" rx="13.0208" ry="13.0208" style="stroke:#000000;stroke-width:0.0;"/><text fill="#000000" font-family="sans-serif" font-size="67.7083" lengthAdjust="spacing" textLength="1463.5417" x="1213.5417" y="3672.3072">Required description with at least 10 characters</text></g><!--link CFC1 to CFS2--><g id="link_CFC1_CFS2"><path d="M2060.8854,4578.5308 C2226.8229,4544.3642 2744.7917,4437.8537 2744.7917,4437.8537 C2744.7917,4437.8537 2802.0833,3739.9371 2802.0833,3739.9371 C2802.0833,3739.9371 2802.0833,3271.1871 2802.0833,3271.1871 C2802.0833,3271.1871 1656.7216,2806.7285 1255.3154,2644.0201 " fill="none" id="CFC1-to-CFS2" style="stroke:#181818;stroke-width:5.208333333333333;"/><polygon fill="#181818" points="1226.3542,2632.2808,1261.9698,2669.1972,1250.4885,2642.0636,1277.6222,2630.5823,1226.3542,2632.2808" style="stroke:#181818;stroke-width:5.208333333333333;"/></g><!--link CFC1 to *end*SAVE_FORM_STRUCTURE--><g id="link_CFC1_*end*SAVE_FORM_STRUCTURE"><path d="M2010.4167,4658.9996 C2010.4167,4713.9996 2010.4167,4763.6871 2010.4167,4816.6558 " fill="none" id="CFC1-to-*end*SAVE_FORM_STRUCTURE" style="stroke:#181818;stroke-width:5.208333333333333;"/><polygon fill="#181818" points="2010.4167,4847.9058,2031.25,4801.0308,2010.4167,4821.8642,1989.5833,4801.0308,2010.4167,4847.9058" style="stroke:#181818;stroke-width:5.208333333333333;"/></g><path d="M3084.6875,1630.2083 L5154.8475,1630.2083 A52.0833,52.0833 0 0 1 5206.9308,1682.2917 L5206.9308,1781.6037 L3032.6042,1781.6037 L3032.6042,1682.2917 A52.0833,52.0833 0 0 1 3084.6875,1630.2083 " fill="#F1F1F1" style="stroke:#F1F1F1;stroke-width:5.208333333333333;"/><rect fill="none" height="2776.3954" rx="52.0833" ry="52.0833" style="stroke:#181818;stroke-width:2.6041666666666665;" width="2174.3266" x="3032.6042" y="1630.2083"/><line style="stroke:#181818;stroke-width:2.6041666666666665;" x1="3032.6042" x2="5206.9308" y1="1781.6037" y2="1781.6037"/><text fill="#000000" font-family="sans-serif" font-size="72.9167" lengthAdjust="spacing" textLength="937.5" x="3651.0175" y="1734.1976">DELETE_FORM_STRUCTURE</text><g id="DELETE_FORM_STRUCTURE.DFS1"><rect fill="#F1F1F1" height="260.4167" rx="52.0833" ry="52.0833" style="stroke:#181818;stroke-width:2.6041666666666665;" width="260.4167" x="4899.6391" y="2135.7704"/><line style="stroke:#181818;stroke-width:2.6041666666666665;" x1="4899.6391" x2="5160.0558" y1="2287.1658" y2="2287.1658"/><text fill="#000000" font-family="sans-serif" font-size="72.9167" lengthAdjust="spacing" textLength="20.8333" x="5019.4308" y="2239.7596">&#160;</text></g><g id="DELETE_FORM_STRUCTURE.DFS2"><rect fill="#F1F1F1" height="260.4167" rx="52.0833" ry="52.0833" style="stroke:#181818;stroke-width:2.6041666666666665;" width="260.4167" x="3170.4725" y="2870.1454"/><line style="stroke:#181818;stroke-width:2.6041666666666665;" x1="3170.4725" x2="3430.8891" y1="3021.5408" y2="3021.5408"/><text fill="#000000" font-family="sans-serif" font-size="72.9167" lengthAdjust="spacing" textLength="20.8333" x="3290.2641" y="2974.1346">&#160;</text></g><g id="elem_DFC1"><polygon fill="#F1F1F1" points="4555.8891,3922.2287,4618.3891,3984.7287,4555.8891,4047.2287,4493.3891,3984.7287,4555.8891,3922.2287" style="stroke:#181818;stroke-width:2.6041666666666665;"/></g><g id="elem_DFC2"><polygon fill="#F1F1F1" points="3889.2225,3323.2704,3951.7225,3385.7704,3889.2225,3448.2704,3826.7225,3385.7704,3889.2225,3323.2704" style="stroke:#181818;stroke-width:2.6041666666666665;"/></g><ellipse cx="5029.8475" cy="1890.9787" fill="#222222" rx="52.0833" ry="52.0833" style="stroke:#222222;stroke-width:5.208333333333333;"/><ellipse cx="4555.8891" cy="4297.2287" fill="none" rx="57.2917" ry="57.2917" style="stroke:#222222;stroke-width:5.208333333333333;"/><ellipse cx="4555.8891" cy="4297.2287" fill="#222222" rx="31.25" ry="31.25" style="stroke:#222222;stroke-width:5.208333333333333;"/><!--link *start*DELETE_FORM_STRUCTURE to DFS1--><g id="link_*start*DELETE_FORM_STRUCTURE_DFS1"><path d="M5029.8475,1945.3537 C5029.8475,1993.5829 5029.8475,2037.8017 5029.8475,2102.8537 " fill="none" id="*start*DELETE_FORM_STRUCTURE-to-DFS1" style="stroke:#181818;stroke-width:5.208333333333333;"/><polygon fill="#181818" points="5029.8475,2134.1037,5050.6808,2087.2287,5029.8475,2108.0621,5009.0141,2087.2287,5029.8475,2134.1037" style="stroke:#181818;stroke-width:5.208333333333333;"/></g><!--link DFS1 to DFS2--><g id="link_DFS1_DFS2"><path d="M4897.7641,2286.2392 C4463.5454,2335.6662 3107.9725,2489.9371 3107.9725,2489.9371 C3107.9725,2489.9371 3107.9725,2776.3954 3107.9725,2776.3954 C3107.9725,2776.3954 3125.5444,2796.3321 3167.9402,2844.4571 " fill="none" id="DFS1-to-DFS2" style="stroke:#181818;stroke-width:5.208333333333333;"/><polygon fill="#181818" points="3188.5975,2867.9058,3173.2441,2818.9613,3171.3831,2848.3652,3141.9792,2846.5042,3188.5975,2867.9058" style="stroke:#181818;stroke-width:5.208333333333333;"/><path d="M3134.0141,2568.0621 L3134.0141,2698.2704 A52.0833,52.0833 0 0 0 3186.0975,2750.3537 L4878.8058,2750.3537 A52.0833,52.0833 0 0 0 4930.8891,2698.2704 L4930.8891,2568.0621 L4878.8058,2515.9787 L3186.0975,2515.9787 A52.0833,52.0833 0 0 0 3134.0141,2568.0621 " fill="#FEFFDD" style="stroke:#181818;stroke-width:2.6041666666666665;"/><path d="M4878.8058,2515.9787 L4878.8058,2542.0204 A26.0417,26.0417 0 0 0 4904.8475,2568.0621 L4930.8891,2568.0621 L4878.8058,2515.9787 " fill="#FEFFDD" style="stroke:#181818;stroke-width:2.6041666666666665;"/><text fill="#000000" font-family="sans-serif" font-size="67.7083" font-weight="bold" lengthAdjust="spacing" textLength="567.7083" x="3165.2641" y="2614.4007">System requires:</text><ellipse cx="3193.91" cy="2687.3956" fill="#000000" rx="13.0208" ry="13.0208" style="stroke:#000000;stroke-width:0.0;"/><text fill="#000000" font-family="sans-serif" font-size="67.7083" lengthAdjust="spacing" textLength="1625" x="3227.7641" y="2706.6195">Confirmation of deletion all forms with this structure</text></g><!--link DFS2 to DFC2--><g id="link_DFS2_DFC2"><path d="M3432.7641,3089.7287 C3568.337,3176.0829 3744.3219,3288.2552 3826.3531,3340.4948 " fill="none" id="DFS2-to-DFC2" style="stroke:#181818;stroke-width:5.208333333333333;"/><polygon fill="#181818" points="3852.712,3357.2808,3824.3644,3314.5292,3830.7463,3343.2925,3801.983,3349.6744,3852.712,3357.2808" style="stroke:#181818;stroke-width:5.208333333333333;"/></g><!--link DFC2 to DFC1--><g id="link_DFC2_DFC1"><path d="M3889.8995,3449.9892 C3891.3579,3569.4162 3894.4308,3828.4787 3894.4308,3828.4787 C3894.4308,3828.4787 4326.2047,3927.0423 4477.8713,3961.6777 " fill="none" id="DFC2-to-DFC1" style="stroke:#008000;stroke-width:5.208333333333333;"/><polygon fill="#008000" points="4508.337,3968.635,4467.2767,3937.8886,4482.949,3962.8372,4458.0003,3978.5095,4508.337,3968.635" style="stroke:#008000;stroke-width:5.208333333333333;"/><path d="M3920.4725,3620.1454 L3920.4725,3750.3537 A52.0833,52.0833 0 0 0 3972.5558,3802.4371 L5076.7225,3802.4371 A52.0833,52.0833 0 0 0 5128.8058,3750.3537 L5128.8058,3620.1454 L5076.7225,3568.0621 L3972.5558,3568.0621 A52.0833,52.0833 0 0 0 3920.4725,3620.1454 " fill="#FEFFDD" style="stroke:#181818;stroke-width:2.6041666666666665;"/><path d="M5076.7225,3568.0621 L5076.7225,3594.1037 A26.0417,26.0417 0 0 0 5102.7641,3620.1454 L5128.8058,3620.1454 L5076.7225,3568.0621 " fill="#FEFFDD" style="stroke:#181818;stroke-width:2.6041666666666665;"/><text fill="#000000" font-family="sans-serif" font-size="67.7083" font-weight="bold" lengthAdjust="spacing" textLength="489.5833" x="3951.7225" y="3666.484">System shows:</text><text fill="#000000" font-family="sans-serif" font-size="67.7083" lengthAdjust="spacing" textLength="1098.9583" x="3951.7225" y="3758.7028">Form structure deleted successfully</text></g><!--link DFC2 to DFS1--><g id="link_DFC2_DFS1"><path d="M3927.2433,3359.0517 C4117.3995,3251.4475 4956.9308,2776.3954 4956.9308,2776.3954 C4956.9308,2776.3954 4985.3798,2579.2515 5006.9944,2429.6161 " fill="none" id="DFC2-to-DFS1" style="stroke:#FF0000;stroke-width:5.208333333333333;"/><polygon fill="#FF0000" points="5011.462,2398.6871,4984.1412,2442.1021,5007.739,2424.4612,5025.3799,2448.059,5011.462,2398.6871" style="stroke:#FF0000;stroke-width:5.208333333333333;"/></g><!--link DFC1 to DFS1--><g id="link_DFC1_DFS1"><path d="M4602.8683,3967.6454 C4744.0662,3932.0725 5154.8475,3828.4787 5154.8475,3828.4787 C5154.8475,3828.4787 5154.8475,3542.0204 5154.8475,3542.0204 C5154.8475,3542.0204 5076.969,2750.2036 5045.3545,2428.7974 " fill="none" id="DFC1-to-DFS1" style="stroke:#181818;stroke-width:5.208333333333333;"/><polygon fill="#181818" points="5042.2954,2397.6975,5026.1507,2446.3867,5044.8446,2423.6141,5067.6173,2442.308,5042.2954,2397.6975" style="stroke:#181818;stroke-width:5.208333333333333;"/></g><!--link DFC1 to *end*DELETE_FORM_STRUCTURE--><g id="link_DFC1_*end*DELETE_FORM_STRUCTURE"><path d="M4555.8891,4049.6246 C4555.8891,4104.6246 4555.8891,4154.3121 4555.8891,4207.2808 " fill="none" id="DFC1-to-*end*DELETE_FORM_STRUCTURE" style="stroke:#181818;stroke-width:5.208333333333333;"/><polygon fill="#181818" points="4555.8891,4238.5308,4576.7225,4191.6558,4555.8891,4212.4892,4535.0558,4191.6558,4555.8891,4238.5308" style="stroke:#181818;stroke-width:5.208333333333333;"/></g><ellipse cx="2781.25" cy="5385.7812" fill="none" rx="57.2917" ry="57.2917" style="stroke:#222222;stroke-width:5.208333333333333;"/><ellipse cx="2781.25" cy="5385.7812" fill="#222222" rx="31.25" ry="31.25" style="stroke:#222222;stroke-width:5.208333333333333;"/><!--link *start* to OPENED_FORM_STRUCTURE_MANAGEMENT--><g id="link_*start*_OPENED_FORM_STRUCTURE_MANAGEMENT"><path d="M2781.25,136.7708 C2781.25,208.0729 2781.25,312.8646 2781.25,414.1667 " fill="none" id="*start*-to-OPENED_FORM_STRUCTURE_MANAGEMENT" style="stroke:#181818;stroke-width:5.208333333333333;"/><polygon fill="#181818" points="2781.25,445.4167,2802.0833,398.5417,2781.25,419.375,2760.4167,398.5417,2781.25,445.4167" style="stroke:#181818;stroke-width:5.208333333333333;"/></g><!--link OPENED_FORM_STRUCTURE_MANAGEMENT to DELETE_FORM_STRUCTURE--><g id="link_OPENED_FORM_STRUCTURE_MANAGEMENT_DELETE_FORM_STRUCTURE"><path d="M2851.3542,710.5729 C2951.9271,893.1771 3133.151,1222.1595 3341.8489,1601.0137 " fill="none" id="OPENED_FORM_STRUCTURE_MANAGEMENT-to-DELETE_FORM_STRUCTURE" style="stroke:#181818;stroke-width:5.208333333333333;"/><polygon fill="#181818" points="3356.9271,1628.3854,3352.5577,1577.2757,3344.362,1605.5756,3316.062,1597.3799,3356.9271,1628.3854" style="stroke:#181818;stroke-width:5.208333333333333;"/></g><!--link OPENED_FORM_STRUCTURE_MANAGEMENT to SAVE_FORM_STRUCTURE--><g id="link_OPENED_FORM_STRUCTURE_MANAGEMENT_SAVE_FORM_STRUCTURE"><path d="M2711.1458,710.5729 C2669.2188,786.7187 2625.649,865.7521 2556.4302,991.4292 " fill="none" id="OPENED_FORM_STRUCTURE_MANAGEMENT-to-SAVE_FORM_STRUCTURE" style="stroke:#181818;stroke-width:5.208333333333333;"/><polygon fill="#181818" points="2541.3542,1018.8021,2582.2169,987.7935,2553.9176,995.9913,2545.7197,967.692,2541.3542,1018.8021" style="stroke:#181818;stroke-width:5.208333333333333;"/></g><!--link DELETE_FORM_STRUCTURE to *end*--><g id="link_DELETE_FORM_STRUCTURE_*end*"><path d="M3333.4375,4408.2812 C3097.8125,4823.125 2897.6227,5175.6405 2823.7164,5305.7447 " fill="none" id="DELETE_FORM_STRUCTURE-to-*end*" style="stroke:#181818;stroke-width:5.208333333333333;"/><polygon fill="#181818" points="2808.2813,5332.9167,2849.5487,5302.4488,2821.1439,5310.2733,2813.3193,5281.8685,2808.2813,5332.9167" style="stroke:#181818;stroke-width:5.208333333333333;"/></g><!--link SAVE_FORM_STRUCTURE to *end*--><g id="link_SAVE_FORM_STRUCTURE_*end*"><path d="M2575.0521,5017.4479 C2657.2917,5162.2917 2705.8331,5247.7134 2739.479,5307.0364 " fill="none" id="SAVE_FORM_STRUCTURE-to-*end*" style="stroke:#181818;stroke-width:5.208333333333333;"/><polygon fill="#181818" points="2754.8958,5334.2187,2749.8921,5283.1672,2742.0484,5311.5668,2713.6489,5303.7231,2754.8958,5334.2187" style="stroke:#181818;stroke-width:5.208333333333333;"/></g><!--SRC=[hPHDQzj048Rl-XNJz1Qm7SctOWH6AvT2xHH_z6ACKQHnj6Irg-wk6apfV-_goxRKJM98X0xIEnhcqSmxkxtTmM3Wm_sFS16I_Un-ET-lrijDiDuim_rykfX-3UVXOkryeZncHO8m78xgkz2KgP52hIb_LCEyo9YZdYZF8nbbm2X7VSmHSi6EvOkZTAGHLjEVOQyC_770N7KycArSY1JSm4rNzQpgsAO6BamcSIfeZBxVZNYNaIgqRJfG5gwL2g6Hl4hXmcGBNlxKKoMKr-J1NnsLnWma_YgeHFLbCdhmJ_5RM4GPNhmILB6akQQ2NwZVU5veLGd8awfKI-6r5EDhA2B6nBC2BVeOg-Wtma78pBH15h4kv2NL9a_AtbZY9voMPzpm15uhcNuEjfyV9IBVrI7t6bIL6j8kvgoi7qiqB0ce8evHgKF1sD6AKjULcEm-O4pBMazCgacNa0c9GCzZwNt5pLJXcUeK8WqC8wLX375gN1zhbDQKv3pvNgPxrq_zxrVFNeIkP9ph_7MQlIBXzt3zwcOHwsOHwsQH5tU8lBP3vBH3fDqXyixX188VgCoYgdVYO5h9i7esTgzCg-gEwfIg5_tR8daDKcjWqZSmUQU1Jm0rvzjM9bqhrmri8-wvgHsb6VnRPtQTRVF5TQcMezgnswo5iXtkRUmV]--></g></svg>