<?xml version="1.0" encoding="us-ascii" standalone="no"?><svg xmlns="http://www.w3.org/2000/svg" xmlns:xlink="http://www.w3.org/1999/xlink" contentStyleType="text/css" height="5750px" preserveAspectRatio="none" style="width:3614px;height:5750px;background:#FFFFFF;" version="1.1" viewBox="0 0 3614 5750" width="3614.5833px" zoomAndPan="magnify"><defs/><g><ellipse cx="1950.5208" cy="83.3333" fill="#222222" rx="52.0833" ry="52.0833" style="stroke:#222222;stroke-width:5.208333333333333;"/><g id="OPENED_FORM_STRUCTURE_MANAGEMENT"><rect fill="#F1F1F1" height="260.4167" rx="52.0833" ry="52.0833" style="stroke:#181818;stroke-width:2.6041666666666665;" width="1630.2083" x="1135.4167" y="447.9167"/><line style="stroke:#181818;stroke-width:2.6041666666666665;" x1="1135.4167" x2="2765.625" y1="599.3121" y2="599.3121"/><text fill="#000000" font-family="sans-serif" font-size="72.9167" lengthAdjust="spacing" textLength="1526.0417" x="1187.5" y="551.9059">OPENED_FORM_STRUCTURE_MANAGEMENT</text></g><path d="M88.5417,1020.8333 L1958.3333,1020.8333 A52.0833,52.0833 0 0 1 2010.4167,1072.9167 L2010.4167,1172.2287 L36.4583,1172.2287 L36.4583,1072.9167 A52.0833,52.0833 0 0 1 88.5417,1020.8333 " fill="#F1F1F1" style="stroke:#F1F1F1;stroke-width:5.208333333333333;"/><rect fill="none" height="4271.1871" rx="52.0833" ry="52.0833" style="stroke:#181818;stroke-width:2.6041666666666665;" width="1973.9583" x="36.4583" y="1020.8333"/><line style="stroke:#181818;stroke-width:2.6041666666666665;" x1="36.4583" x2="2010.4167" y1="1172.2287" y2="1172.2287"/><text fill="#000000" font-family="sans-serif" font-size="72.9167" lengthAdjust="spacing" textLength="854.1667" x="596.3542" y="1124.8226">SAVE_FORM_STRUCTURE</text><g id="SAVE_FORM_STRUCTURE.CFS1"><rect fill="#F1F1F1" height="260.4167" rx="52.0833" ry="52.0833" style="stroke:#181818;stroke-width:2.6041666666666665;" width="260.4167" x="781.25" y="1526.3954"/><line style="stroke:#181818;stroke-width:2.6041666666666665;" x1="781.25" x2="1041.6667" y1="1677.7908" y2="1677.7908"/><text fill="#000000" font-family="sans-serif" font-size="72.9167" lengthAdjust="spacing" textLength="20.8333" x="901.0417" y="1630.3846">&#160;</text></g><g id="SAVE_FORM_STRUCTURE.CFS2"><rect fill="#F1F1F1" height="260.4167" rx="52.0833" ry="52.0833" style="stroke:#181818;stroke-width:2.6041666666666665;" width="260.4167" x="781.25" y="2443.0621"/><line style="stroke:#181818;stroke-width:2.6041666666666665;" x1="781.25" x2="1041.6667" y1="2594.4575" y2="2594.4575"/><text fill="#000000" font-family="sans-serif" font-size="72.9167" lengthAdjust="spacing" textLength="20.8333" x="901.0417" y="2547.0513">&#160;</text></g><g id="SAVE_FORM_STRUCTURE.CFS3"><rect fill="#F1F1F1" height="260.4167" rx="52.0833" ry="52.0833" style="stroke:#181818;stroke-width:2.6041666666666665;" width="260.4167" x="213.5417" y="3513.3746"/><line style="stroke:#181818;stroke-width:2.6041666666666665;" x1="213.5417" x2="473.9583" y1="3664.77" y2="3664.77"/><text fill="#000000" font-family="sans-serif" font-size="72.9167" lengthAdjust="spacing" textLength="20.8333" x="333.3333" y="3617.3638">&#160;</text></g><g id="elem_CFC1"><polygon fill="#F1F1F1" points="1473.9583,4807.6454,1536.4583,4870.1454,1473.9583,4932.6454,1411.4583,4870.1454,1473.9583,4807.6454" style="stroke:#181818;stroke-width:2.6041666666666665;"/></g><g id="elem_CFC2"><polygon fill="#F1F1F1" points="911.4583,4208.6871,973.9583,4271.1871,911.4583,4333.6871,848.9583,4271.1871,911.4583,4208.6871" style="stroke:#181818;stroke-width:2.6041666666666665;"/></g><ellipse cx="911.4583" cy="1281.6037" fill="#222222" rx="52.0833" ry="52.0833" style="stroke:#222222;stroke-width:5.208333333333333;"/><ellipse cx="1473.9583" cy="5182.6454" fill="none" rx="57.2917" ry="57.2917" style="stroke:#222222;stroke-width:5.208333333333333;"/><ellipse cx="1473.9583" cy="5182.6454" fill="#222222" rx="31.25" ry="31.25" style="stroke:#222222;stroke-width:5.208333333333333;"/><!--link *start*SAVE_FORM_STRUCTURE to CFS1--><g id="link_*start*SAVE_FORM_STRUCTURE_CFS1"><path d="M911.4583,1335.9787 C911.4583,1384.2079 911.4583,1428.4267 911.4583,1493.4787 " fill="none" id="*start*SAVE_FORM_STRUCTURE-to-CFS1" style="stroke:#181818;stroke-width:5.208333333333333;"/><polygon fill="#181818" points="911.4583,1524.7287,932.2917,1477.8537,911.4583,1498.6871,890.625,1477.8537,911.4583,1524.7287" style="stroke:#181818;stroke-width:5.208333333333333;"/></g><!--link CFS1 to CFS2--><g id="link_CFS1_CFS2"><path d="M911.4583,1787.8017 C911.4583,1960.4579 911.4583,2237.5412 911.4583,2410.4058 " fill="none" id="CFS1-to-CFS2" style="stroke:#181818;stroke-width:5.208333333333333;"/><polygon fill="#181818" points="911.4583,2441.6558,932.2917,2394.7808,911.4583,2415.6142,890.625,2394.7808,911.4583,2441.6558" style="stroke:#181818;stroke-width:5.208333333333333;"/><path d="M937.5,1958.6871 L937.5,2271.1871 A52.0833,52.0833 0 0 0 989.5833,2323.2704 L1562.5,2323.2704 A52.0833,52.0833 0 0 0 1614.5833,2271.1871 L1614.5833,1958.6871 L1562.5,1906.6037 L989.5833,1906.6037 A52.0833,52.0833 0 0 0 937.5,1958.6871 " fill="#FEFFDD" style="stroke:#181818;stroke-width:2.6041666666666665;"/><path d="M1562.5,1906.6037 L1562.5,1932.6454 A26.0417,26.0417 0 0 0 1588.5417,1958.6871 L1614.5833,1958.6871 L1562.5,1906.6037 " fill="#FEFFDD" style="stroke:#181818;stroke-width:2.6041666666666665;"/><text fill="#000000" font-family="sans-serif" font-size="67.7083" font-weight="bold" lengthAdjust="spacing" textLength="567.7083" x="968.75" y="2005.0257">System requires:</text><ellipse cx="997.3958" cy="2078.0206" fill="#000000" rx="13.0208" ry="13.0208" style="stroke:#000000;stroke-width:0.0;"/><text fill="#000000" font-family="sans-serif" font-size="67.7083" lengthAdjust="spacing" textLength="187.5" x="1031.25" y="2097.2445">Name</text><ellipse cx="997.3958" cy="2170.2394" fill="#000000" rx="13.0208" ry="13.0208" style="stroke:#000000;stroke-width:0.0;"/><text fill="#000000" font-family="sans-serif" font-size="67.7083" lengthAdjust="spacing" textLength="354.1667" x="1031.25" y="2189.4633">Description</text><ellipse cx="997.3958" cy="2262.4582" fill="#000000" rx="13.0208" ry="13.0208" style="stroke:#000000;stroke-width:0.0;"/><text fill="#000000" font-family="sans-serif" font-size="67.7083" lengthAdjust="spacing" textLength="203.125" x="1031.25" y="2281.6822">Inputs</text></g><!--link CFS2 to CFS3--><g id="link_CFS2_CFS3"><path d="M780.1042,2613.635 C548.9063,2675.4579 93.75,2797.2287 93.75,2797.2287 C93.75,2797.2287 93.75,3177.4371 93.75,3177.4371 C93.75,3177.4371 186.5119,3348.4544 260.5224,3484.9649 " fill="none" id="CFS2-to-CFS3" style="stroke:#181818;stroke-width:5.208333333333333;"/><polygon fill="#181818" points="275.4167,3512.4371,271.39,3461.2992,263.0047,3489.5436,234.7604,3481.1583,275.4167,3512.4371" style="stroke:#181818;stroke-width:5.208333333333333;"/><path d="M119.7917,2875.3537 L119.7917,3099.3121 A52.0833,52.0833 0 0 0 171.875,3151.3954 L760.4167,3151.3954 A52.0833,52.0833 0 0 0 812.5,3099.3121 L812.5,2875.3537 L760.4167,2823.2704 L171.875,2823.2704 A52.0833,52.0833 0 0 0 119.7917,2875.3537 " fill="#FEFFDD" style="stroke:#181818;stroke-width:2.6041666666666665;"/><path d="M760.4167,2823.2704 L760.4167,2849.3121 A26.0417,26.0417 0 0 0 786.4583,2875.3537 L812.5,2875.3537 L760.4167,2823.2704 " fill="#FEFFDD" style="stroke:#181818;stroke-width:2.6041666666666665;"/><text fill="#000000" font-family="sans-serif" font-size="67.7083" font-weight="bold" lengthAdjust="spacing" textLength="583.3333" x="151.0417" y="2921.6923">System allows to:</text><ellipse cx="179.6875" cy="2994.6872" fill="#000000" rx="13.0208" ry="13.0208" style="stroke:#000000;stroke-width:0.0;"/><text fill="#000000" font-family="sans-serif" font-size="67.7083" lengthAdjust="spacing" textLength="145.8333" x="213.5417" y="3013.9112">Save</text><ellipse cx="179.6875" cy="3086.9061" fill="#000000" rx="13.0208" ry="13.0208" style="stroke:#000000;stroke-width:0.0;"/><text fill="#000000" font-family="sans-serif" font-size="67.7083" lengthAdjust="spacing" textLength="234.375" x="213.5417" y="3106.13">Update</text></g><!--link CFS3 to CFC2--><g id="link_CFS3_CFC2"><path d="M460,3775.1975 C594.9479,3921.8642 787.4891,4131.2089 862.8537,4213.136 " fill="none" id="CFS3-to-CFC2" style="stroke:#181818;stroke-width:5.208333333333333;"/><polygon fill="#181818" points="884.0104,4236.135,867.608,4187.532,866.3798,4216.9691,836.9426,4215.741,884.0104,4236.135" style="stroke:#181818;stroke-width:5.208333333333333;"/></g><!--link CFC2 to CFC1--><g id="link_CFC2_CFC1"><path d="M936.8229,4310.7183 C1012.9167,4413.8433 1234.375,4713.8954 1234.375,4713.8954 C1234.375,4713.8954 1345.5503,4783.9385 1412.1649,4825.9698 " fill="none" id="CFC2-to-CFC1" style="stroke:#008000;stroke-width:5.208333333333333;"/><polygon fill="#008000" points="1438.5937,4842.6454,1410.0675,4800.0127,1416.5697,4828.7491,1387.8333,4835.2512,1438.5937,4842.6454" style="stroke:#008000;stroke-width:5.208333333333333;"/><path d="M1260.4167,4505.5621 L1260.4167,4635.7704 A52.0833,52.0833 0 0 0 1312.5,4687.8537 L1885.4167,4687.8537 A52.0833,52.0833 0 0 0 1937.5,4635.7704 L1937.5,4505.5621 L1885.4167,4453.4787 L1312.5,4453.4787 A52.0833,52.0833 0 0 0 1260.4167,4505.5621 " fill="#FEFFDD" style="stroke:#181818;stroke-width:2.6041666666666665;"/><path d="M1885.4167,4453.4787 L1885.4167,4479.5204 A26.0417,26.0417 0 0 0 1911.4583,4505.5621 L1937.5,4505.5621 L1885.4167,4453.4787 " fill="#FEFFDD" style="stroke:#181818;stroke-width:2.6041666666666665;"/><text fill="#000000" font-family="sans-serif" font-size="67.7083" font-weight="bold" lengthAdjust="spacing" textLength="489.5833" x="1291.6667" y="4551.9007">System shows:</text><text fill="#000000" font-family="sans-serif" font-size="67.7083" lengthAdjust="spacing" textLength="567.7083" x="1291.6667" y="4644.1195">Saved successfully</text></g><!--link CFC2 to CFS2--><g id="link_CFC2_CFS2"><path d="M911.4583,4205.4579 C911.4583,3961.0308 911.4583,3075.3537 911.4583,2736.5517 " fill="none" id="CFC2-to-CFS2" style="stroke:#FF0000;stroke-width:5.208333333333333;"/><polygon fill="#FF0000" points="911.4583,2705.3017,890.625,2752.1767,911.4583,2731.3433,932.2917,2752.1767,911.4583,2705.3017" style="stroke:#FF0000;stroke-width:5.208333333333333;"/><path d="M937.5,3349.3121 L937.5,3937.8537 A52.0833,52.0833 0 0 0 989.5833,3989.9371 L1812.5,3989.9371 A52.0833,52.0833 0 0 0 1864.5833,3937.8537 L1864.5833,3349.3121 L1812.5,3297.2287 L989.5833,3297.2287 A52.0833,52.0833 0 0 0 937.5,3349.3121 " fill="#FEFFDD" style="stroke:#181818;stroke-width:2.6041666666666665;"/><path d="M1812.5,3297.2287 L1812.5,3323.2704 A26.0417,26.0417 0 0 0 1838.5417,3349.3121 L1864.5833,3349.3121 L1812.5,3297.2287 " fill="#FEFFDD" style="stroke:#181818;stroke-width:2.6041666666666665;"/><text fill="#000000" font-family="sans-serif" font-size="67.7083" font-weight="bold" lengthAdjust="spacing" textLength="567.7083" x="968.75" y="3395.6507">System requires:</text><ellipse cx="997.3958" cy="3468.6456" fill="#000000" rx="13.0208" ry="13.0208" style="stroke:#000000;stroke-width:0.0;"/><text fill="#000000" font-family="sans-serif" font-size="67.7083" lengthAdjust="spacing" textLength="500" x="1031.25" y="3487.8695">Required one or</text><text fill="#000000" font-family="sans-serif" font-size="67.7083" lengthAdjust="spacing" textLength="380.2083" x="984.375" y="3580.0883">more inputs</text><ellipse cx="997.3958" cy="3653.0832" fill="#000000" rx="13.0208" ry="13.0208" style="stroke:#000000;stroke-width:0.0;"/><text fill="#000000" font-family="sans-serif" font-size="67.7083" lengthAdjust="spacing" textLength="625" x="1031.25" y="3672.3072">Required name with</text><text fill="#000000" font-family="sans-serif" font-size="67.7083" lengthAdjust="spacing" textLength="614.5833" x="984.375" y="3764.526">at least 3 characters</text><ellipse cx="997.3958" cy="3837.5209" fill="#000000" rx="13.0208" ry="13.0208" style="stroke:#000000;stroke-width:0.0;"/><text fill="#000000" font-family="sans-serif" font-size="67.7083" lengthAdjust="spacing" textLength="645.8333" x="1031.25" y="3856.7449">Required description</text><text fill="#000000" font-family="sans-serif" font-size="67.7083" lengthAdjust="spacing" textLength="802.0833" x="984.375" y="3948.9637">with at least 10 characters</text></g><!--link CFC1 to CFS2--><g id="link_CFC1_CFS2"><path d="M1519.1146,4850.9787 C1640.3646,4813.5829 1963.5417,4713.8954 1963.5417,4713.8954 C1963.5417,4713.8954 1963.5417,4427.4371 1963.5417,4427.4371 C1963.5417,4427.4371 1911.4583,3271.1871 1911.4583,3271.1871 C1911.4583,3271.1871 1341.9371,2876.6924 1069.958,2688.2549 " fill="none" id="CFC1-to-CFS2" style="stroke:#181818;stroke-width:5.208333333333333;"/><polygon fill="#181818" points="1044.2708,2670.4579,1070.9368,2714.2782,1065.6768,2685.2887,1094.6662,2680.0287,1044.2708,2670.4579" style="stroke:#181818;stroke-width:5.208333333333333;"/></g><!--link CFC1 to *end*SAVE_FORM_STRUCTURE--><g id="link_CFC1_*end*SAVE_FORM_STRUCTURE"><path d="M1473.9583,4935.0412 C1473.9583,4990.0412 1473.9583,5039.7287 1473.9583,5092.6975 " fill="none" id="CFC1-to-*end*SAVE_FORM_STRUCTURE" style="stroke:#181818;stroke-width:5.208333333333333;"/><polygon fill="#181818" points="1473.9583,5123.9475,1494.7917,5077.0725,1473.9583,5097.9058,1453.125,5077.0725,1473.9583,5123.9475" style="stroke:#181818;stroke-width:5.208333333333333;"/></g><path d="M2247.0833,1721.3542 L3508.0773,1721.3542 A52.0833,52.0833 0 0 1 3560.1606,1773.4375 L3560.1606,1872.7496 L2195,1872.7496 L2195,1773.4375 A52.0833,52.0833 0 0 1 2247.0833,1721.3542 " fill="#F1F1F1" style="stroke:#F1F1F1;stroke-width:5.208333333333333;"/><rect fill="none" height="2870.1454" rx="52.0833" ry="52.0833" style="stroke:#181818;stroke-width:2.6041666666666665;" width="1365.1606" x="2195" y="1721.3542"/><line style="stroke:#181818;stroke-width:2.6041666666666665;" x1="2195" x2="3560.1606" y1="1872.7496" y2="1872.7496"/><text fill="#000000" font-family="sans-serif" font-size="72.9167" lengthAdjust="spacing" textLength="937.5" x="2408.8303" y="1825.3434">DELETE_FORM_STRUCTURE</text><g id="DELETE_FORM_STRUCTURE.DFS1"><rect fill="#F1F1F1" height="260.4167" rx="52.0833" ry="52.0833" style="stroke:#181818;stroke-width:2.6041666666666665;" width="260.4167" x="3252.869" y="2226.9162"/><line style="stroke:#181818;stroke-width:2.6041666666666665;" x1="3252.869" x2="3513.2856" y1="2378.3116" y2="2378.3116"/><text fill="#000000" font-family="sans-serif" font-size="72.9167" lengthAdjust="spacing" textLength="20.8333" x="3372.6606" y="2330.9055">&#160;</text></g><g id="DELETE_FORM_STRUCTURE.DFS2"><rect fill="#F1F1F1" height="260.4167" rx="52.0833" ry="52.0833" style="stroke:#181818;stroke-width:2.6041666666666665;" width="260.4167" x="2273.7023" y="3055.0412"/><line style="stroke:#181818;stroke-width:2.6041666666666665;" x1="2273.7023" x2="2534.119" y1="3206.4366" y2="3206.4366"/><text fill="#000000" font-family="sans-serif" font-size="72.9167" lengthAdjust="spacing" textLength="20.8333" x="2393.494" y="3159.0305">&#160;</text></g><g id="elem_DFC1"><polygon fill="#F1F1F1" points="3148.7023,4107.1246,3211.2023,4169.6246,3148.7023,4232.1246,3086.2023,4169.6246,3148.7023,4107.1246" style="stroke:#181818;stroke-width:2.6041666666666665;"/></g><g id="elem_DFC2"><polygon fill="#F1F1F1" points="2721.619,3508.1662,2784.119,3570.6662,2721.619,3633.1662,2659.119,3570.6662,2721.619,3508.1662" style="stroke:#181818;stroke-width:2.6041666666666665;"/></g><ellipse cx="3383.0773" cy="1982.1246" fill="#222222" rx="52.0833" ry="52.0833" style="stroke:#222222;stroke-width:5.208333333333333;"/><ellipse cx="3148.7023" cy="4482.1246" fill="none" rx="57.2917" ry="57.2917" style="stroke:#222222;stroke-width:5.208333333333333;"/><ellipse cx="3148.7023" cy="4482.1246" fill="#222222" rx="31.25" ry="31.25" style="stroke:#222222;stroke-width:5.208333333333333;"/><!--link *start*DELETE_FORM_STRUCTURE to DFS1--><g id="link_*start*DELETE_FORM_STRUCTURE_DFS1"><path d="M3383.0773,2036.4996 C3383.0773,2084.7287 3383.0773,2128.9475 3383.0773,2193.9996 " fill="none" id="*start*DELETE_FORM_STRUCTURE-to-DFS1" style="stroke:#181818;stroke-width:5.208333333333333;"/><polygon fill="#181818" points="3383.0773,2225.2496,3403.9106,2178.3746,3383.0773,2199.2079,3362.244,2178.3746,3383.0773,2225.2496" style="stroke:#181818;stroke-width:5.208333333333333;"/></g><!--link DFS1 to DFS2--><g id="link_DFS1_DFS2"><path d="M3252.4002,2388.7392 C2964.2752,2446.9162 2299.744,2581.0829 2299.744,2581.0829 C2299.744,2581.0829 2299.744,2961.2912 2299.744,2961.2912 C2299.744,2961.2912 2306.9856,2976.4623 2329.9023,3024.5873 " fill="none" id="DFS1-to-DFS2" style="stroke:#181818;stroke-width:5.208333333333333;"/><polygon fill="#181818" points="2343.3377,3052.8017,2341.9942,3001.5231,2332.1415,3029.2897,2304.375,3019.437,2343.3377,3052.8017" style="stroke:#181818;stroke-width:5.208333333333333;"/><path d="M2325.7856,2659.2079 L2325.7856,2883.1662 A52.0833,52.0833 0 0 0 2377.869,2935.2496 L3232.0356,2935.2496 A52.0833,52.0833 0 0 0 3284.119,2883.1662 L3284.119,2659.2079 L3232.0356,2607.1246 L2377.869,2607.1246 A52.0833,52.0833 0 0 0 2325.7856,2659.2079 " fill="#FEFFDD" style="stroke:#181818;stroke-width:2.6041666666666665;"/><path d="M3232.0356,2607.1246 L3232.0356,2633.1662 A26.0417,26.0417 0 0 0 3258.0773,2659.2079 L3284.119,2659.2079 L3232.0356,2607.1246 " fill="#FEFFDD" style="stroke:#181818;stroke-width:2.6041666666666665;"/><text fill="#000000" font-family="sans-serif" font-size="67.7083" font-weight="bold" lengthAdjust="spacing" textLength="567.7083" x="2357.0356" y="2705.5465">System requires:</text><ellipse cx="2385.6815" cy="2778.5414" fill="#000000" rx="13.0208" ry="13.0208" style="stroke:#000000;stroke-width:0.0;"/><text fill="#000000" font-family="sans-serif" font-size="67.7083" lengthAdjust="spacing" textLength="760.4167" x="2419.5356" y="2797.7653">Confirmation of deletion</text><text fill="#000000" font-family="sans-serif" font-size="67.7083" lengthAdjust="spacing" textLength="848.9583" x="2357.0356" y="2889.9842">all forms with this structure</text></g><!--link DFS2 to DFC2--><g id="link_DFS2_DFC2"><path d="M2511.4627,3317.4371 C2576.2544,3393.8954 2633.6635,3461.61 2673.976,3509.2142 " fill="none" id="DFS2-to-DFC2" style="stroke:#181818;stroke-width:5.208333333333333;"/><polygon fill="#181818" points="2694.1711,3533.0621,2679.7771,3483.8268,2677.3419,3513.1888,2647.9799,3510.7536,2694.1711,3533.0621" style="stroke:#181818;stroke-width:5.208333333333333;"/></g><!--link DFC2 to DFC1--><g id="link_DFC2_DFC1"><path d="M2722.2961,3634.885 C2723.7544,3754.3121 2726.8273,4013.3746 2726.8273,4013.3746 C2726.8273,4013.3746 2967.9264,4099.7174 3075.7389,4138.3112 " fill="none" id="DFC2-to-DFC1" style="stroke:#008000;stroke-width:5.208333333333333;"/><polygon fill="#008000" points="3105.1606,4148.8433,3068.0495,4113.4307,3080.6426,4140.0666,3054.0067,4152.6596,3105.1606,4148.8433" style="stroke:#008000;stroke-width:5.208333333333333;"/><path d="M2752.869,3805.0412 L2752.869,3935.2496 A52.0833,52.0833 0 0 0 2804.9523,3987.3329 L3429.9523,3987.3329 A52.0833,52.0833 0 0 0 3482.0356,3935.2496 L3482.0356,3805.0412 L3429.9523,3752.9579 L2804.9523,3752.9579 A52.0833,52.0833 0 0 0 2752.869,3805.0412 " fill="#FEFFDD" style="stroke:#181818;stroke-width:2.6041666666666665;"/><path d="M3429.9523,3752.9579 L3429.9523,3778.9996 A26.0417,26.0417 0 0 0 3455.994,3805.0412 L3482.0356,3805.0412 L3429.9523,3752.9579 " fill="#FEFFDD" style="stroke:#181818;stroke-width:2.6041666666666665;"/><text fill="#000000" font-family="sans-serif" font-size="67.7083" font-weight="bold" lengthAdjust="spacing" textLength="489.5833" x="2784.119" y="3851.3798">System shows:</text><text fill="#000000" font-family="sans-serif" font-size="67.7083" lengthAdjust="spacing" textLength="619.7917" x="2784.119" y="3943.5987">Deleted successfully</text></g><!--link DFC2 to DFS1--><g id="link_DFC2_DFS1"><path d="M2751.619,3534.6767 C2871.5669,3411.5517 3310.1606,2961.2912 3310.1606,2961.2912 C3310.1606,2961.2912 3342.4258,2696.2184 3363.832,2520.3851 " fill="none" id="DFC2-to-DFS1" style="stroke:#FF0000;stroke-width:5.208333333333333;"/><polygon fill="#FF0000" points="3367.6086,2489.3642,3341.2631,2533.3779,3364.4614,2515.215,3382.6244,2538.4133,3367.6086,2489.3642" style="stroke:#FF0000;stroke-width:5.208333333333333;"/></g><!--link DFC1 to DFS1--><g id="link_DFC1_DFS1"><path d="M3191.3586,4146.4996 C3286.5148,4106.4996 3508.0773,4013.3746 3508.0773,4013.3746 C3508.0773,4013.3746 3508.0773,3726.9162 3508.0773,3726.9162 C3508.0773,3726.9162 3403.9106,2581.0829 3403.9106,2581.0829 C3403.9106,2581.0829 3402.7588,2568.8067 3398.1755,2520.6817 " fill="none" id="DFC1-to-DFS1" style="stroke:#181818;stroke-width:5.208333333333333;"/><polygon fill="#181818" points="3395.2127,2489.5725,3378.9174,2538.2115,3397.6817,2515.4968,3420.3964,2534.2611,3395.2127,2489.5725" style="stroke:#181818;stroke-width:5.208333333333333;"/></g><!--link DFC1 to *end*DELETE_FORM_STRUCTURE--><g id="link_DFC1_*end*DELETE_FORM_STRUCTURE"><path d="M3148.7023,4234.5204 C3148.7023,4289.5204 3148.7023,4339.2079 3148.7023,4392.1767 " fill="none" id="DFC1-to-*end*DELETE_FORM_STRUCTURE" style="stroke:#181818;stroke-width:5.208333333333333;"/><polygon fill="#181818" points="3148.7023,4423.4267,3169.5356,4376.5517,3148.7023,4397.385,3127.869,4376.5517,3148.7023,4423.4267" style="stroke:#181818;stroke-width:5.208333333333333;"/></g><ellipse cx="1950.5208" cy="5661.8229" fill="none" rx="57.2917" ry="57.2917" style="stroke:#222222;stroke-width:5.208333333333333;"/><ellipse cx="1950.5208" cy="5661.8229" fill="#222222" rx="31.25" ry="31.25" style="stroke:#222222;stroke-width:5.208333333333333;"/><!--link *start* to OPENED_FORM_STRUCTURE_MANAGEMENT--><g id="link_*start*_OPENED_FORM_STRUCTURE_MANAGEMENT"><path d="M1950.5208,136.7708 C1950.5208,208.0729 1950.5208,312.8646 1950.5208,414.1667 " fill="none" id="*start*-to-OPENED_FORM_STRUCTURE_MANAGEMENT" style="stroke:#181818;stroke-width:5.208333333333333;"/><polygon fill="#181818" points="1950.5208,445.4167,1971.3542,398.5417,1950.5208,419.375,1929.6875,398.5417,1950.5208,445.4167" style="stroke:#181818;stroke-width:5.208333333333333;"/></g><!--link OPENED_FORM_STRUCTURE_MANAGEMENT to DELETE_FORM_STRUCTURE--><g id="link_OPENED_FORM_STRUCTURE_MANAGEMENT_DELETE_FORM_STRUCTURE"><path d="M1996.5104,710.6771 C2067.1875,906.5104 2199.7017,1273.5233 2350.3788,1690.9191 " fill="none" id="OPENED_FORM_STRUCTURE_MANAGEMENT-to-DELETE_FORM_STRUCTURE" style="stroke:#181818;stroke-width:5.208333333333333;"/><polygon fill="#181818" points="2360.9896,1720.3125,2364.669,1669.1485,2352.1472,1695.818,2325.4777,1683.2963,2360.9896,1720.3125" style="stroke:#181818;stroke-width:5.208333333333333;"/></g><!--link OPENED_FORM_STRUCTURE_MANAGEMENT to SAVE_FORM_STRUCTURE--><g id="link_OPENED_FORM_STRUCTURE_MANAGEMENT_SAVE_FORM_STRUCTURE"><path d="M1904.5313,710.6771 C1877.1354,786.5625 1849.4603,863.209 1804.0957,988.9382 " fill="none" id="OPENED_FORM_STRUCTURE_MANAGEMENT-to-SAVE_FORM_STRUCTURE" style="stroke:#181818;stroke-width:5.208333333333333;"/><polygon fill="#181818" points="1793.4896,1018.3333,1828.9955,981.3114,1802.328,993.8374,1789.802,967.1699,1793.4896,1018.3333" style="stroke:#181818;stroke-width:5.208333333333333;"/></g><!--link DELETE_FORM_STRUCTURE to *end*--><g id="link_DELETE_FORM_STRUCTURE_*end*"><path d="M2356.1979,4592.9687 C2215.5729,4979.0104 2101.5625,5292.0312 2101.5625,5292.0312 C2101.5625,5292.0312 2024.9804,5476.8582 1983.47,5577.0665 " fill="none" id="DELETE_FORM_STRUCTURE-to-*end*" style="stroke:#181818;stroke-width:5.208333333333333;"/><polygon fill="#181818" points="1971.5104,5605.9375,2008.697,5570.6041,1981.4767,5581.8784,1970.2024,5554.658,1971.5104,5605.9375" style="stroke:#181818;stroke-width:5.208333333333333;"/></g><!--link SAVE_FORM_STRUCTURE to *end*--><g id="link_SAVE_FORM_STRUCTURE_*end*"><path d="M1815.7292,5293.8021 C1868.4375,5435.6771 1898.5901,5516.8544 1920.9338,5576.9585 " fill="none" id="SAVE_FORM_STRUCTURE-to-*end*" style="stroke:#181818;stroke-width:5.208333333333333;"/><polygon fill="#181818" points="1931.8229,5606.25,1935.0169,5555.0534,1922.7487,5581.8404,1895.9616,5569.5722,1931.8229,5606.25" style="stroke:#181818;stroke-width:5.208333333333333;"/></g><!--SRC=[hLHDZvim4BtpAwRRsqf92hbL4LA4sQfIawr2ifSeYhpWBDOQczgcgwZgVw_v3jJTZTfQ7F1xZESnyyRxsmDC9ZxSVmtN8JhUtMzMnsYxsGNRtIOyhfRhvQTm5QwtpZlAOrOa1ARJMVqKcZ8rKqHhof_KD2yovgXdodCiSGQCSgBFEO5Si7EvSPJ6ca2qV0X7QU270sRLV70NkO0LtC3D4FMiwDo61Yui5d4gQ4nyVyXubqn5xPiAb8bhf9BGG5w5S66Y1Iz_wha2ohLuzAEpqYG3IRuLL1BrSJ5xz3l-5jOu8nTRH5GiQQwfu1VePvuNMbK0uKcLgbNXjIhcrwZ0Z8aN1LgCPKJu-wMCNPxW9aUNiCquRp86NWkPYatsxvya8VnGK-urObHgj0o5b38IK4KS4wLE1MDdguOweIJ9uJzqO5FZYGaruR9Z81EI0ErBF_gScyx12zLf7u4rC8ALXZd4gR5uh8cqnYQMDbTdzKUu7yPd_5Q5te4mX8nVdPzECqqe_19kNvqdP9qdP9qdzCV9GQzD3kec1xMJW_wnRu7W9oepN1OHnCdKb97glVl6k1rEGcQgBgrEgJ9QPH7hGexDtMhp6csjkz7OtUZltOrAXM_x6mtzNPUkPTo-d0EaQVbRTtGTRNF4TQ6Mgzcn6wmLPRlCM-uN]--></g></svg>