<?xml version="1.0" encoding="us-ascii" standalone="no"?><svg xmlns="http://www.w3.org/2000/svg" xmlns:xlink="http://www.w3.org/1999/xlink" contentStyleType="text/css" height="5109.375px" preserveAspectRatio="none" style="width:3869px;height:5109px;background:#FFFFFF;" version="1.1" viewBox="0 0 3869 5109" width="3869.7917px" zoomAndPan="magnify"><defs/><g><ellipse cx="1955.7292" cy="83.3333" fill="#222222" rx="52.0833" ry="52.0833" style="stroke:#222222;stroke-width:5.208333333333333;"/><g id="OPENED_FORM_DATA_MANAGEMENT"><rect fill="#F1F1F1" height="260.4167" rx="52.0833" ry="52.0833" style="stroke:#181818;stroke-width:2.6041666666666665;" width="1406.25" x="1252.6042" y="447.9167"/><line style="stroke:#181818;stroke-width:2.6041666666666665;" x1="1252.6042" x2="2658.8542" y1="599.3121" y2="599.3121"/><text fill="#000000" font-family="sans-serif" font-size="72.9167" lengthAdjust="spacing" textLength="1302.0833" x="1304.6875" y="551.9059">OPENED_FORM_DATA_MANAGEMENT</text></g><path d="M88.5417,1020.8333 L1843.75,1020.8333 A52.0833,52.0833 0 0 1 1895.8333,1072.9167 L1895.8333,1172.2287 L36.4583,1172.2287 L36.4583,1072.9167 A52.0833,52.0833 0 0 1 88.5417,1020.8333 " fill="#F1F1F1" style="stroke:#F1F1F1;stroke-width:5.208333333333333;"/><rect fill="none" height="3630.5621" rx="52.0833" ry="52.0833" style="stroke:#181818;stroke-width:2.6041666666666665;" width="1859.375" x="36.4583" y="1020.8333"/><line style="stroke:#181818;stroke-width:2.6041666666666665;" x1="36.4583" x2="1895.8333" y1="1172.2287" y2="1172.2287"/><text fill="#000000" font-family="sans-serif" font-size="72.9167" lengthAdjust="spacing" textLength="630.2083" x="651.0417" y="1124.8226">SAVE_FORM_DATA</text><g id="SAVE_FORM_DATA.CF1"><rect fill="#F1F1F1" height="260.4167" rx="52.0833" ry="52.0833" style="stroke:#181818;stroke-width:2.6041666666666665;" width="260.4167" x="817.7083" y="1526.3954"/><line style="stroke:#181818;stroke-width:2.6041666666666665;" x1="817.7083" x2="1078.125" y1="1677.7908" y2="1677.7908"/><text fill="#000000" font-family="sans-serif" font-size="72.9167" lengthAdjust="spacing" textLength="20.8333" x="937.5" y="1630.3846">&#160;</text></g><g id="SAVE_FORM_DATA.CF2"><rect fill="#F1F1F1" height="260.4167" rx="52.0833" ry="52.0833" style="stroke:#181818;stroke-width:2.6041666666666665;" width="260.4167" x="817.7083" y="2260.7704"/><line style="stroke:#181818;stroke-width:2.6041666666666665;" x1="817.7083" x2="1078.125" y1="2412.1658" y2="2412.1658"/><text fill="#000000" font-family="sans-serif" font-size="72.9167" lengthAdjust="spacing" textLength="20.8333" x="937.5" y="2364.7596">&#160;</text></g><g id="SAVE_FORM_DATA.CF3"><rect fill="#F1F1F1" height="260.4167" rx="52.0833" ry="52.0833" style="stroke:#181818;stroke-width:2.6041666666666665;" width="260.4167" x="229.1667" y="3101.9162"/><line style="stroke:#181818;stroke-width:2.6041666666666665;" x1="229.1667" x2="489.5833" y1="3253.3116" y2="3253.3116"/><text fill="#000000" font-family="sans-serif" font-size="72.9167" lengthAdjust="spacing" textLength="20.8333" x="348.9583" y="3205.9055">&#160;</text></g><g id="elem_CFC1"><polygon fill="#F1F1F1" points="1348.9583,4167.0204,1411.4583,4229.5204,1348.9583,4292.0204,1286.4583,4229.5204,1348.9583,4167.0204" style="stroke:#181818;stroke-width:2.6041666666666665;"/></g><g id="elem_CFC2"><polygon fill="#F1F1F1" points="781.25,3568.0621,843.75,3630.5621,781.25,3693.0621,718.75,3630.5621,781.25,3568.0621" style="stroke:#181818;stroke-width:2.6041666666666665;"/></g><ellipse cx="947.9167" cy="1281.6037" fill="#222222" rx="52.0833" ry="52.0833" style="stroke:#222222;stroke-width:5.208333333333333;"/><ellipse cx="1348.9583" cy="4542.0204" fill="none" rx="57.2917" ry="57.2917" style="stroke:#222222;stroke-width:5.208333333333333;"/><ellipse cx="1348.9583" cy="4542.0204" fill="#222222" rx="31.25" ry="31.25" style="stroke:#222222;stroke-width:5.208333333333333;"/><!--link *start*SAVE_FORM_DATA to CF1--><g id="link_*start*SAVE_FORM_DATA_CF1"><path d="M947.9167,1335.9787 C947.9167,1384.2079 947.9167,1428.4267 947.9167,1493.4787 " fill="none" id="*start*SAVE_FORM_DATA-to-CF1" style="stroke:#181818;stroke-width:5.208333333333333;"/><polygon fill="#181818" points="947.9167,1524.7287,968.75,1477.8537,947.9167,1498.6871,927.0833,1477.8537,947.9167,1524.7287" style="stroke:#181818;stroke-width:5.208333333333333;"/></g><!--link CF1 to CF2--><g id="link_CF1_CF2"><path d="M947.9167,1787.9058 C947.9167,1919.9892 947.9167,2094.9892 947.9167,2227.4371 " fill="none" id="CF1-to-CF2" style="stroke:#181818;stroke-width:5.208333333333333;"/><polygon fill="#181818" points="947.9167,2258.6871,968.75,2211.8121,947.9167,2232.6454,927.0833,2211.8121,947.9167,2258.6871" style="stroke:#181818;stroke-width:5.208333333333333;"/><path d="M973.9583,1958.6871 L973.9583,2088.8954 A52.0833,52.0833 0 0 0 1026.0417,2140.9787 L1598.9583,2140.9787 A52.0833,52.0833 0 0 0 1651.0417,2088.8954 L1651.0417,1958.6871 L1598.9583,1906.6037 L1026.0417,1906.6037 A52.0833,52.0833 0 0 0 973.9583,1958.6871 " fill="#FEFFDD" style="stroke:#181818;stroke-width:2.6041666666666665;"/><path d="M1598.9583,1906.6037 L1598.9583,1932.6454 A26.0417,26.0417 0 0 0 1625,1958.6871 L1651.0417,1958.6871 L1598.9583,1906.6037 " fill="#FEFFDD" style="stroke:#181818;stroke-width:2.6041666666666665;"/><text fill="#000000" font-family="sans-serif" font-size="67.7083" font-weight="bold" lengthAdjust="spacing" textLength="567.7083" x="1005.2083" y="2005.0257">System requires:</text><ellipse cx="1033.8542" cy="2078.0206" fill="#000000" rx="13.0208" ry="13.0208" style="stroke:#000000;stroke-width:0.0;"/><text fill="#000000" font-family="sans-serif" font-size="67.7083" lengthAdjust="spacing" textLength="505.2083" x="1067.7083" y="2097.2445">Insert form data</text></g><!--link CF2 to CF3--><g id="link_CF2_CF3"><path d="M816.3021,2429.885 C576.7188,2491.2392 93.75,2614.9371 93.75,2614.9371 C93.75,2614.9371 93.75,2995.1454 93.75,2995.1454 C93.75,2995.1454 137.6493,3033.4564 204.5764,3091.8418 " fill="none" id="CF2-to-CF3" style="stroke:#181818;stroke-width:5.208333333333333;"/><polygon fill="#181818" points="228.125,3112.385,206.4975,3065.8711,208.5011,3095.2656,179.1066,3097.2693,228.125,3112.385" style="stroke:#181818;stroke-width:5.208333333333333;"/><path d="M119.7917,2693.0621 L119.7917,2917.0204 A52.0833,52.0833 0 0 0 171.875,2969.1037 L796.875,2969.1037 A52.0833,52.0833 0 0 0 848.9583,2917.0204 L848.9583,2693.0621 L796.875,2640.9787 L171.875,2640.9787 A52.0833,52.0833 0 0 0 119.7917,2693.0621 " fill="#FEFFDD" style="stroke:#181818;stroke-width:2.6041666666666665;"/><path d="M796.875,2640.9787 L796.875,2667.0204 A26.0417,26.0417 0 0 0 822.9167,2693.0621 L848.9583,2693.0621 L796.875,2640.9787 " fill="#FEFFDD" style="stroke:#181818;stroke-width:2.6041666666666665;"/><text fill="#000000" font-family="sans-serif" font-size="67.7083" font-weight="bold" lengthAdjust="spacing" textLength="583.3333" x="151.0417" y="2739.4007">System allows to:</text><ellipse cx="179.6875" cy="2812.3956" fill="#000000" rx="13.0208" ry="13.0208" style="stroke:#000000;stroke-width:0.0;"/><text fill="#000000" font-family="sans-serif" font-size="67.7083" lengthAdjust="spacing" textLength="468.75" x="213.5417" y="2831.6195">Save form data</text><ellipse cx="179.6875" cy="2904.6144" fill="#000000" rx="13.0208" ry="13.0208" style="stroke:#000000;stroke-width:0.0;"/><text fill="#000000" font-family="sans-serif" font-size="67.7083" lengthAdjust="spacing" textLength="557.2917" x="213.5417" y="2923.8383">Update form data</text></g><!--link CF3 to CFC2--><g id="link_CF3_CFC2"><path d="M490.5208,3357.9579 C581.5104,3441.6037 672.6302,3525.4424 726.849,3575.3382 " fill="none" id="CF3-to-CFC2" style="stroke:#181818;stroke-width:5.208333333333333;"/><polygon fill="#181818" points="749.8438,3596.4996,729.4592,3549.4277,730.6814,3578.8651,701.244,3580.0874,749.8438,3596.4996" style="stroke:#181818;stroke-width:5.208333333333333;"/></g><!--link CFC2 to CFC1--><g id="link_CFC2_CFC1"><path d="M781.9271,3694.7808 C783.3854,3814.2079 786.4583,4073.2704 786.4583,4073.2704 C786.4583,4073.2704 1134.7689,4166.7741 1270.8105,4203.3366 " fill="none" id="CFC2-to-CFC1" style="stroke:#008000;stroke-width:5.208333333333333;"/><polygon fill="#008000" points="1300.9896,4211.4475,1261.1283,4179.1617,1275.8404,4204.6884,1250.3137,4219.4005,1300.9896,4211.4475" style="stroke:#008000;stroke-width:5.208333333333333;"/><path d="M812.5,3864.9371 L812.5,3995.1454 A52.0833,52.0833 0 0 0 864.5833,4047.2287 L1770.8333,4047.2287 A52.0833,52.0833 0 0 0 1822.9167,3995.1454 L1822.9167,3864.9371 L1770.8333,3812.8537 L864.5833,3812.8537 A52.0833,52.0833 0 0 0 812.5,3864.9371 " fill="#FEFFDD" style="stroke:#181818;stroke-width:2.6041666666666665;"/><path d="M1770.8333,3812.8537 L1770.8333,3838.8954 A26.0417,26.0417 0 0 0 1796.875,3864.9371 L1822.9167,3864.9371 L1770.8333,3812.8537 " fill="#FEFFDD" style="stroke:#181818;stroke-width:2.6041666666666665;"/><text fill="#000000" font-family="sans-serif" font-size="67.7083" font-weight="bold" lengthAdjust="spacing" textLength="489.5833" x="843.75" y="3911.2757">System shows:</text><text fill="#000000" font-family="sans-serif" font-size="67.7083" lengthAdjust="spacing" textLength="901.0417" x="843.75" y="4003.4945">Form data saved successfully</text></g><!--link CFC2 to CF2--><g id="link_CFC2_CF2"><path d="M788.9063,3573.7912 C811.3021,3423.2704 875,2995.1454 875,2995.1454 C875,2995.1454 907.2651,2730.0726 928.6714,2554.2393 " fill="none" id="CFC2-to-CF2" style="stroke:#FF0000;stroke-width:5.208333333333333;"/><polygon fill="#FF0000" points="932.4479,2523.2183,906.1025,2567.2321,929.3008,2549.0691,947.4637,2572.2675,932.4479,2523.2183" style="stroke:#FF0000;stroke-width:5.208333333333333;"/><path d="M886.9792,3167.0204 L886.9792,3297.2287 A52.0833,52.0833 0 0 0 939.0625,3349.3121 L1610.9375,3349.3121 A52.0833,52.0833 0 0 0 1663.0208,3297.2287 L1663.0208,3167.0204 L1610.9375,3114.9371 L939.0625,3114.9371 A52.0833,52.0833 0 0 0 886.9792,3167.0204 " fill="#FEFFDD" style="stroke:#181818;stroke-width:2.6041666666666665;"/><path d="M1610.9375,3114.9371 L1610.9375,3140.9787 A26.0417,26.0417 0 0 0 1636.9792,3167.0204 L1663.0208,3167.0204 L1610.9375,3114.9371 " fill="#FEFFDD" style="stroke:#181818;stroke-width:2.6041666666666665;"/><text fill="#000000" font-family="sans-serif" font-size="67.7083" font-weight="bold" lengthAdjust="spacing" textLength="567.7083" x="918.2292" y="3213.359">System requires:</text><ellipse cx="946.875" cy="3286.3539" fill="#000000" rx="13.0208" ry="13.0208" style="stroke:#000000;stroke-width:0.0;"/><text fill="#000000" font-family="sans-serif" font-size="67.7083" lengthAdjust="spacing" textLength="604.1667" x="980.7292" y="3305.5778">Required form data</text></g><!--link CFC1 to CF2--><g id="link_CFC1_CF2"><path d="M1395.1042,4210.3537 C1518.8542,4172.9579 1848.9583,4073.2704 1848.9583,4073.2704 C1848.9583,4073.2704 1848.9583,3786.8121 1848.9583,3786.8121 C1848.9583,3786.8121 1708.3333,3088.8954 1708.3333,3088.8954 C1708.3333,3088.8954 1321.3323,2736.3447 1103.4677,2537.9072 " fill="none" id="CFC1-to-CF2" style="stroke:#181818;stroke-width:5.208333333333333;"/><polygon fill="#181818" points="1080.3646,2516.8642,1100.9906,2563.8307,1099.6172,2534.4,1129.0479,2533.0266,1080.3646,2516.8642" style="stroke:#181818;stroke-width:5.208333333333333;"/></g><!--link CFC1 to *end*SAVE_FORM_DATA--><g id="link_CFC1_*end*SAVE_FORM_DATA"><path d="M1348.9583,4294.4162 C1348.9583,4349.4162 1348.9583,4399.1037 1348.9583,4452.0725 " fill="none" id="CFC1-to-*end*SAVE_FORM_DATA" style="stroke:#181818;stroke-width:5.208333333333333;"/><polygon fill="#181818" points="1348.9583,4483.3225,1369.7917,4436.4475,1348.9583,4457.2808,1328.125,4436.4475,1348.9583,4483.3225" style="stroke:#181818;stroke-width:5.208333333333333;"/></g><path d="M2128.8542,1447.9167 L3761.7677,1447.9167 A52.0833,52.0833 0 0 1 3813.851,1500 L3813.851,1599.3121 L2076.7708,1599.3121 L2076.7708,1500 A52.0833,52.0833 0 0 1 2128.8542,1447.9167 " fill="#F1F1F1" style="stroke:#F1F1F1;stroke-width:5.208333333333333;"/><rect fill="none" height="2776.3954" rx="52.0833" ry="52.0833" style="stroke:#181818;stroke-width:2.6041666666666665;" width="1737.0802" x="2076.7708" y="1447.9167"/><line style="stroke:#181818;stroke-width:2.6041666666666665;" x1="2076.7708" x2="3813.851" y1="1599.3121" y2="1599.3121"/><text fill="#000000" font-family="sans-serif" font-size="72.9167" lengthAdjust="spacing" textLength="713.5417" x="2588.5401" y="1551.9059">DELETE_FORM_DATA</text><g id="DELETE_FORM_DATA.DF1"><rect fill="#F1F1F1" height="260.4167" rx="52.0833" ry="52.0833" style="stroke:#181818;stroke-width:2.6041666666666665;" width="260.4167" x="3506.5593" y="1953.4787"/><line style="stroke:#181818;stroke-width:2.6041666666666665;" x1="3506.5593" x2="3766.976" y1="2104.8741" y2="2104.8741"/><text fill="#000000" font-family="sans-serif" font-size="72.9167" lengthAdjust="spacing" textLength="20.8333" x="3626.351" y="2057.468">&#160;</text></g><g id="DELETE_FORM_DATA.DF2"><rect fill="#F1F1F1" height="260.4167" rx="52.0833" ry="52.0833" style="stroke:#181818;stroke-width:2.6041666666666665;" width="260.4167" x="2162.8093" y="2687.8537"/><line style="stroke:#181818;stroke-width:2.6041666666666665;" x1="2162.8093" x2="2423.226" y1="2839.2491" y2="2839.2491"/><text fill="#000000" font-family="sans-serif" font-size="72.9167" lengthAdjust="spacing" textLength="20.8333" x="2282.601" y="2791.843">&#160;</text></g><g id="elem_DFC1"><polygon fill="#F1F1F1" points="3235.726,3739.9371,3298.226,3802.4371,3235.726,3864.9371,3173.226,3802.4371,3235.726,3739.9371" style="stroke:#181818;stroke-width:2.6041666666666665;"/></g><g id="elem_DFC2"><polygon fill="#F1F1F1" points="2641.976,3140.9787,2704.476,3203.4787,2641.976,3265.9787,2579.476,3203.4787,2641.976,3140.9787" style="stroke:#181818;stroke-width:2.6041666666666665;"/></g><ellipse cx="3636.7677" cy="1708.6871" fill="#222222" rx="52.0833" ry="52.0833" style="stroke:#222222;stroke-width:5.208333333333333;"/><ellipse cx="3235.726" cy="4114.9371" fill="none" rx="57.2917" ry="57.2917" style="stroke:#222222;stroke-width:5.208333333333333;"/><ellipse cx="3235.726" cy="4114.9371" fill="#222222" rx="31.25" ry="31.25" style="stroke:#222222;stroke-width:5.208333333333333;"/><!--link *start*DELETE_FORM_DATA to DF1--><g id="link_*start*DELETE_FORM_DATA_DF1"><path d="M3636.7677,1763.0621 C3636.7677,1811.2912 3636.7677,1855.51 3636.7677,1920.5621 " fill="none" id="*start*DELETE_FORM_DATA-to-DF1" style="stroke:#181818;stroke-width:5.208333333333333;"/><polygon fill="#181818" points="3636.7677,1951.8121,3657.601,1904.9371,3636.7677,1925.7704,3615.9343,1904.9371,3636.7677,1951.8121" style="stroke:#181818;stroke-width:5.208333333333333;"/></g><!--link DF1 to DF2--><g id="link_DF1_DF2"><path d="M3504.7885,2108.6871 C3145.7781,2162.5412 2178.4343,2307.6454 2178.4343,2307.6454 C2178.4343,2307.6454 2178.4343,2594.1037 2178.4343,2594.1037 C2178.4343,2594.1037 2186.6424,2609.8069 2211.8508,2657.9319 " fill="none" id="DF1-to-DF2" style="stroke:#181818;stroke-width:5.208333333333333;"/><polygon fill="#181818" points="2226.351,2685.6142,2223.0555,2634.424,2214.2675,2662.5456,2186.1458,2653.7576,2226.351,2685.6142" style="stroke:#181818;stroke-width:5.208333333333333;"/><path d="M2204.476,2385.7704 L2204.476,2515.9787 A52.0833,52.0833 0 0 0 2256.5593,2568.0621 L3485.726,2568.0621 A52.0833,52.0833 0 0 0 3537.8093,2515.9787 L3537.8093,2385.7704 L3485.726,2333.6871 L2256.5593,2333.6871 A52.0833,52.0833 0 0 0 2204.476,2385.7704 " fill="#FEFFDD" style="stroke:#181818;stroke-width:2.6041666666666665;"/><path d="M3485.726,2333.6871 L3485.726,2359.7287 A26.0417,26.0417 0 0 0 3511.7677,2385.7704 L3537.8093,2385.7704 L3485.726,2333.6871 " fill="#FEFFDD" style="stroke:#181818;stroke-width:2.6041666666666665;"/><text fill="#000000" font-family="sans-serif" font-size="67.7083" font-weight="bold" lengthAdjust="spacing" textLength="567.7083" x="2235.726" y="2432.109">System requires:</text><ellipse cx="2264.3718" cy="2505.1039" fill="#000000" rx="13.0208" ry="13.0208" style="stroke:#000000;stroke-width:0.0;"/><text fill="#000000" font-family="sans-serif" font-size="67.7083" lengthAdjust="spacing" textLength="1161.4583" x="2298.226" y="2524.3278">Confirmation of deletion of form data</text></g><!--link DF2 to DFC2--><g id="link_DF2_DFC2"><path d="M2411.1427,2950.2496 C2483.1218,3027.5933 2548.1366,3097.4235 2592.0428,3144.611 " fill="none" id="DF2-to-DFC2" style="stroke:#181818;stroke-width:5.208333333333333;"/><polygon fill="#181818" points="2613.3302,3167.4892,2596.6513,3118.9803,2595.5907,3148.424,2566.147,3147.3634,2613.3302,3167.4892" style="stroke:#181818;stroke-width:5.208333333333333;"/></g><!--link DFC2 to DFC1--><g id="link_DFC2_DFC1"><path d="M2642.6531,3267.6975 C2644.1114,3387.1246 2647.1843,3646.1871 2647.1843,3646.1871 C2647.1843,3646.1871 3016.7606,3741.0168 3157.2814,3777.1106 " fill="none" id="DFC2-to-DFC1" style="stroke:#008000;stroke-width:5.208333333333333;"/><polygon fill="#008000" points="3187.5489,3784.885,3147.3306,3753.045,3162.326,3778.4063,3136.9647,3793.4017,3187.5489,3784.885" style="stroke:#008000;stroke-width:5.208333333333333;"/><path d="M2673.226,3437.8537 L2673.226,3568.0621 A52.0833,52.0833 0 0 0 2725.3093,3620.1454 L3683.6427,3620.1454 A52.0833,52.0833 0 0 0 3735.726,3568.0621 L3735.726,3437.8537 L3683.6427,3385.7704 L2725.3093,3385.7704 A52.0833,52.0833 0 0 0 2673.226,3437.8537 " fill="#FEFFDD" style="stroke:#181818;stroke-width:2.6041666666666665;"/><path d="M3683.6427,3385.7704 L3683.6427,3411.8121 A26.0417,26.0417 0 0 0 3709.6843,3437.8537 L3735.726,3437.8537 L3683.6427,3385.7704 " fill="#FEFFDD" style="stroke:#181818;stroke-width:2.6041666666666665;"/><text fill="#000000" font-family="sans-serif" font-size="67.7083" font-weight="bold" lengthAdjust="spacing" textLength="489.5833" x="2704.476" y="3484.1923">System shows:</text><text fill="#000000" font-family="sans-serif" font-size="67.7083" lengthAdjust="spacing" textLength="953.125" x="2704.476" y="3576.4112">Form data deleted successfully</text></g><!--link DFC2 to DF1--><g id="link_DFC2_DF1"><path d="M2676.976,3175.3017 C2845.3614,3064.9892 3563.851,2594.1037 3563.851,2594.1037 C3563.851,2594.1037 3592.3,2396.9598 3613.9146,2247.3244 " fill="none" id="DFC2-to-DF1" style="stroke:#FF0000;stroke-width:5.208333333333333;"/><polygon fill="#FF0000" points="3618.3822,2216.3954,3591.0614,2259.8105,3614.6592,2242.1696,3632.3001,2265.7673,3618.3822,2216.3954" style="stroke:#FF0000;stroke-width:5.208333333333333;"/></g><!--link DFC1 to DF1--><g id="link_DFC1_DF1"><path d="M3282.3927,3783.8433 C3411.1427,3746.8642 3761.7677,3646.1871 3761.7677,3646.1871 C3761.7677,3646.1871 3761.7677,3359.7287 3761.7677,3359.7287 C3761.7677,3359.7287 3683.8892,2567.912 3652.2747,2246.5057 " fill="none" id="DFC1-to-DF1" style="stroke:#181818;stroke-width:5.208333333333333;"/><polygon fill="#181818" points="3649.2156,2215.4058,3633.0709,2264.0951,3651.7648,2241.3224,3674.5375,2260.0163,3649.2156,2215.4058" style="stroke:#181818;stroke-width:5.208333333333333;"/></g><!--link DFC1 to *end*DELETE_FORM_DATA--><g id="link_DFC1_*end*DELETE_FORM_DATA"><path d="M3235.726,3867.3329 C3235.726,3922.3329 3235.726,3972.0204 3235.726,4024.9892 " fill="none" id="DFC1-to-*end*DELETE_FORM_DATA" style="stroke:#181818;stroke-width:5.208333333333333;"/><polygon fill="#181818" points="3235.726,4056.2392,3256.5593,4009.3642,3235.726,4030.1975,3214.8927,4009.3642,3235.726,4056.2392" style="stroke:#181818;stroke-width:5.208333333333333;"/></g><ellipse cx="1955.7292" cy="5021.1979" fill="none" rx="57.2917" ry="57.2917" style="stroke:#222222;stroke-width:5.208333333333333;"/><ellipse cx="1955.7292" cy="5021.1979" fill="#222222" rx="31.25" ry="31.25" style="stroke:#222222;stroke-width:5.208333333333333;"/><!--link *start* to OPENED_FORM_DATA_MANAGEMENT--><g id="link_*start*_OPENED_FORM_DATA_MANAGEMENT"><path d="M1955.7292,136.7708 C1955.7292,208.0729 1955.7292,312.8646 1955.7292,414.1667 " fill="none" id="*start*-to-OPENED_FORM_DATA_MANAGEMENT" style="stroke:#181818;stroke-width:5.208333333333333;"/><polygon fill="#181818" points="1955.7292,445.4167,1976.5625,398.5417,1955.7292,419.375,1934.8958,398.5417,1955.7292,445.4167" style="stroke:#181818;stroke-width:5.208333333333333;"/></g><!--link OPENED_FORM_DATA_MANAGEMENT to DELETE_FORM_DATA--><g id="link_OPENED_FORM_DATA_MANAGEMENT_DELETE_FORM_DATA"><path d="M2011.7708,710.625 C2079.6354,864.7917 2189.0196,1113.2755 2322.9259,1417.338 " fill="none" id="OPENED_FORM_DATA_MANAGEMENT-to-DELETE_FORM_DATA" style="stroke:#181818;stroke-width:5.208333333333333;"/><polygon fill="#181818" points="2335.5208,1445.9375,2335.6947,1394.6417,2325.0251,1422.1046,2297.5621,1411.4349,2335.5208,1445.9375" style="stroke:#181818;stroke-width:5.208333333333333;"/></g><!--link OPENED_FORM_DATA_MANAGEMENT to SAVE_FORM_DATA--><g id="link_OPENED_FORM_DATA_MANAGEMENT_SAVE_FORM_DATA"><path d="M1899.6875,710.625 C1865.9375,787.2396 1831.4413,865.6159 1776.1809,991.1888 " fill="none" id="OPENED_FORM_DATA_MANAGEMENT-to-SAVE_FORM_DATA" style="stroke:#181818;stroke-width:5.208333333333333;"/><polygon fill="#181818" points="1763.5938,1019.7917,1801.5431,985.2788,1774.0831,995.9559,1763.4059,968.4959,1763.5938,1019.7917" style="stroke:#181818;stroke-width:5.208333333333333;"/></g><!--link DELETE_FORM_DATA to *end*--><g id="link_DELETE_FORM_DATA_*end*"><path d="M2315.1042,4226.25 C2162.8646,4560.8333 2042.1168,4826.195 1990.8668,4938.7471 " fill="none" id="DELETE_FORM_DATA-to-*end*" style="stroke:#181818;stroke-width:5.208333333333333;"/><polygon fill="#181818" points="1977.9167,4967.1875,2016.3022,4933.1604,1988.7085,4943.4872,1978.3817,4915.8935,1977.9167,4967.1875" style="stroke:#181818;stroke-width:5.208333333333333;"/></g><!--link SAVE_FORM_DATA to *end*--><g id="link_SAVE_FORM_DATA_*end*"><path d="M1790.1042,4651.9792 C1854.9479,4794.5833 1893.0974,4878.3278 1920.5453,4938.6403 " fill="none" id="SAVE_FORM_DATA-to-*end*" style="stroke:#181818;stroke-width:5.208333333333333;"/><polygon fill="#181818" points="1933.4896,4967.0833,1933.0352,4915.7892,1922.7027,4943.3808,1895.1111,4933.0483,1933.4896,4967.0833" style="stroke:#181818;stroke-width:5.208333333333333;"/></g><!--SRC=[hLJHQk9057tFLznjtmGLurkHGCZ4PQ5gKNTVH6IQNDl1oKoQcRH8sN_V93DncspKGZVa8NCED-VSUm-pwMsXt_TWyH3EGxARBfQp7V7N_cxcp_tluIoShvrlJ4GyZn46Ww5vSysu6YhKceadDKZpX3lgm4HACve0PmBrCKL89J-M1qTfgX5M_g_mhmAyEr0yXWgc8w0ARk2c0RfTuBWB34OmcKJFaaNeUKt6_SXKrCOsNQWQe9GtW5kTXInAfIWxELH0-KmUlTLHQKmWmvUSPQZk9iD7xyJtu8TGc6dOooo1c6fQKIZYwdzMoBL2uyy8KSxbcm8jsqeh-eej7KFyJEEoxJCMh8UnzH2uDL8CgR-vVSeGnTPGey_uKy-5lQQtQQqCgl0OWygZ29NQvvmVEyqOwGpZxTSNi3HuVAN_uBHjQ295C9pVZeqh2U_3zRd0agx0agx0ahFP99UoIUfi4fjDyhNH15BiMPPGpOfQkOSOETRVbwP5R6B9AIsadHRoFz9I-RcU5zBCouSf1QFJt1g0tUc52yxKjRPzjQ1vcpd_fANMRjrwDVm7]--></g></svg>