<?xml version="1.0" encoding="us-ascii" standalone="no"?><svg xmlns="http://www.w3.org/2000/svg" xmlns:xlink="http://www.w3.org/1999/xlink" contentStyleType="text/css" height="5937.5px" preserveAspectRatio="none" style="width:4317px;height:5937px;background:#FFFFFF;" version="1.1" viewBox="0 0 4317 5937" width="4317.7083px" zoomAndPan="magnify"><defs/><g><ellipse cx="2321.7188" cy="83.3333" fill="#222222" rx="52.0833" ry="52.0833" style="stroke:#222222;stroke-width:5.208333333333333;"/><g id="OPENED_INPUT_MANAGEMENT"><rect fill="#F1F1F1" height="260.4167" rx="52.0833" ry="52.0833" style="stroke:#181818;stroke-width:2.6041666666666665;" width="1197.9167" x="1722.7604" y="447.9167"/><line style="stroke:#181818;stroke-width:2.6041666666666665;" x1="1722.7604" x2="2920.6771" y1="599.3121" y2="599.3121"/><text fill="#000000" font-family="sans-serif" font-size="72.9167" lengthAdjust="spacing" textLength="1093.75" x="1774.8437" y="551.9059">OPENED_INPUT_MANAGEMENT</text></g><path d="M88.5417,1020.8333 L2356.9792,1020.8333 A52.0833,52.0833 0 0 1 2409.0625,1072.9167 L2409.0625,1172.2287 L36.4583,1172.2287 L36.4583,1072.9167 A52.0833,52.0833 0 0 1 88.5417,1020.8333 " fill="#F1F1F1" style="stroke:#F1F1F1;stroke-width:5.208333333333333;"/><rect fill="none" height="4458.6871" rx="52.0833" ry="52.0833" style="stroke:#181818;stroke-width:2.6041666666666665;" width="2372.6042" x="36.4583" y="1020.8333"/><line style="stroke:#181818;stroke-width:2.6041666666666665;" x1="36.4583" x2="2409.0625" y1="1172.2287" y2="1172.2287"/><text fill="#000000" font-family="sans-serif" font-size="72.9167" lengthAdjust="spacing" textLength="421.875" x="1011.8229" y="1124.8226">SAVE_INPUT</text><g id="SAVE_INPUT.IMS1"><rect fill="#F1F1F1" height="260.4167" rx="52.0833" ry="52.0833" style="stroke:#181818;stroke-width:2.6041666666666665;" width="260.4167" x="967.9687" y="1526.3954"/><line style="stroke:#181818;stroke-width:2.6041666666666665;" x1="967.9687" x2="1228.3854" y1="1677.7908" y2="1677.7908"/><text fill="#000000" font-family="sans-serif" font-size="72.9167" lengthAdjust="spacing" textLength="20.8333" x="1087.7604" y="1630.3846">&#160;</text></g><g id="SAVE_INPUT.IMS2"><rect fill="#F1F1F1" height="260.4167" rx="52.0833" ry="52.0833" style="stroke:#181818;stroke-width:2.6041666666666665;" width="260.4167" x="967.9687" y="2443.0621"/><line style="stroke:#181818;stroke-width:2.6041666666666665;" x1="967.9687" x2="1228.3854" y1="2594.4575" y2="2594.4575"/><text fill="#000000" font-family="sans-serif" font-size="72.9167" lengthAdjust="spacing" textLength="20.8333" x="1087.7604" y="2547.0513">&#160;</text></g><g id="SAVE_INPUT.IMS3"><rect fill="#F1F1F1" height="260.4167" rx="52.0833" ry="52.0833" style="stroke:#181818;stroke-width:2.6041666666666665;" width="260.4167" x="400.2604" y="3607.1246"/><line style="stroke:#181818;stroke-width:2.6041666666666665;" x1="400.2604" x2="660.6771" y1="3758.52" y2="3758.52"/><text fill="#000000" font-family="sans-serif" font-size="72.9167" lengthAdjust="spacing" textLength="20.8333" x="520.0521" y="3711.1138">&#160;</text></g><g id="elem_IMC1"><polygon fill="#F1F1F1" points="1561.7188,4995.1454,1624.2188,5057.6454,1561.7188,5120.1454,1499.2188,5057.6454,1561.7188,4995.1454" style="stroke:#181818;stroke-width:2.6041666666666665;"/></g><g id="elem_IMC2"><polygon fill="#F1F1F1" points="1098.1771,4396.1871,1160.6771,4458.6871,1098.1771,4521.1871,1035.6771,4458.6871,1098.1771,4396.1871" style="stroke:#181818;stroke-width:2.6041666666666665;"/></g><ellipse cx="1098.1771" cy="1281.6037" fill="#222222" rx="52.0833" ry="52.0833" style="stroke:#222222;stroke-width:5.208333333333333;"/><ellipse cx="1561.7187" cy="5370.1454" fill="none" rx="57.2917" ry="57.2917" style="stroke:#222222;stroke-width:5.208333333333333;"/><ellipse cx="1561.7187" cy="5370.1454" fill="#222222" rx="31.25" ry="31.25" style="stroke:#222222;stroke-width:5.208333333333333;"/><!--link *start*SAVE_INPUT to IMS1--><g id="link_*start*SAVE_INPUT_IMS1"><path d="M1098.1771,1335.9787 C1098.1771,1384.2079 1098.1771,1428.4267 1098.1771,1493.4787 " fill="none" id="*start*SAVE_INPUT-to-IMS1" style="stroke:#181818;stroke-width:5.208333333333333;"/><polygon fill="#181818" points="1098.1771,1524.7287,1119.0104,1477.8537,1098.1771,1498.6871,1077.3438,1477.8537,1098.1771,1524.7287" style="stroke:#181818;stroke-width:5.208333333333333;"/></g><!--link IMS1 to IMS2--><g id="link_IMS1_IMS2"><path d="M1098.1771,1787.8017 C1098.1771,1960.4579 1098.1771,2237.5412 1098.1771,2410.4058 " fill="none" id="IMS1-to-IMS2" style="stroke:#181818;stroke-width:5.208333333333333;"/><polygon fill="#181818" points="1098.1771,2441.6558,1119.0104,2394.7808,1098.1771,2415.6142,1077.3438,2394.7808,1098.1771,2441.6558" style="stroke:#181818;stroke-width:5.208333333333333;"/><path d="M1124.2188,1958.6871 L1124.2188,2271.1871 A52.0833,52.0833 0 0 0 1176.3021,2323.2704 L1749.2188,2323.2704 A52.0833,52.0833 0 0 0 1801.3021,2271.1871 L1801.3021,1958.6871 L1749.2188,1906.6037 L1176.3021,1906.6037 A52.0833,52.0833 0 0 0 1124.2188,1958.6871 " fill="#FEFFDD" style="stroke:#181818;stroke-width:2.6041666666666665;"/><path d="M1749.2188,1906.6037 L1749.2188,1932.6454 A26.0417,26.0417 0 0 0 1775.2604,1958.6871 L1801.3021,1958.6871 L1749.2188,1906.6037 " fill="#FEFFDD" style="stroke:#181818;stroke-width:2.6041666666666665;"/><text fill="#000000" font-family="sans-serif" font-size="67.7083" font-weight="bold" lengthAdjust="spacing" textLength="567.7083" x="1155.4688" y="2005.0257">System requires:</text><ellipse cx="1184.1146" cy="2078.0206" fill="#000000" rx="13.0208" ry="13.0208" style="stroke:#000000;stroke-width:0.0;"/><text fill="#000000" font-family="sans-serif" font-size="67.7083" lengthAdjust="spacing" textLength="187.5" x="1217.9688" y="2097.2445">Name</text><ellipse cx="1184.1146" cy="2170.2394" fill="#000000" rx="13.0208" ry="13.0208" style="stroke:#000000;stroke-width:0.0;"/><text fill="#000000" font-family="sans-serif" font-size="67.7083" lengthAdjust="spacing" textLength="302.0833" x="1217.9688" y="2189.4633">Data type</text><ellipse cx="1184.1146" cy="2262.4582" fill="#000000" rx="13.0208" ry="13.0208" style="stroke:#000000;stroke-width:0.0;"/><text fill="#000000" font-family="sans-serif" font-size="67.7083" lengthAdjust="spacing" textLength="281.25" x="1217.9688" y="2281.6822">Required</text></g><!--link IMS2 to IMS3--><g id="link_IMS2_IMS3"><path d="M966.8229,2594.26 C757.6042,2622.4892 363.6979,2688.8433 280.4688,2797.2287 C93.75,3040.4579 282.5146,3386.3339 416.4729,3579.6672 " fill="none" id="IMS2-to-IMS3" style="stroke:#181818;stroke-width:5.208333333333333;"/><polygon fill="#181818" points="434.2708,3605.3537,424.6984,3554.9587,419.4393,3583.9483,390.4497,3578.6892,434.2708,3605.3537" style="stroke:#181818;stroke-width:5.208333333333333;"/><path d="M306.5104,2875.3537 L306.5104,3099.3121 A52.0833,52.0833 0 0 0 358.5937,3151.3954 L947.1354,3151.3954 A52.0833,52.0833 0 0 0 999.2187,3099.3121 L999.2187,2875.3537 L947.1354,2823.2704 L358.5937,2823.2704 A52.0833,52.0833 0 0 0 306.5104,2875.3537 " fill="#FEFFDD" style="stroke:#181818;stroke-width:2.6041666666666665;"/><path d="M947.1354,2823.2704 L947.1354,2849.3121 A26.0417,26.0417 0 0 0 973.1771,2875.3537 L999.2187,2875.3537 L947.1354,2823.2704 " fill="#FEFFDD" style="stroke:#181818;stroke-width:2.6041666666666665;"/><text fill="#000000" font-family="sans-serif" font-size="67.7083" font-weight="bold" lengthAdjust="spacing" textLength="583.3333" x="337.7604" y="2921.6923">System allows to:</text><ellipse cx="366.4062" cy="2994.6872" fill="#000000" rx="13.0208" ry="13.0208" style="stroke:#000000;stroke-width:0.0;"/><text fill="#000000" font-family="sans-serif" font-size="67.7083" lengthAdjust="spacing" textLength="145.8333" x="400.2604" y="3013.9112">Save</text><ellipse cx="366.4062" cy="3086.9061" fill="#000000" rx="13.0208" ry="13.0208" style="stroke:#000000;stroke-width:0.0;"/><text fill="#000000" font-family="sans-serif" font-size="67.7083" lengthAdjust="spacing" textLength="234.375" x="400.2604" y="3106.13">Update</text></g><!--link IMS3 to IMC2--><g id="link_IMS3_IMC2"><path d="M631.9271,3869.6246 C765.8854,4037.385 974.2963,4298.3867 1051.9005,4395.5222 " fill="none" id="IMS3-to-IMC2" style="stroke:#181818;stroke-width:5.208333333333333;"/><polygon fill="#181818" points="1071.4062,4419.9371,1058.4242,4370.3109,1055.1515,4399.5913,1025.871,4396.3185,1071.4062,4419.9371" style="stroke:#181818;stroke-width:5.208333333333333;"/></g><!--link IMC2 to IMC1--><g id="link_IMC2_IMC1"><path d="M1099.6354,4522.1767 C1105,4613.635 1127.9167,4791.6037 1223.1771,4901.3954 C1299.0625,4988.8954 1405.034,5021.6261 1479.409,5037.147 " fill="none" id="IMC2-to-IMC1" style="stroke:#008000;stroke-width:5.208333333333333;"/><polygon fill="#008000" points="1510,5043.5308,1468.3694,5013.5611,1484.5075,5038.211,1459.8576,5054.3491,1510,5043.5308" style="stroke:#008000;stroke-width:5.208333333333333;"/><path d="M1249.2188,4693.0621 L1249.2188,4823.2704 A52.0833,52.0833 0 0 0 1301.3021,4875.3537 L1874.2188,4875.3537 A52.0833,52.0833 0 0 0 1926.3021,4823.2704 L1926.3021,4693.0621 L1874.2188,4640.9787 L1301.3021,4640.9787 A52.0833,52.0833 0 0 0 1249.2188,4693.0621 " fill="#FEFFDD" style="stroke:#181818;stroke-width:2.6041666666666665;"/><path d="M1874.2188,4640.9787 L1874.2188,4667.0204 A26.0417,26.0417 0 0 0 1900.2604,4693.0621 L1926.3021,4693.0621 L1874.2188,4640.9787 " fill="#FEFFDD" style="stroke:#181818;stroke-width:2.6041666666666665;"/><text fill="#000000" font-family="sans-serif" font-size="67.7083" font-weight="bold" lengthAdjust="spacing" textLength="489.5833" x="1280.4688" y="4739.4007">System shows:</text><text fill="#000000" font-family="sans-serif" font-size="67.7083" lengthAdjust="spacing" textLength="567.7083" x="1280.4688" y="4831.6195">Saved successfully</text></g><!--link IMC2 to IMS2--><g id="link_IMC2_IMS2"><path d="M1098.1771,4393.9475 C1098.1771,4131.4475 1098.1771,3105.5621 1098.1771,2737.1246 " fill="none" id="IMC2-to-IMS2" style="stroke:#FF0000;stroke-width:5.208333333333333;"/><polygon fill="#FF0000" points="1098.1771,2705.8746,1077.3438,2752.7496,1098.1771,2731.9162,1119.0104,2752.7496,1098.1771,2705.8746" style="stroke:#FF0000;stroke-width:5.208333333333333;"/><path d="M1124.2188,3349.3121 L1124.2188,4125.3537 A52.0833,52.0833 0 0 0 1176.3021,4177.4371 L1801.3021,4177.4371 A52.0833,52.0833 0 0 0 1853.3854,4125.3537 L1853.3854,3349.3121 L1801.3021,3297.2287 L1176.3021,3297.2287 A52.0833,52.0833 0 0 0 1124.2188,3349.3121 " fill="#FEFFDD" style="stroke:#181818;stroke-width:2.6041666666666665;"/><path d="M1801.3021,3297.2287 L1801.3021,3323.2704 A26.0417,26.0417 0 0 0 1827.3438,3349.3121 L1853.3854,3349.3121 L1801.3021,3297.2287 " fill="#FEFFDD" style="stroke:#181818;stroke-width:2.6041666666666665;"/><text fill="#000000" font-family="sans-serif" font-size="67.7083" font-weight="bold" lengthAdjust="spacing" textLength="567.7083" x="1155.4688" y="3395.6507">System requires:</text><ellipse cx="1184.1146" cy="3468.6456" fill="#000000" rx="13.0208" ry="13.0208" style="stroke:#000000;stroke-width:0.0;"/><text fill="#000000" font-family="sans-serif" font-size="67.7083" lengthAdjust="spacing" textLength="333.3333" x="1217.9688" y="3487.8695">Valid input</text><text fill="#000000" font-family="sans-serif" font-size="67.7083" lengthAdjust="spacing" textLength="619.7917" x="1155.4688" y="3580.0883">selection for update</text><ellipse cx="1184.1146" cy="3653.0832" fill="#000000" rx="13.0208" ry="13.0208" style="stroke:#000000;stroke-width:0.0;"/><text fill="#000000" font-family="sans-serif" font-size="67.7083" lengthAdjust="spacing" textLength="416.6667" x="1217.9688" y="3672.3072">Name with at</text><text fill="#000000" font-family="sans-serif" font-size="67.7083" lengthAdjust="spacing" textLength="536.4583" x="1155.4688" y="3764.526">least 3 characters</text><ellipse cx="1184.1146" cy="3837.5209" fill="#000000" rx="13.0208" ry="13.0208" style="stroke:#000000;stroke-width:0.0;"/><text fill="#000000" font-family="sans-serif" font-size="67.7083" lengthAdjust="spacing" textLength="307.2917" x="1217.9688" y="3856.7449">Valid data</text><text fill="#000000" font-family="sans-serif" font-size="67.7083" lengthAdjust="spacing" textLength="432.2917" x="1155.4688" y="3948.9637">type selection</text><ellipse cx="1184.1146" cy="4021.9586" fill="#000000" rx="13.0208" ry="13.0208" style="stroke:#000000;stroke-width:0.0;"/><text fill="#000000" font-family="sans-serif" font-size="67.7083" lengthAdjust="spacing" textLength="427.0833" x="1217.9688" y="4041.1825">Required field</text><text fill="#000000" font-family="sans-serif" font-size="67.7083" lengthAdjust="spacing" textLength="526.0417" x="1171.0938" y="4133.4014">must be boolean</text></g><!--link IMC1 to IMS2--><g id="link_IMC1_IMS2"><path d="M1619.0625,5049.5204 C1707.9688,5041.4996 1876.6667,5011.76 1952.3437,4901.3954 C2362.1875,4303.4787 2214.6354,3924.3642 1900.2604,3271.1871 C1756.6146,2972.7496 1445.7235,2766.7844 1257.5464,2661.7323 " fill="none" id="IMC1-to-IMS2" style="stroke:#181818;stroke-width:5.208333333333333;"/><polygon fill="#181818" points="1230.2604,2646.4996,1261.0343,2687.5393,1252.9988,2659.1935,1281.3446,2651.158,1230.2604,2646.4996" style="stroke:#181818;stroke-width:5.208333333333333;"/></g><!--link IMC1 to *end*SAVE_INPUT--><g id="link_IMC1_*end*SAVE_INPUT"><path d="M1561.7187,5122.5412 C1561.7187,5177.5412 1561.7187,5227.2287 1561.7187,5280.1975 " fill="none" id="IMC1-to-*end*SAVE_INPUT" style="stroke:#181818;stroke-width:5.208333333333333;"/><polygon fill="#181818" points="1561.7187,5311.4475,1582.5521,5264.5725,1561.7187,5285.4058,1540.8854,5264.5725,1561.7187,5311.4475" style="stroke:#181818;stroke-width:5.208333333333333;"/></g><path d="M2641.4583,1815.1042 L4210.3125,1815.1042 A52.0833,52.0833 0 0 1 4262.3958,1867.1875 L4262.3958,1966.4996 L2589.375,1966.4996 L2589.375,1867.1875 A52.0833,52.0833 0 0 1 2641.4583,1815.1042 " fill="#F1F1F1" style="stroke:#F1F1F1;stroke-width:5.208333333333333;"/><rect fill="none" height="2870.1454" rx="52.0833" ry="52.0833" style="stroke:#181818;stroke-width:2.6041666666666665;" width="1673.0208" x="2589.375" y="1815.1042"/><line style="stroke:#181818;stroke-width:2.6041666666666665;" x1="2589.375" x2="4262.3958" y1="1966.4996" y2="1966.4996"/><text fill="#000000" font-family="sans-serif" font-size="72.9167" lengthAdjust="spacing" textLength="505.2083" x="3173.2812" y="1919.0934">DELETE_INPUT</text><g id="DELETE_INPUT.DIM1"><rect fill="#F1F1F1" height="260.4167" rx="52.0833" ry="52.0833" style="stroke:#181818;stroke-width:2.6041666666666665;" width="260.4167" x="3639.7396" y="2320.6662"/><line style="stroke:#181818;stroke-width:2.6041666666666665;" x1="3639.7396" x2="3900.1563" y1="2472.0616" y2="2472.0616"/><text fill="#000000" font-family="sans-serif" font-size="72.9167" lengthAdjust="spacing" textLength="20.8333" x="3759.5313" y="2424.6555">&#160;</text></g><g id="DELETE_INPUT.DIM2"><rect fill="#F1F1F1" height="260.4167" rx="52.0833" ry="52.0833" style="stroke:#181818;stroke-width:2.6041666666666665;" width="260.4167" x="2712.6563" y="3148.7912"/><line style="stroke:#181818;stroke-width:2.6041666666666665;" x1="2712.6563" x2="2973.0729" y1="3300.1866" y2="3300.1866"/><text fill="#000000" font-family="sans-serif" font-size="72.9167" lengthAdjust="spacing" textLength="20.8333" x="2832.4479" y="3252.7805">&#160;</text></g><g id="elem_DMC1"><polygon fill="#F1F1F1" points="3535.5729,4200.8746,3598.0729,4263.3746,3535.5729,4325.8746,3473.0729,4263.3746,3535.5729,4200.8746" style="stroke:#181818;stroke-width:2.6041666666666665;"/></g><g id="elem_DMC2"><polygon fill="#F1F1F1" points="3108.4896,3601.9162,3170.9896,3664.4162,3108.4896,3726.9162,3045.9896,3664.4162,3108.4896,3601.9162" style="stroke:#181818;stroke-width:2.6041666666666665;"/></g><ellipse cx="3769.9479" cy="2075.8746" fill="#222222" rx="52.0833" ry="52.0833" style="stroke:#222222;stroke-width:5.208333333333333;"/><ellipse cx="3535.5729" cy="4575.8746" fill="none" rx="57.2917" ry="57.2917" style="stroke:#222222;stroke-width:5.208333333333333;"/><ellipse cx="3535.5729" cy="4575.8746" fill="#222222" rx="31.25" ry="31.25" style="stroke:#222222;stroke-width:5.208333333333333;"/><!--link *start*DELETE_INPUT to DIM1--><g id="link_*start*DELETE_INPUT_DIM1"><path d="M3769.9479,2130.2496 C3769.9479,2178.4787 3769.9479,2222.6975 3769.9479,2287.7496 " fill="none" id="*start*DELETE_INPUT-to-DIM1" style="stroke:#181818;stroke-width:5.208333333333333;"/><polygon fill="#181818" points="3769.9479,2318.9996,3790.7813,2272.1246,3769.9479,2292.9579,3749.1146,2272.1246,3769.9479,2318.9996" style="stroke:#181818;stroke-width:5.208333333333333;"/></g><!--link DIM1 to DIM2--><g id="link_DIM1_DIM2"><path d="M3637.5,2464.5725 C3388.125,2483.5829 2863.9583,2539.0517 2754.3229,2674.8329 C2646.6667,2808.1142 2698.7713,2986.1988 2760.4901,3118.5425 " fill="none" id="DIM1-to-DIM2" style="stroke:#181818;stroke-width:5.208333333333333;"/><polygon fill="#181818" points="2773.6979,3146.8642,2772.7672,3095.5765,2762.6914,3123.2628,2735.0051,3113.1869,2773.6979,3146.8642" style="stroke:#181818;stroke-width:5.208333333333333;"/><path d="M2780.3646,2752.9579 L2780.3646,2976.9162 A52.0833,52.0833 0 0 0 2832.4479,3028.9996 L3618.9063,3028.9996 A52.0833,52.0833 0 0 0 3670.9896,2976.9162 L3670.9896,2752.9579 L3618.9063,2700.8746 L2832.4479,2700.8746 A52.0833,52.0833 0 0 0 2780.3646,2752.9579 " fill="#FEFFDD" style="stroke:#181818;stroke-width:2.6041666666666665;"/><path d="M3618.9063,2700.8746 L3618.9063,2726.9162 A26.0417,26.0417 0 0 0 3644.9479,2752.9579 L3670.9896,2752.9579 L3618.9063,2700.8746 " fill="#FEFFDD" style="stroke:#181818;stroke-width:2.6041666666666665;"/><text fill="#000000" font-family="sans-serif" font-size="67.7083" font-weight="bold" lengthAdjust="spacing" textLength="567.7083" x="2811.6146" y="2799.2965">System requires:</text><ellipse cx="2840.2604" cy="2872.2914" fill="#000000" rx="13.0208" ry="13.0208" style="stroke:#000000;stroke-width:0.0;"/><text fill="#000000" font-family="sans-serif" font-size="67.7083" lengthAdjust="spacing" textLength="656.25" x="2874.1146" y="2891.5153">Confirmation of form</text><text fill="#000000" font-family="sans-serif" font-size="67.7083" lengthAdjust="spacing" textLength="750" x="2842.8646" y="2983.7342">deletion if input is in use</text></g><!--link DIM2 to DMC2--><g id="link_DIM2_DMC2"><path d="M2932.8125,3411.1871 C2985.7812,3485.9787 3030.8907,3549.6479 3065.2136,3598.0854 " fill="none" id="DIM2-to-DMC2" style="stroke:#181818;stroke-width:5.208333333333333;"/><polygon fill="#181818" points="3083.2813,3623.5829,3073.1782,3573.2915,3068.2249,3602.335,3039.1815,3597.3817,3083.2813,3623.5829" style="stroke:#181818;stroke-width:5.208333333333333;"/></g><!--link DMC2 to DMC1--><g id="link_DMC2_DMC1"><path d="M3094.2188,3713.0621 C3069.2708,3797.7496 3028.125,3987.1246 3113.6979,4107.1246 C3197.7083,4224.9371 3351.1477,4249.4552 3445.8352,4255.0281 " fill="none" id="DMC2-to-DMC1" style="stroke:#008000;stroke-width:5.208333333333333;"/><polygon fill="#008000" points="3477.0313,4256.8642,3431.4613,4233.3127,3451.0346,4255.3341,3429.0132,4274.9074,3477.0313,4256.8642" style="stroke:#008000;stroke-width:5.208333333333333;"/><path d="M3139.7396,3898.7912 L3139.7396,4028.9996 A52.0833,52.0833 0 0 0 3191.8229,4081.0829 L3816.8229,4081.0829 A52.0833,52.0833 0 0 0 3868.9063,4028.9996 L3868.9063,3898.7912 L3816.8229,3846.7079 L3191.8229,3846.7079 A52.0833,52.0833 0 0 0 3139.7396,3898.7912 " fill="#FEFFDD" style="stroke:#181818;stroke-width:2.6041666666666665;"/><path d="M3816.8229,3846.7079 L3816.8229,3872.7496 A26.0417,26.0417 0 0 0 3842.8646,3898.7912 L3868.9063,3898.7912 L3816.8229,3846.7079 " fill="#FEFFDD" style="stroke:#181818;stroke-width:2.6041666666666665;"/><text fill="#000000" font-family="sans-serif" font-size="67.7083" font-weight="bold" lengthAdjust="spacing" textLength="489.5833" x="3170.9896" y="3945.1298">System shows:</text><text fill="#000000" font-family="sans-serif" font-size="67.7083" lengthAdjust="spacing" textLength="619.7917" x="3170.9896" y="4037.3487">Deleted successfully</text></g><!--link DMC2 to DIM1--><g id="link_DMC2_DIM1"><path d="M3144.2708,3635.6142 C3250.2604,3563.4267 3563.5417,3333.6871 3697.0313,3055.0412 C3769.4271,2903.8954 3780.3863,2738.9418 3777.9905,2613.0564 " fill="none" id="DMC2-to-DIM1" style="stroke:#FF0000;stroke-width:5.208333333333333;"/><polygon fill="#FF0000" points="3777.3958,2581.8121,3757.4582,2629.075,3777.8914,2607.849,3799.1174,2628.2822,3777.3958,2581.8121" style="stroke:#FF0000;stroke-width:5.208333333333333;"/></g><!--link DMC1 to DIM1--><g id="link_DMC1_DIM1"><path d="M3591.1979,4253.3225 C3673.9062,4242.8017 3826.7708,4209.7287 3894.9479,4107.1246 C4215.5208,3624.6767 3966.2501,2907.5966 3840.3647,2611.8675 " fill="none" id="DMC1-to-DIM1" style="stroke:#181818;stroke-width:5.208333333333333;"/><polygon fill="#181818" points="3828.125,2583.1142,3827.3156,2634.4039,3838.3247,2607.0752,3865.6534,2618.0844,3828.125,2583.1142" style="stroke:#181818;stroke-width:5.208333333333333;"/></g><!--link DMC1 to *end*DELETE_INPUT--><g id="link_DMC1_*end*DELETE_INPUT"><path d="M3535.5729,4328.2704 C3535.5729,4383.2704 3535.5729,4432.9579 3535.5729,4485.9267 " fill="none" id="DMC1-to-*end*DELETE_INPUT" style="stroke:#181818;stroke-width:5.208333333333333;"/><polygon fill="#181818" points="3535.5729,4517.1767,3556.4063,4470.3017,3535.5729,4491.135,3514.7396,4470.3017,3535.5729,4517.1767" style="stroke:#181818;stroke-width:5.208333333333333;"/></g><ellipse cx="2321.7188" cy="5849.3229" fill="none" rx="57.2917" ry="57.2917" style="stroke:#222222;stroke-width:5.208333333333333;"/><ellipse cx="2321.7188" cy="5849.3229" fill="#222222" rx="31.25" ry="31.25" style="stroke:#222222;stroke-width:5.208333333333333;"/><!--link *start* to OPENED_INPUT_MANAGEMENT--><g id="link_*start*_OPENED_INPUT_MANAGEMENT"><path d="M2321.7188,136.7708 C2321.7188,208.0729 2321.7188,312.8646 2321.7188,414.1667 " fill="none" id="*start*-to-OPENED_INPUT_MANAGEMENT" style="stroke:#181818;stroke-width:5.208333333333333;"/><polygon fill="#181818" points="2321.7188,445.4167,2342.5521,398.5417,2321.7188,419.375,2300.8854,398.5417,2321.7188,445.4167" style="stroke:#181818;stroke-width:5.208333333333333;"/></g><!--link OPENED_INPUT_MANAGEMENT to SAVE_INPUT--><g id="link_OPENED_INPUT_MANAGEMENT_SAVE_INPUT"><path d="M2269.4271,709.9479 C2238.125,785.8854 2206.0938,863.3552 2153.8542,989.8656 " fill="none" id="OPENED_INPUT_MANAGEMENT-to-SAVE_INPUT" style="stroke:#181818;stroke-width:5.208333333333333;"/><polygon fill="#181818" points="2141.9271,1018.75,2179.074,983.3749,2151.8664,994.6797,2140.5615,967.472,2141.9271,1018.75" style="stroke:#181818;stroke-width:5.208333333333333;"/></g><!--link OPENED_INPUT_MANAGEMENT to DELETE_INPUT--><g id="link_OPENED_INPUT_MANAGEMENT_DELETE_INPUT"><path d="M2374.2188,709.9479 C2460.9375,918.8542 2631.254,1329.4688 2820.1082,1784.6772 " fill="none" id="OPENED_INPUT_MANAGEMENT-to-DELETE_INPUT" style="stroke:#181818;stroke-width:5.208333333333333;"/><polygon fill="#181818" points="2832.0833,1813.5417,2833.3636,1762.2615,2822.1041,1789.4879,2794.8776,1778.2284,2832.0833,1813.5417" style="stroke:#181818;stroke-width:5.208333333333333;"/></g><!--link SAVE_INPUT to *end*--><g id="link_SAVE_INPUT_*end*"><path d="M2167.7604,5481.4583 C2228.125,5623.6458 2262.7285,5705.1443 2288.1972,5765.0923 " fill="none" id="SAVE_INPUT-to-*end*" style="stroke:#181818;stroke-width:5.208333333333333;"/><polygon fill="#181818" points="2300.4167,5793.8542,2301.2621,5742.565,2290.2338,5769.8859,2262.9129,5758.8576,2300.4167,5793.8542" style="stroke:#181818;stroke-width:5.208333333333333;"/></g><!--link DELETE_INPUT to *end*--><g id="link_DELETE_INPUT_*end*"><path d="M2843.1771,4687.3958 C2731.5104,4951.9271 2613.5417,5224.9479 2498.8021,5479.5312 C2447.3438,5593.6979 2395.9067,5697.4682 2360.7505,5767.1036 " fill="none" id="DELETE_INPUT-to-*end*" style="stroke:#181818;stroke-width:5.208333333333333;"/><polygon fill="#181818" points="2346.6667,5795,2386.39,5762.5446,2358.4032,5771.753,2349.1948,5743.7662,2346.6667,5795" style="stroke:#181818;stroke-width:5.208333333333333;"/></g><!--SRC=[hLHTQzim57tNhxXhtmf9YFCsWY54PWGQhonfNq8eYYqtehAKMj9A6Flla-NlJEtADkC7-rnBv_YUSxMxsSDe5CBNkoYEyECglhlVFguNyU9Bj8xYBKAVc4YuIIcCnvFgDffnDL5KQoQUrFXaSewGqaHJs2mUeceF-870NXMyMc-cG1HSmTKG3Rpep8Skfp2V9qV94Xg6mqhGhxZIhlwhahX2d8GQ2XmYf5qj1N0cdXrGNlD3k3ahJNCew8jX1LMVvvD3sDPl82OvxRrYeWdeywcFVQkMfWwY8dLKhOoWaJ7xY0p2kNnLeEMbZWtvtkUyFwMs6tx6MSsu31h8jcoqktugA1NxgZJzY1Xrj5g6GaePAIYJ95Ifp71-zcge26rFzl_1WWV2MGfCd8o65bQKqqGpkric2p1TEphRu9Nf8v3U8aw9qZ23v4WAacXQgDzeqjBW5YsTxgWydaF6A4_R0kJ64Xme7AIqPCBVd8jajeYDCVhPp1QERgEjRxhmQksPBejwfWk_EKVulJagAIh4aTNGFvcub29ZHKwSPJ8hNSkxFWEajicknhBQQgRi0nZbIxdxMoUhJJc-J3d- -vJZKioVSuw7EQ-wrbIcNIS7I6qoUkC4Tjzqv-gxd_KZWb3lC6vu1Xbgm5y0]--></g></svg>