<?xml version="1.0" encoding="us-ascii" standalone="no"?><svg xmlns="http://www.w3.org/2000/svg" xmlns:xlink="http://www.w3.org/1999/xlink" contentStyleType="text/css" height="5567.7083px" preserveAspectRatio="none" style="width:5296px;height:5567px;background:#FFFFFF;" version="1.1" viewBox="0 0 5296 5567" width="5296.875px" zoomAndPan="magnify"><defs/><g><ellipse cx="2718.125" cy="83.3333" fill="#222222" rx="52.0833" ry="52.0833" style="stroke:#222222;stroke-width:5.208333333333333;"/><g id="OPENED_INPUT_MANAGEMENT"><rect fill="#F1F1F1" height="260.4167" rx="52.0833" ry="52.0833" style="stroke:#181818;stroke-width:2.6041666666666665;" width="1197.9167" x="2119.1667" y="447.9167"/><line style="stroke:#181818;stroke-width:2.6041666666666665;" x1="2119.1667" x2="3317.0833" y1="599.3121" y2="599.3121"/><text fill="#000000" font-family="sans-serif" font-size="72.9167" lengthAdjust="spacing" textLength="1093.75" x="2171.25" y="551.9059">OPENED_INPUT_MANAGEMENT</text></g><path d="M88.5417,1020.8333 L2660.1563,1020.8333 A52.0833,52.0833 0 0 1 2712.2396,1072.9167 L2712.2396,1172.2287 L36.4583,1172.2287 L36.4583,1072.9167 A52.0833,52.0833 0 0 1 88.5417,1020.8333 " fill="#F1F1F1" style="stroke:#F1F1F1;stroke-width:5.208333333333333;"/><rect fill="none" height="4088.8954" rx="52.0833" ry="52.0833" style="stroke:#181818;stroke-width:2.6041666666666665;" width="2675.7813" x="36.4583" y="1020.8333"/><line style="stroke:#181818;stroke-width:2.6041666666666665;" x1="36.4583" x2="2712.2396" y1="1172.2287" y2="1172.2287"/><text fill="#000000" font-family="sans-serif" font-size="72.9167" lengthAdjust="spacing" textLength="421.875" x="1163.4115" y="1124.8226">SAVE_INPUT</text><g id="SAVE_INPUT.IMS1"><rect fill="#F1F1F1" height="260.4167" rx="52.0833" ry="52.0833" style="stroke:#181818;stroke-width:2.6041666666666665;" width="260.4167" x="925.4167" y="1526.3954"/><line style="stroke:#181818;stroke-width:2.6041666666666665;" x1="925.4167" x2="1185.8333" y1="1677.7908" y2="1677.7908"/><text fill="#000000" font-family="sans-serif" font-size="72.9167" lengthAdjust="spacing" textLength="20.8333" x="1045.2083" y="1630.3846">&#160;</text></g><g id="SAVE_INPUT.IMS2"><rect fill="#F1F1F1" height="260.4167" rx="52.0833" ry="52.0833" style="stroke:#181818;stroke-width:2.6041666666666665;" width="260.4167" x="925.4167" y="2443.0621"/><line style="stroke:#181818;stroke-width:2.6041666666666665;" x1="925.4167" x2="1185.8333" y1="2594.4575" y2="2594.4575"/><text fill="#000000" font-family="sans-serif" font-size="72.9167" lengthAdjust="spacing" textLength="20.8333" x="1045.2083" y="2547.0513">&#160;</text></g><g id="SAVE_INPUT.IMS3"><rect fill="#F1F1F1" height="260.4167" rx="52.0833" ry="52.0833" style="stroke:#181818;stroke-width:2.6041666666666665;" width="260.4167" x="357.7083" y="3422.2287"/><line style="stroke:#181818;stroke-width:2.6041666666666665;" x1="357.7083" x2="618.125" y1="3573.6241" y2="3573.6241"/><text fill="#000000" font-family="sans-serif" font-size="72.9167" lengthAdjust="spacing" textLength="20.8333" x="477.5" y="3526.218">&#160;</text></g><g id="elem_IMC1"><polygon fill="#F1F1F1" points="1727.5,4625.3537,1790,4687.8537,1727.5,4750.3537,1665,4687.8537,1727.5,4625.3537" style="stroke:#181818;stroke-width:2.6041666666666665;"/></g><g id="elem_IMC2"><polygon fill="#F1F1F1" points="1055.625,4026.3954,1118.125,4088.8954,1055.625,4151.3954,993.125,4088.8954,1055.625,4026.3954" style="stroke:#181818;stroke-width:2.6041666666666665;"/></g><ellipse cx="1055.625" cy="1281.6037" fill="#222222" rx="52.0833" ry="52.0833" style="stroke:#222222;stroke-width:5.208333333333333;"/><ellipse cx="1727.5" cy="5000.3537" fill="none" rx="57.2917" ry="57.2917" style="stroke:#222222;stroke-width:5.208333333333333;"/><ellipse cx="1727.5" cy="5000.3537" fill="#222222" rx="31.25" ry="31.25" style="stroke:#222222;stroke-width:5.208333333333333;"/><!--link *start*SAVE_INPUT to IMS1--><g id="link_*start*SAVE_INPUT_IMS1"><path d="M1055.625,1335.9787 C1055.625,1384.2079 1055.625,1428.4267 1055.625,1493.4787 " fill="none" id="*start*SAVE_INPUT-to-IMS1" style="stroke:#181818;stroke-width:5.208333333333333;"/><polygon fill="#181818" points="1055.625,1524.7287,1076.4583,1477.8537,1055.625,1498.6871,1034.7917,1477.8537,1055.625,1524.7287" style="stroke:#181818;stroke-width:5.208333333333333;"/></g><!--link IMS1 to IMS2--><g id="link_IMS1_IMS2"><path d="M1055.625,1787.8017 C1055.625,1960.4579 1055.625,2237.5412 1055.625,2410.4058 " fill="none" id="IMS1-to-IMS2" style="stroke:#181818;stroke-width:5.208333333333333;"/><polygon fill="#181818" points="1055.625,2441.6558,1076.4583,2394.7808,1055.625,2415.6142,1034.7917,2394.7808,1055.625,2441.6558" style="stroke:#181818;stroke-width:5.208333333333333;"/><path d="M1081.6667,1958.6871 L1081.6667,2271.1871 A52.0833,52.0833 0 0 0 1133.75,2323.2704 L1706.6667,2323.2704 A52.0833,52.0833 0 0 0 1758.75,2271.1871 L1758.75,1958.6871 L1706.6667,1906.6037 L1133.75,1906.6037 A52.0833,52.0833 0 0 0 1081.6667,1958.6871 " fill="#FEFFDD" style="stroke:#181818;stroke-width:2.6041666666666665;"/><path d="M1706.6667,1906.6037 L1706.6667,1932.6454 A26.0417,26.0417 0 0 0 1732.7083,1958.6871 L1758.75,1958.6871 L1706.6667,1906.6037 " fill="#FEFFDD" style="stroke:#181818;stroke-width:2.6041666666666665;"/><text fill="#000000" font-family="sans-serif" font-size="67.7083" font-weight="bold" lengthAdjust="spacing" textLength="567.7083" x="1112.9167" y="2005.0257">System requires:</text><ellipse cx="1141.5625" cy="2078.0206" fill="#000000" rx="13.0208" ry="13.0208" style="stroke:#000000;stroke-width:0.0;"/><text fill="#000000" font-family="sans-serif" font-size="67.7083" lengthAdjust="spacing" textLength="187.5" x="1175.4167" y="2097.2445">Name</text><ellipse cx="1141.5625" cy="2170.2394" fill="#000000" rx="13.0208" ry="13.0208" style="stroke:#000000;stroke-width:0.0;"/><text fill="#000000" font-family="sans-serif" font-size="67.7083" lengthAdjust="spacing" textLength="302.0833" x="1175.4167" y="2189.4633">Data type</text><ellipse cx="1141.5625" cy="2262.4582" fill="#000000" rx="13.0208" ry="13.0208" style="stroke:#000000;stroke-width:0.0;"/><text fill="#000000" font-family="sans-serif" font-size="67.7083" lengthAdjust="spacing" textLength="281.25" x="1175.4167" y="2281.6822">Required</text></g><!--link IMS2 to IMS3--><g id="link_IMS2_IMS3"><path d="M924.3229,2594.26 C715.1042,2622.4892 321.1458,2688.8433 237.9167,2797.2287 C93.75,2985.0412 238.3561,3235.4296 360.4395,3395.0129 " fill="none" id="IMS2-to-IMS3" style="stroke:#181818;stroke-width:5.208333333333333;"/><polygon fill="#181818" points="379.4271,3419.8329,367.4923,3369.9445,363.6041,3399.1496,334.399,3395.2613,379.4271,3419.8329" style="stroke:#181818;stroke-width:5.208333333333333;"/><path d="M263.9583,2875.3537 L263.9583,3099.3121 A52.0833,52.0833 0 0 0 316.0417,3151.3954 L904.5833,3151.3954 A52.0833,52.0833 0 0 0 956.6667,3099.3121 L956.6667,2875.3537 L904.5833,2823.2704 L316.0417,2823.2704 A52.0833,52.0833 0 0 0 263.9583,2875.3537 " fill="#FEFFDD" style="stroke:#181818;stroke-width:2.6041666666666665;"/><path d="M904.5833,2823.2704 L904.5833,2849.3121 A26.0417,26.0417 0 0 0 930.625,2875.3537 L956.6667,2875.3537 L904.5833,2823.2704 " fill="#FEFFDD" style="stroke:#181818;stroke-width:2.6041666666666665;"/><text fill="#000000" font-family="sans-serif" font-size="67.7083" font-weight="bold" lengthAdjust="spacing" textLength="583.3333" x="295.2083" y="2921.6923">System allows to:</text><ellipse cx="323.8542" cy="2994.6872" fill="#000000" rx="13.0208" ry="13.0208" style="stroke:#000000;stroke-width:0.0;"/><text fill="#000000" font-family="sans-serif" font-size="67.7083" lengthAdjust="spacing" textLength="328.125" x="357.7083" y="3013.9112">Save input</text><ellipse cx="323.8542" cy="3086.9061" fill="#000000" rx="13.0208" ry="13.0208" style="stroke:#000000;stroke-width:0.0;"/><text fill="#000000" font-family="sans-serif" font-size="67.7083" lengthAdjust="spacing" textLength="416.6667" x="357.7083" y="3106.13">Update input</text></g><!--link IMS3 to IMC2--><g id="link_IMS3_IMC2"><path d="M619.5833,3679.6767 C753.2292,3803.4787 927.8689,3965.249 1002.5564,4034.5198 " fill="none" id="IMS3-to-IMC2" style="stroke:#181818;stroke-width:5.208333333333333;"/><polygon fill="#181818" points="1025.4687,4055.7704,1005.2674,4008.6196,1006.3752,4038.0616,976.9332,4039.1694,1025.4687,4055.7704" style="stroke:#181818;stroke-width:5.208333333333333;"/></g><!--link IMC2 to IMC1--><g id="link_IMC2_IMC1"><path d="M1072.6562,4137.8537 C1108.6458,4224.7287 1200.4167,4420.3017 1336.875,4531.6037 C1440.5208,4616.1871 1566.3695,4650.8829 1646.1612,4667.2891 " fill="none" id="IMC2-to-IMC1" style="stroke:#008000;stroke-width:5.208333333333333;"/><polygon fill="#008000" points="1676.7708,4673.5829,1635.0522,4643.7358,1651.2628,4668.3381,1626.6605,4684.5487,1676.7708,4673.5829" style="stroke:#008000;stroke-width:5.208333333333333;"/><path d="M1362.9167,4323.2704 L1362.9167,4453.4787 A52.0833,52.0833 0 0 0 1415,4505.5621 L2243.125,4505.5621 A52.0833,52.0833 0 0 0 2295.2083,4453.4787 L2295.2083,4323.2704 L2243.125,4271.1871 L1415,4271.1871 A52.0833,52.0833 0 0 0 1362.9167,4323.2704 " fill="#FEFFDD" style="stroke:#181818;stroke-width:2.6041666666666665;"/><path d="M2243.125,4271.1871 L2243.125,4297.2287 A26.0417,26.0417 0 0 0 2269.1667,4323.2704 L2295.2083,4323.2704 L2243.125,4271.1871 " fill="#FEFFDD" style="stroke:#181818;stroke-width:2.6041666666666665;"/><text fill="#000000" font-family="sans-serif" font-size="67.7083" font-weight="bold" lengthAdjust="spacing" textLength="489.5833" x="1394.1667" y="4369.609">System shows:</text><text fill="#000000" font-family="sans-serif" font-size="67.7083" lengthAdjust="spacing" textLength="822.9167" x="1394.1667" y="4461.8278">Input operation successful</text></g><!--link IMC2 to IMS2--><g id="link_IMC2_IMS2"><path d="M1055.625,4023.4267 C1055.625,3799.6246 1055.625,3044.26 1055.625,2735.4579 " fill="none" id="IMC2-to-IMS2" style="stroke:#FF0000;stroke-width:5.208333333333333;"/><polygon fill="#FF0000" points="1055.625,2704.2079,1034.7917,2751.0829,1055.625,2730.2496,1076.4583,2751.0829,1055.625,2704.2079" style="stroke:#FF0000;stroke-width:5.208333333333333;"/><path d="M1081.6667,3349.3121 L1081.6667,3755.5621 A52.0833,52.0833 0 0 0 1133.75,3807.6454 L2170.2083,3807.6454 A52.0833,52.0833 0 0 0 2222.2917,3755.5621 L2222.2917,3349.3121 L2170.2083,3297.2287 L1133.75,3297.2287 A52.0833,52.0833 0 0 0 1081.6667,3349.3121 " fill="#FEFFDD" style="stroke:#181818;stroke-width:2.6041666666666665;"/><path d="M2170.2083,3297.2287 L2170.2083,3323.2704 A26.0417,26.0417 0 0 0 2196.25,3349.3121 L2222.2917,3349.3121 L2170.2083,3297.2287 " fill="#FEFFDD" style="stroke:#181818;stroke-width:2.6041666666666665;"/><text fill="#000000" font-family="sans-serif" font-size="67.7083" font-weight="bold" lengthAdjust="spacing" textLength="567.7083" x="1112.9167" y="3395.6507">System requires:</text><ellipse cx="1141.5625" cy="3468.6456" fill="#000000" rx="13.0208" ry="13.0208" style="stroke:#000000;stroke-width:0.0;"/><text fill="#000000" font-family="sans-serif" font-size="67.7083" lengthAdjust="spacing" textLength="968.75" x="1175.4167" y="3487.8695">Valid input selection for update</text><ellipse cx="1141.5625" cy="3560.8644" fill="#000000" rx="13.0208" ry="13.0208" style="stroke:#000000;stroke-width:0.0;"/><text fill="#000000" font-family="sans-serif" font-size="67.7083" lengthAdjust="spacing" textLength="968.75" x="1175.4167" y="3580.0883">Name with at least 3 characters</text><ellipse cx="1141.5625" cy="3653.0832" fill="#000000" rx="13.0208" ry="13.0208" style="stroke:#000000;stroke-width:0.0;"/><text fill="#000000" font-family="sans-serif" font-size="67.7083" lengthAdjust="spacing" textLength="755.2083" x="1175.4167" y="3672.3072">Valid data type selection</text><ellipse cx="1141.5625" cy="3745.3021" fill="#000000" rx="13.0208" ry="13.0208" style="stroke:#000000;stroke-width:0.0;"/><text fill="#000000" font-family="sans-serif" font-size="67.7083" lengthAdjust="spacing" textLength="968.75" x="1175.4167" y="3764.526">Required field must be boolean</text></g><!--link IMC1 to IMS2--><g id="link_IMC1_IMS2"><path d="M1782.8125,4677.0725 C1917.1354,4662.3329 2254.6354,4617.2808 2321.25,4531.6037 C2665.3646,4088.9996 2563.5417,3748.3746 2269.1667,3271.1871 C2020.7813,2868.5829 1476.8893,2685.3319 1217.4102,2617.1028 " fill="none" id="IMC1-to-IMS2" style="stroke:#181818;stroke-width:5.208333333333333;"/><polygon fill="#181818" points="1187.1875,2609.1558,1227.2235,2641.2247,1212.373,2615.7783,1237.8194,2600.9278,1187.1875,2609.1558" style="stroke:#181818;stroke-width:5.208333333333333;"/></g><!--link IMC1 to *end*SAVE_INPUT--><g id="link_IMC1_*end*SAVE_INPUT"><path d="M1727.5,4752.7496 C1727.5,4807.7496 1727.5,4857.4371 1727.5,4910.4058 " fill="none" id="IMC1-to-*end*SAVE_INPUT" style="stroke:#181818;stroke-width:5.208333333333333;"/><polygon fill="#181818" points="1727.5,4941.6558,1748.3333,4894.7808,1727.5,4915.6142,1706.6667,4894.7808,1727.5,4941.6558" style="stroke:#181818;stroke-width:5.208333333333333;"/></g><path d="M2944.5313,1677.0833 L5189.6354,1677.0833 A52.0833,52.0833 0 0 1 5241.7188,1729.1667 L5241.7188,1828.4787 L2892.4479,1828.4787 L2892.4479,1729.1667 A52.0833,52.0833 0 0 1 2944.5313,1677.0833 " fill="#F1F1F1" style="stroke:#F1F1F1;stroke-width:5.208333333333333;"/><rect fill="none" height="2776.3954" rx="52.0833" ry="52.0833" style="stroke:#181818;stroke-width:2.6041666666666665;" width="2349.2708" x="2892.4479" y="1677.0833"/><line style="stroke:#181818;stroke-width:2.6041666666666665;" x1="2892.4479" x2="5241.7188" y1="1828.4787" y2="1828.4787"/><text fill="#000000" font-family="sans-serif" font-size="72.9167" lengthAdjust="spacing" textLength="505.2083" x="3814.4792" y="1781.0726">DELETE_INPUT</text><g id="DELETE_INPUT.DIM1"><rect fill="#F1F1F1" height="260.4167" rx="52.0833" ry="52.0833" style="stroke:#181818;stroke-width:2.6041666666666665;" width="260.4167" x="4622.3958" y="2182.6454"/><line style="stroke:#181818;stroke-width:2.6041666666666665;" x1="4622.3958" x2="4882.8125" y1="2334.0408" y2="2334.0408"/><text fill="#000000" font-family="sans-serif" font-size="72.9167" lengthAdjust="spacing" textLength="20.8333" x="4742.1875" y="2286.6346">&#160;</text></g><g id="DELETE_INPUT.DIM2"><rect fill="#F1F1F1" height="260.4167" rx="52.0833" ry="52.0833" style="stroke:#181818;stroke-width:2.6041666666666665;" width="260.4167" x="3122.3958" y="2917.0204"/><line style="stroke:#181818;stroke-width:2.6041666666666665;" x1="3122.3958" x2="3382.8125" y1="3068.4158" y2="3068.4158"/><text fill="#000000" font-family="sans-serif" font-size="72.9167" lengthAdjust="spacing" textLength="20.8333" x="3242.1875" y="3021.0096">&#160;</text></g><g id="elem_DMC1"><polygon fill="#F1F1F1" points="4429.6875,3969.1037,4492.1875,4031.6037,4429.6875,4094.1037,4367.1875,4031.6037,4429.6875,3969.1037" style="stroke:#181818;stroke-width:2.6041666666666665;"/></g><g id="elem_DMC2"><polygon fill="#F1F1F1" points="3908.8542,3370.1454,3971.3542,3432.6454,3908.8542,3495.1454,3846.3542,3432.6454,3908.8542,3370.1454" style="stroke:#181818;stroke-width:2.6041666666666665;"/></g><ellipse cx="4752.6042" cy="1937.8537" fill="#222222" rx="52.0833" ry="52.0833" style="stroke:#222222;stroke-width:5.208333333333333;"/><ellipse cx="4429.6875" cy="4344.1037" fill="none" rx="57.2917" ry="57.2917" style="stroke:#222222;stroke-width:5.208333333333333;"/><ellipse cx="4429.6875" cy="4344.1037" fill="#222222" rx="31.25" ry="31.25" style="stroke:#222222;stroke-width:5.208333333333333;"/><!--link *start*DELETE_INPUT to DIM1--><g id="link_*start*DELETE_INPUT_DIM1"><path d="M4752.6042,1992.2287 C4752.6042,2040.4579 4752.6042,2084.6767 4752.6042,2149.7287 " fill="none" id="*start*DELETE_INPUT-to-DIM1" style="stroke:#181818;stroke-width:5.208333333333333;"/><polygon fill="#181818" points="4752.6042,2180.9787,4773.4375,2134.1037,4752.6042,2154.9371,4731.7708,2134.1037,4752.6042,2180.9787" style="stroke:#181818;stroke-width:5.208333333333333;"/></g><!--link DIM1 to DIM2--><g id="link_DIM1_DIM2"><path d="M4620.3125,2324.9892 C4235.7292,2346.4996 3138.5938,2417.9058 3033.8542,2536.8121 C2949.7396,2632.3329 2985.1562,2705.6662 3033.8542,2823.2704 C3052.7604,2868.8954 3063.8454,2888.3116 3099.1058,2922.2699 " fill="none" id="DIM1-to-DIM2" style="stroke:#181818;stroke-width:5.208333333333333;"/><polygon fill="#181818" points="3121.6146,2943.9475,3102.3031,2896.4253,3102.8573,2925.8828,3073.3997,2926.437,3121.6146,2943.9475" style="stroke:#181818;stroke-width:5.208333333333333;"/><path d="M3059.8958,2614.9371 L3059.8958,2745.1454 A52.0833,52.0833 0 0 0 3111.9792,2797.2287 L4601.5625,2797.2287 A52.0833,52.0833 0 0 0 4653.6458,2745.1454 L4653.6458,2614.9371 L4601.5625,2562.8537 L3111.9792,2562.8537 A52.0833,52.0833 0 0 0 3059.8958,2614.9371 " fill="#FEFFDD" style="stroke:#181818;stroke-width:2.6041666666666665;"/><path d="M4601.5625,2562.8537 L4601.5625,2588.8954 A26.0417,26.0417 0 0 0 4627.6042,2614.9371 L4653.6458,2614.9371 L4601.5625,2562.8537 " fill="#FEFFDD" style="stroke:#181818;stroke-width:2.6041666666666665;"/><text fill="#000000" font-family="sans-serif" font-size="67.7083" font-weight="bold" lengthAdjust="spacing" textLength="567.7083" x="3091.1458" y="2661.2757">System requires:</text><ellipse cx="3119.7917" cy="2734.2706" fill="#000000" rx="13.0208" ry="13.0208" style="stroke:#000000;stroke-width:0.0;"/><text fill="#000000" font-family="sans-serif" font-size="67.7083" lengthAdjust="spacing" textLength="1421.875" x="3153.6458" y="2753.4945">Confirmation of form deletion if input is in use</text></g><!--link DIM2 to DMC2--><g id="link_DIM2_DMC2"><path d="M3385.4167,3128.3225 C3537.5,3215.1975 3750.3646,3336.8856 3843.2813,3389.9585 " fill="none" id="DIM2-to-DMC2" style="stroke:#181818;stroke-width:5.208333333333333;"/><polygon fill="#181818" points="3870.4167,3405.4579,3840.0465,3364.1185,3847.8038,3392.5417,3819.3806,3400.299,3870.4167,3405.4579" style="stroke:#181818;stroke-width:5.208333333333333;"/></g><!--link DMC2 to DMC1--><g id="link_DMC2_DMC1"><path d="M3893.5417,3483.0621 C3867.5,3569.2079 3825.4688,3758.5308 3914.0625,3875.3537 C4021.1458,4016.5517 4222.087,4031.8205 4334.6391,4030.1017 " fill="none" id="DMC2-to-DMC1" style="stroke:#008000;stroke-width:5.208333333333333;"/><polygon fill="#008000" points="4365.8854,4029.6246,4318.6978,4009.5094,4339.8468,4030.0222,4319.334,4051.1712,4365.8854,4029.6246" style="stroke:#008000;stroke-width:5.208333333333333;"/><path d="M3940.1042,3667.0204 L3940.1042,3797.2287 A52.0833,52.0833 0 0 0 3992.1875,3849.3121 L4799.4792,3849.3121 A52.0833,52.0833 0 0 0 4851.5625,3797.2287 L4851.5625,3667.0204 L4799.4792,3614.9371 L3992.1875,3614.9371 A52.0833,52.0833 0 0 0 3940.1042,3667.0204 " fill="#FEFFDD" style="stroke:#181818;stroke-width:2.6041666666666665;"/><path d="M4799.4792,3614.9371 L4799.4792,3640.9787 A26.0417,26.0417 0 0 0 4825.5208,3667.0204 L4851.5625,3667.0204 L4799.4792,3614.9371 " fill="#FEFFDD" style="stroke:#181818;stroke-width:2.6041666666666665;"/><text fill="#000000" font-family="sans-serif" font-size="67.7083" font-weight="bold" lengthAdjust="spacing" textLength="489.5833" x="3971.3542" y="3713.359">System shows:</text><text fill="#000000" font-family="sans-serif" font-size="67.7083" lengthAdjust="spacing" textLength="802.0833" x="3971.3542" y="3805.5778">Input deleted successfully</text></g><!--link DMC2 to DIM1--><g id="link_DMC2_DIM1"><path d="M3949.5833,3409.4162 C4081.25,3348.7912 4497.3958,3138.2183 4679.6875,2823.2704 C4746.7188,2707.4371 4760.158,2583.739 4759.7934,2476.1348 " fill="none" id="DMC2-to-DIM1" style="stroke:#FF0000;stroke-width:5.208333333333333;"/><polygon fill="#FF0000" points="4759.6875,2444.885,4739.0131,2491.8303,4759.7757,2470.9265,4780.6795,2491.6891,4759.6875,2444.885" style="stroke:#FF0000;stroke-width:5.208333333333333;"/></g><!--link DMC1 to DIM1--><g id="link_DMC1_DIM1"><path d="M4490.2604,4026.5517 C4590.3646,4023.1662 4788.125,3999.9892 4877.6042,3875.3537 C5194.8437,3433.635 4951.1354,2757.1599 4825.0416,2472.212 " fill="none" id="DMC1-to-DIM1" style="stroke:#181818;stroke-width:5.208333333333333;"/><polygon fill="#181818" points="4812.3958,2443.635,4812.3131,2494.9311,4822.934,2467.4492,4850.4158,2478.07,4812.3958,2443.635" style="stroke:#181818;stroke-width:5.208333333333333;"/></g><!--link DMC1 to *end*DELETE_INPUT--><g id="link_DMC1_*end*DELETE_INPUT"><path d="M4429.6875,4096.4996 C4429.6875,4151.4996 4429.6875,4201.1871 4429.6875,4254.1558 " fill="none" id="DMC1-to-*end*DELETE_INPUT" style="stroke:#181818;stroke-width:5.208333333333333;"/><polygon fill="#181818" points="4429.6875,4285.4058,4450.5208,4238.5308,4429.6875,4259.3642,4408.8542,4238.5308,4429.6875,4285.4058" style="stroke:#181818;stroke-width:5.208333333333333;"/></g><ellipse cx="2718.125" cy="5479.5312" fill="none" rx="57.2917" ry="57.2917" style="stroke:#222222;stroke-width:5.208333333333333;"/><ellipse cx="2718.125" cy="5479.5312" fill="#222222" rx="31.25" ry="31.25" style="stroke:#222222;stroke-width:5.208333333333333;"/><!--link *start* to OPENED_INPUT_MANAGEMENT--><g id="link_*start*_OPENED_INPUT_MANAGEMENT"><path d="M2718.125,136.7708 C2718.125,208.0729 2718.125,312.8646 2718.125,414.1667 " fill="none" id="*start*-to-OPENED_INPUT_MANAGEMENT" style="stroke:#181818;stroke-width:5.208333333333333;"/><polygon fill="#181818" points="2718.125,445.4167,2738.9583,398.5417,2718.125,419.375,2697.2917,398.5417,2718.125,445.4167" style="stroke:#181818;stroke-width:5.208333333333333;"/></g><!--link OPENED_INPUT_MANAGEMENT to SAVE_INPUT--><g id="link_OPENED_INPUT_MANAGEMENT_SAVE_INPUT"><path d="M2649.6354,709.5833 C2608.1771,785.9896 2564.9537,865.6047 2496.1517,992.4276 " fill="none" id="OPENED_INPUT_MANAGEMENT-to-SAVE_INPUT" style="stroke:#181818;stroke-width:5.208333333333333;"/><polygon fill="#181818" points="2481.25,1019.8958,2521.9146,988.6279,2493.668,997.0056,2485.2903,968.7591,2481.25,1019.8958" style="stroke:#181818;stroke-width:5.208333333333333;"/></g><!--link OPENED_INPUT_MANAGEMENT to DELETE_INPUT--><g id="link_OPENED_INPUT_MANAGEMENT_DELETE_INPUT"><path d="M2786.8229,709.5833 C2889.9479,898.8542 3080.7821,1249.2752 3297.7613,1647.6606 " fill="none" id="OPENED_INPUT_MANAGEMENT-to-DELETE_INPUT" style="stroke:#181818;stroke-width:5.208333333333333;"/><polygon fill="#181818" points="3312.7083,1675.1042,3308.5835,1623.9741,3300.2525,1652.2345,3271.9921,1643.9035,3312.7083,1675.1042" style="stroke:#181818;stroke-width:5.208333333333333;"/></g><!--link SAVE_INPUT to *end*--><g id="link_SAVE_INPUT_*end*"><path d="M2515.4688,5111.8229 C2596.4063,5256.6667 2643.9894,5341.6704 2677.0102,5400.8371 " fill="none" id="SAVE_INPUT-to-*end*" style="stroke:#181818;stroke-width:5.208333333333333;"/><polygon fill="#181818" points="2692.2396,5428.125,2687.5875,5377.0403,2679.5485,5405.3851,2651.2036,5397.346,2692.2396,5428.125" style="stroke:#181818;stroke-width:5.208333333333333;"/></g><!--link DELETE_INPUT to *end*--><g id="link_DELETE_INPUT_*end*"><path d="M3290.1563,4454.8958 C3045.3646,4891.1458 2834.3058,5267.2803 2759.41,5400.7178 " fill="none" id="DELETE_INPUT-to-*end*" style="stroke:#181818;stroke-width:5.208333333333333;"/><polygon fill="#181818" points="2744.1146,5427.9687,2785.225,5397.2893,2756.8608,5405.2596,2748.8904,5376.8954,2744.1146,5427.9687" style="stroke:#181818;stroke-width:5.208333333333333;"/></g><!--SRC=[hPHHQzim4CVV_IbktLiX2N7UHWY4s8p0ufKbxKi8HR7FZPWiUPQq4iQ- -sJ9ZkrKBONEv27-dQNxw-v_sjyUO3HQmFUxE8cZntLoTxzxt2oJvTTu4oUx8FX4USfqXZ0UJznFAyhaHA9Ib3_9SQaB5WHI4OMmNJx4RW_u4u1v75vljbCW4cxWPaX3Bvtvw6eAytbw4ZJ5nM8O2ViH6zetfweJEs8bD2YqX0kpMd1WbF-qe7xcnyNsB1KMKE4lJIkKN-QJu-8IluM45DXxZOWYeCvbd_rmIpEBa6SsrKL6sCgOlKS6OKmyIr3YMiUM_4QWlDIg1-_BhAv9XrzadpNPLs6BJFb6-yzF5I8_kD3qFSBaoUWQYbhNQK6KM155pKgfqnIbp3NpQd69JPqE_w4j3uJHp1qS939ChO9SLA1jJQuw2CzKdO0eO4YaWXca9rAHL64bNsoQjItkDlOq6tAAB8D2c-sE24SXpDRSV_0h9rw8iMtmjvsbAFuMxtpJ5Aqtdcaor3DDqQjp4xqrDtKAHsoo1dseGIl1SreLpXaYhrjJG6OAQW7DczvHQVw0bkYfd3sYrNAnRtHjt-YZzhMIJ3ixyxApJylGlgvWRMJQ5N50clu6hroszflk2dtpixuxWg1txxPv1lPfuJy0]--></g></svg>