<?xml version="1.0" encoding="us-ascii" standalone="no"?><svg xmlns="http://www.w3.org/2000/svg" xmlns:xlink="http://www.w3.org/1999/xlink" contentStyleType="text/css" height="2338.5417px" preserveAspectRatio="none" style="width:1359px;height:2338px;background:#FFFFFF;" version="1.1" viewBox="0 0 1359 2338" width="1359.375px" zoomAndPan="magnify"><defs/><g><!--class FormStructure--><g id="elem_FormStructure"><rect codeLine="5" fill="#F1F1F1" height="547.9362" id="FormStructure" rx="52.0833" ry="52.0833" style="stroke:#181818;stroke-width:2.6041666666666665;" width="781.25" x="309.8958" y="697.9167"/><ellipse cx="437.2396" cy="781.25" fill="#ADD1B2" rx="57.2917" ry="57.2917" style="stroke:#181818;stroke-width:5.208333333333333;"/><path d="M434.4727,817.3014 Q425.3581,817.3014 419.4173,813.4766 Q413.5579,809.5703 410.6283,802.5716 Q407.7799,795.4915 407.7799,786.1328 Q407.7799,775.5534 411.1979,767.985 Q414.6159,760.4167 421.2891,756.3477 Q427.9622,752.2786 437.7279,752.2786 Q442.3665,752.2786 445.8659,753.2552 Q449.3652,754.1504 452.946,755.9408 L448.7142,766.4388 Q445.459,764.8112 442.6107,764.1602 Q439.8438,763.5091 437.321,763.5091 Q431.2174,763.5091 427.5553,766.276 Q423.8932,769.043 422.347,774.0072 Q420.8008,778.9714 420.8008,785.5632 Q420.8008,796.0612 424.5443,801.1068 Q428.2878,806.071 436.5885,806.071 Q439.681,806.071 442.9362,805.2572 Q446.1914,804.4434 450.5046,802.4902 L450.5046,814.0462 Q446.6797,815.6738 442.5293,816.4876 Q438.4603,817.3014 434.4727,817.3014 Z " fill="#000000"/><text fill="#000000" font-family="sans-serif" font-size="72.9167" lengthAdjust="spacing" textLength="505.2083" x="521.0938" y="809.5415">FormStructure</text><line style="stroke:#181818;stroke-width:2.6041666666666665;" x1="315.1042" x2="1085.9375" y1="864.5833" y2="864.5833"/><ellipse cx="367.1875" cy="942.8852" fill="none" rx="15.625" ry="15.625" style="stroke:#038048;stroke-width:5.208333333333333;"/><text fill="#000000" font-family="sans-serif" font-size="72.9167" lengthAdjust="spacing" textLength="317.7083" x="414.0625" y="963.3642">id: string</text><ellipse cx="367.1875" cy="1042.1973" fill="none" rx="15.625" ry="15.625" style="stroke:#038048;stroke-width:5.208333333333333;"/><text fill="#000000" font-family="sans-serif" font-size="72.9167" lengthAdjust="spacing" textLength="447.9167" x="414.0625" y="1062.6763">name: string</text><ellipse cx="367.1875" cy="1141.5093" fill="none" rx="15.625" ry="15.625" style="stroke:#038048;stroke-width:5.208333333333333;"/><text fill="#000000" font-family="sans-serif" font-size="72.9167" lengthAdjust="spacing" textLength="645.8333" x="414.0625" y="1161.9884">description: string</text><line style="stroke:#181818;stroke-width:2.6041666666666665;" x1="315.1042" x2="1085.9375" y1="1204.1862" y2="1204.1862"/></g><!--class Input--><g id="elem_Input"><rect codeLine="11" fill="#F1F1F1" height="647.2483" id="Input" rx="52.0833" ry="52.0833" style="stroke:#181818;stroke-width:2.6041666666666665;" width="765.625" x="317.7083" y="1657.3438"/><ellipse cx="582.0313" cy="1740.6771" fill="#ADD1B2" rx="57.2917" ry="57.2917" style="stroke:#181818;stroke-width:5.208333333333333;"/><path d="M579.2643,1776.7285 Q570.1497,1776.7285 564.209,1772.9036 Q558.3496,1768.9974 555.4199,1761.9987 Q552.5716,1754.9186 552.5716,1745.5599 Q552.5716,1734.9805 555.9896,1727.4121 Q559.4076,1719.8438 566.0807,1715.7747 Q572.7539,1711.7057 582.5195,1711.7057 Q587.1582,1711.7057 590.6576,1712.6823 Q594.1569,1713.5775 597.7376,1715.3678 L593.5059,1725.8659 Q590.2507,1724.2383 587.4023,1723.5872 Q584.6354,1722.9362 582.1126,1722.9362 Q576.0091,1722.9362 572.347,1725.7031 Q568.6849,1728.4701 567.1387,1733.4342 Q565.5924,1738.3984 565.5924,1744.9902 Q565.5924,1755.4883 569.3359,1760.5339 Q573.0794,1765.498 581.3802,1765.498 Q584.4727,1765.498 587.7279,1764.6842 Q590.9831,1763.8704 595.2962,1761.9173 L595.2962,1773.4733 Q591.4714,1775.1009 587.321,1775.9147 Q583.252,1776.7285 579.2643,1776.7285 Z " fill="#000000"/><text fill="#000000" font-family="sans-serif" font-size="72.9167" lengthAdjust="spacing" textLength="192.7083" x="688.8021" y="1768.9686">Input</text><line style="stroke:#181818;stroke-width:2.6041666666666665;" x1="322.9167" x2="1078.125" y1="1824.0104" y2="1824.0104"/><ellipse cx="375" cy="1902.3123" fill="none" rx="15.625" ry="15.625" style="stroke:#038048;stroke-width:5.208333333333333;"/><text fill="#000000" font-family="sans-serif" font-size="72.9167" lengthAdjust="spacing" textLength="317.7083" x="421.875" y="1922.7913">id: string</text><ellipse cx="375" cy="2001.6244" fill="none" rx="15.625" ry="15.625" style="stroke:#038048;stroke-width:5.208333333333333;"/><text fill="#000000" font-family="sans-serif" font-size="72.9167" lengthAdjust="spacing" textLength="447.9167" x="421.875" y="2022.1034">name: string</text><ellipse cx="375" cy="2100.9364" fill="none" rx="15.625" ry="15.625" style="stroke:#038048;stroke-width:5.208333333333333;"/><text fill="#000000" font-family="sans-serif" font-size="72.9167" lengthAdjust="spacing" textLength="572.9167" x="421.875" y="2121.4155">dataType: string</text><ellipse cx="375" cy="2200.2485" fill="none" rx="15.625" ry="15.625" style="stroke:#038048;stroke-width:5.208333333333333;"/><text fill="#000000" font-family="sans-serif" font-size="72.9167" lengthAdjust="spacing" textLength="630.2083" x="421.875" y="2220.7275">required: boolean</text><line style="stroke:#181818;stroke-width:2.6041666666666665;" x1="322.9167" x2="1078.125" y1="2262.9254" y2="2262.9254"/></g><!--class FormBuilder--><g id="elem_FormBuilder"><rect fill="#F1F1F1" height="250" id="FormBuilder" rx="52.0833" ry="52.0833" style="stroke:#181818;stroke-width:2.6041666666666665;" width="598.9583" x="36.4583" y="36.4583"/><ellipse cx="114.5833" cy="119.7917" fill="#ADD1B2" rx="57.2917" ry="57.2917" style="stroke:#181818;stroke-width:5.208333333333333;"/><path d="M111.8164,155.8431 Q102.7018,155.8431 96.7611,152.0182 Q90.9017,148.112 87.972,141.1133 Q85.1237,134.0332 85.1237,124.6745 Q85.1237,114.0951 88.5417,106.5267 Q91.9596,98.9583 98.6328,94.8893 Q105.306,90.8203 115.0716,90.8203 Q119.7103,90.8203 123.2096,91.7969 Q126.709,92.6921 130.2897,94.4824 L126.0579,104.9805 Q122.8027,103.3529 119.9544,102.7018 Q117.1875,102.0508 114.6647,102.0508 Q108.5612,102.0508 104.8991,104.8177 Q101.237,107.5846 99.6908,112.5488 Q98.1445,117.513 98.1445,124.1048 Q98.1445,134.6029 101.888,139.6484 Q105.6315,144.6126 113.9323,144.6126 Q117.0247,144.6126 120.2799,143.7988 Q123.5352,142.985 127.8483,141.0319 L127.8483,152.5879 Q124.0234,154.2155 119.873,155.0293 Q115.804,155.8431 111.8164,155.8431 Z " fill="#000000"/><text fill="#000000" font-family="sans-serif" font-size="72.9167" lengthAdjust="spacing" textLength="432.2917" x="187.5" y="148.0832">FormBuilder</text><line style="stroke:#181818;stroke-width:2.6041666666666665;" x1="41.6667" x2="630.2083" y1="203.125" y2="203.125"/><line style="stroke:#181818;stroke-width:2.6041666666666665;" x1="41.6667" x2="630.2083" y1="244.7917" y2="244.7917"/></g><!--class FormData--><g id="elem_FormData"><rect fill="#F1F1F1" height="250" id="FormData" rx="52.0833" ry="52.0833" style="stroke:#181818;stroke-width:2.6041666666666665;" width="505.2083" x="817.7083" y="36.4583"/><ellipse cx="895.8333" cy="119.7917" fill="#ADD1B2" rx="57.2917" ry="57.2917" style="stroke:#181818;stroke-width:5.208333333333333;"/><path d="M893.0664,155.8431 Q883.9518,155.8431 878.0111,152.0182 Q872.1517,148.112 869.222,141.1133 Q866.3737,134.0332 866.3737,124.6745 Q866.3737,114.0951 869.7917,106.5267 Q873.2096,98.9583 879.8828,94.8893 Q886.556,90.8203 896.3216,90.8203 Q900.9603,90.8203 904.4596,91.7969 Q907.959,92.6921 911.5397,94.4824 L907.3079,104.9805 Q904.0527,103.3529 901.2044,102.7018 Q898.4375,102.0508 895.9147,102.0508 Q889.8112,102.0508 886.1491,104.8177 Q882.487,107.5846 880.9408,112.5488 Q879.3945,117.513 879.3945,124.1048 Q879.3945,134.6029 883.138,139.6484 Q886.8815,144.6126 895.1823,144.6126 Q898.2747,144.6126 901.5299,143.7988 Q904.7852,142.985 909.0983,141.0319 L909.0983,152.5879 Q905.2734,154.2155 901.123,155.0293 Q897.054,155.8431 893.0664,155.8431 Z " fill="#000000"/><text fill="#000000" font-family="sans-serif" font-size="72.9167" lengthAdjust="spacing" textLength="338.5417" x="968.75" y="148.0832">FormData</text><line style="stroke:#181818;stroke-width:2.6041666666666665;" x1="822.9167" x2="1317.7083" y1="203.125" y2="203.125"/><line style="stroke:#181818;stroke-width:2.6041666666666665;" x1="822.9167" x2="1317.7083" y1="244.7917" y2="244.7917"/></g><!--link FormBuilder to FormStructure--><g id="link_FormBuilder_FormStructure"><path codeLine="18" d="M417.2268,345.0468 C466.4455,453.0155 501.2665,529.4252 564.3394,667.9147 " fill="none" id="FormBuilder-FormStructure" style="stroke:#181818;stroke-width:5.208333333333333;"/><polygon fill="#181818" points="391.3021,288.1771,385.3079,325.2535,417.2268,345.0468,423.221,307.9704,391.3021,288.1771" style="stroke:#181818;stroke-width:5.208333333333333;"/><polygon fill="#181818" points="577.2917,696.3542,576.8228,645.0602,566.4981,672.6546,538.9036,662.3299,577.2917,696.3542" style="stroke:#181818;stroke-width:5.208333333333333;"/><text fill="#000000" font-family="sans-serif" font-size="67.7083" lengthAdjust="spacing" textLength="119.7917" x="501.6146" y="520.2969">1..N</text></g><!--link FormStructure to Input--><g id="link_FormStructure_Input"><path codeLine="19" d="M700.5208,1309.8438 C700.5208,1435.7813 700.5208,1492.7604 700.5208,1624.375 " fill="none" id="FormStructure-Input" style="stroke:#181818;stroke-width:5.208333333333333;"/><polygon fill="#181818" points="700.5208,1247.3438,679.6875,1278.5938,700.5208,1309.8438,721.3542,1278.5938,700.5208,1247.3438" style="stroke:#181818;stroke-width:5.208333333333333;"/><polygon fill="#181818" points="700.5208,1655.625,721.3542,1608.75,700.5208,1629.5833,679.6875,1608.75,700.5208,1655.625" style="stroke:#181818;stroke-width:5.208333333333333;"/><text fill="#000000" font-family="sans-serif" font-size="67.7083" lengthAdjust="spacing" textLength="119.7917" x="705.7292" y="1479.724">1..N</text></g><!--link FormData to FormStructure--><g id="link_FormData_FormStructure"><path codeLine="20" d="M1014.1667,288.1771 C964.2187,396.1458 902.5903,529.498 838.5799,667.9876 " fill="none" id="FormData-to-FormStructure" style="stroke:#181818;stroke-width:5.208333333333333;"/><polygon fill="#181818" points="825.4688,696.3542,864.0465,662.5451,836.3947,672.7154,826.2244,645.0636,825.4688,696.3542" style="stroke:#181818;stroke-width:5.208333333333333;"/><text fill="#000000" font-family="sans-serif" font-size="67.7083" lengthAdjust="spacing" textLength="104.1667" x="945.3646" y="520.2969">1..1</text></g><!--SRC=[bK-z2W8n3DxlAUgcA7UxcwA2WnweYvF4DaYWrzOq7KHyTtkAuWyEPWb9lfzy7NBQ9eEgBAiaP6EbWGqvi2IdCgJ65fqlI4GHSeTulnVQGengvhbP2oSjYL6T2vMhJsQeed06tsS73Rvl34RD58IyUnuk3ysv2qd-q0A1pIbyR1cFYHWpU- -zHN0tVTy47wcrNQ65jdVR1ED4rY0FtkCCLBsSxZRrRZ5QRdi_oI_us-SVj9p8Qu8lsYI__SimjzuL]--></g></svg>