<?xml version="1.0" encoding="us-ascii" standalone="no"?><svg xmlns="http://www.w3.org/2000/svg" xmlns:xlink="http://www.w3.org/1999/xlink" contentStyleType="text/css" height="284px" preserveAspectRatio="none" style="width:555px;height:284px;background:#FFFFFF;" version="1.1" viewBox="0 0 555 284" width="555px" zoomAndPan="magnify"><defs/><g><!--cluster Client--><g id="cluster_Client"><polygon fill="none" points="55.5,16,65.5,6,199.5,6,199.5,123.14,189.5,133.14,55.5,133.14,55.5,16" style="stroke:#181818;stroke-width:1.0;"/><line style="stroke:#181818;stroke-width:1.0;" x1="189.5" x2="199.5" y1="16" y2="6"/><line style="stroke:#181818;stroke-width:1.0;" x1="55.5" x2="189.5" y1="16" y2="16"/><line style="stroke:#181818;stroke-width:1.0;" x1="189.5" x2="189.5" y1="16" y2="133.14"/><text fill="#000000" font-family="sans-serif" font-size="14" font-weight="bold" lengthAdjust="spacing" textLength="40" x="103.5" y="33.9659">Client</text></g><!--cluster Server--><g id="cluster_Server"><polygon fill="none" points="223.5,16,233.5,6,538.5,6,538.5,257.74,528.5,267.74,223.5,267.74,223.5,16" style="stroke:#181818;stroke-width:1.0;"/><line style="stroke:#181818;stroke-width:1.0;" x1="528.5" x2="538.5" y1="16" y2="6"/><line style="stroke:#181818;stroke-width:1.0;" x1="223.5" x2="528.5" y1="16" y2="16"/><line style="stroke:#181818;stroke-width:1.0;" x1="528.5" x2="528.5" y1="16" y2="267.74"/><text fill="#000000" font-family="sans-serif" font-size="14" font-weight="bold" lengthAdjust="spacing" textLength="44" x="355" y="33.9659">Server</text></g><!--entity Angular--><g id="elem_Angular"><rect fill="#F1F1F1" height="68.1358" rx="2.5" ry="2.5" style="stroke:#181818;stroke-width:0.5;" width="111" x="72" y="49"/><rect fill="#F1F1F1" height="10" style="stroke:#181818;stroke-width:0.5;" width="15" x="163" y="54"/><rect fill="#F1F1F1" height="2" style="stroke:#181818;stroke-width:0.5;" width="4" x="161" y="56"/><rect fill="#F1F1F1" height="2" style="stroke:#181818;stroke-width:0.5;" width="4" x="161" y="60"/><text fill="#000000" font-family="sans-serif" font-size="14" font-style="italic" lengthAdjust="spacing" textLength="71" x="87" y="83.9659">&#171;Frontend&#187;</text><text fill="#000000" font-family="sans-serif" font-size="14" lengthAdjust="spacing" textLength="54" x="95.5" y="103.0339">Angular</text></g><!--entity WebServer--><g id="elem_WebServer"><polygon fill="#F1F1F1" points="248,68.54,258,58.54,361,58.54,361,97.6079,351,107.6079,248,107.6079,248,68.54" style="stroke:#181818;stroke-width:0.5;"/><line style="stroke:#181818;stroke-width:0.5;" x1="351" x2="361" y1="68.54" y2="58.54"/><line style="stroke:#181818;stroke-width:0.5;" x1="248" x2="351" y1="68.54" y2="68.54"/><line style="stroke:#181818;stroke-width:0.5;" x1="351" x2="351" y1="68.54" y2="107.6079"/><text fill="#000000" font-family="sans-serif" font-size="14" lengthAdjust="spacing" textLength="73" x="263" y="93.5059">WebServer</text></g><!--entity FormBuilder--><g id="elem_FormBuilder"><rect fill="#F1F1F1" height="68.1358" rx="2.5" ry="2.5" style="stroke:#181818;stroke-width:0.5;" width="123" x="396" y="49"/><rect fill="#F1F1F1" height="10" style="stroke:#181818;stroke-width:0.5;" width="15" x="499" y="54"/><rect fill="#F1F1F1" height="2" style="stroke:#181818;stroke-width:0.5;" width="4" x="497" y="56"/><rect fill="#F1F1F1" height="2" style="stroke:#181818;stroke-width:0.5;" width="4" x="497" y="60"/><text fill="#000000" font-family="sans-serif" font-size="14" font-style="italic" lengthAdjust="spacing" textLength="68" x="418.5" y="83.9659">&#171;API REST&#187;</text><text fill="#000000" font-family="sans-serif" font-size="14" lengthAdjust="spacing" textLength="83" x="411" y="103.0339">FormBuilder</text></g><!--entity ASP.NET Core--><g id="elem_ASP.NET Core"><rect fill="#F1F1F1" height="68.1358" rx="2.5" ry="2.5" style="stroke:#181818;stroke-width:0.5;" width="131" x="239" y="183.6"/><rect fill="#F1F1F1" height="10" style="stroke:#181818;stroke-width:0.5;" width="15" x="350" y="188.6"/><rect fill="#F1F1F1" height="2" style="stroke:#181818;stroke-width:0.5;" width="4" x="348" y="190.6"/><rect fill="#F1F1F1" height="2" style="stroke:#181818;stroke-width:0.5;" width="4" x="348" y="194.6"/><text fill="#000000" font-family="sans-serif" font-size="14" font-style="italic" lengthAdjust="spacing" textLength="85" x="257" y="218.5659">&#171;Framework&#187;</text><text fill="#000000" font-family="sans-serif" font-size="14" lengthAdjust="spacing" textLength="91" x="254" y="237.6339">ASP.NET Core</text></g><!--entity PostgreSQL--><g id="elem_PostgreSQL"><rect fill="#F1F1F1" height="68.1358" rx="2.5" ry="2.5" style="stroke:#181818;stroke-width:0.5;" width="117" x="405" y="183.6"/><rect fill="#F1F1F1" height="10" style="stroke:#181818;stroke-width:0.5;" width="15" x="502" y="188.6"/><rect fill="#F1F1F1" height="2" style="stroke:#181818;stroke-width:0.5;" width="4" x="500" y="190.6"/><rect fill="#F1F1F1" height="2" style="stroke:#181818;stroke-width:0.5;" width="4" x="500" y="194.6"/><text fill="#000000" font-family="sans-serif" font-size="14" font-style="italic" lengthAdjust="spacing" textLength="73" x="422" y="218.5659">&#171;Database&#187;</text><text fill="#000000" font-family="sans-serif" font-size="14" lengthAdjust="spacing" textLength="77" x="420" y="237.6339">PostgreSQL</text></g><!--entity User--><g id="elem_User"><ellipse cx="21.5" cy="52.04" fill="#F1F1F1" rx="8" ry="8" style="stroke:#181818;stroke-width:0.5;"/><path d="M21.5,60.04 L21.5,87.04 M8.5,68.04 L34.5,68.04 M21.5,87.04 L8.5,102.04 M21.5,87.04 L34.5,102.04 " fill="none" style="stroke:#181818;stroke-width:0.5;"/><text fill="#000000" font-family="sans-serif" font-size="14" lengthAdjust="spacing" textLength="31" x="6" y="118.5059">User</text></g><!--link User to Angular--><g id="link_User_Angular"><path d="M37.23,83.07 C48.75,83.07 54.27,83.07 65.79,83.07 " fill="none" id="User-to-Angular" style="stroke:#181818;stroke-width:1.0;"/><polygon fill="#181818" points="71.79,83.07,62.79,79.07,66.79,83.07,62.79,87.07,71.79,83.07" style="stroke:#181818;stroke-width:1.0;"/></g><!--link Angular to WebServer--><g id="link_Angular_WebServer"><path d="M183.02,83.07 C203.6,83.07 220.96,83.07 241.65,83.07 " fill="none" id="Angular-to-WebServer" style="stroke:#181818;stroke-width:1.0;"/><polygon fill="#181818" points="247.65,83.07,238.65,79.07,242.65,83.07,238.65,87.07,247.65,83.07" style="stroke:#181818;stroke-width:1.0;"/><text fill="#000000" font-family="sans-serif" font-size="13" lengthAdjust="spacing" textLength="26" x="202.5" y="75.967">http</text></g><!--link WebServer to FormBuilder--><g id="link_WebServer_FormBuilder"><path d="M361.28,83.07 C372.8,83.07 378.33,83.07 389.86,83.07 " fill="none" id="WebServer-to-FormBuilder" style="stroke:#181818;stroke-width:1.0;"/><polygon fill="#181818" points="395.86,83.07,386.86,79.07,390.86,83.07,386.86,87.07,395.86,83.07" style="stroke:#181818;stroke-width:1.0;"/></g><!--link FormBuilder to ASP.NET Core--><g id="link_FormBuilder_ASP.NET Core"><path d="M418.89,117.53 C395.7,137.63 370.8239,159.1902 347.6339,179.2902 " fill="none" id="FormBuilder-to-ASP.NET Core" style="stroke:#181818;stroke-width:1.0;stroke-dasharray:7.0,7.0;"/><polygon fill="#181818" points="343.1,183.22,352.5208,180.3479,346.8783,179.9452,347.281,174.3027,343.1,183.22" style="stroke:#181818;stroke-width:1.0;"/></g><!--link FormBuilder to PostgreSQL--><g id="link_FormBuilder_PostgreSQL"><path d="M459.01,117.53 C459.92,137.63 460.8086,157.1261 461.7186,177.2261 " fill="none" id="FormBuilder-to-PostgreSQL" style="stroke:#181818;stroke-width:1.0;stroke-dasharray:7.0,7.0;"/><polygon fill="#181818" points="461.99,183.22,465.5789,174.0483,461.7639,178.2251,457.587,174.4101,461.99,183.22" style="stroke:#181818;stroke-width:1.0;"/></g><!--link WebServer to PostgreSQL--><g id="link_WebServer_PostgreSQL"><path d="M333.29,108.08 C358.44,129.06 390.5912,155.8782 418.6512,179.2682 " fill="none" id="WebServer-to-PostgreSQL" style="stroke:#181818;stroke-width:1.0;"/><polygon fill="#181818" points="423.26,183.11,418.908,174.2748,419.4193,179.9085,413.7856,180.4199,423.26,183.11" style="stroke:#181818;stroke-width:1.0;"/></g><!--link WebServer to ASP.NET Core--><g id="link_WebServer_ASP.NET Core"><path d="M304.5,108.08 C304.5,129.13 304.5,153.93 304.5,177.36 " fill="none" id="WebServer-to-ASP.NET Core" style="stroke:#181818;stroke-width:1.0;"/><polygon fill="#181818" points="304.5,183.36,308.5,174.36,304.5,178.36,300.5,174.36,304.5,183.36" style="stroke:#181818;stroke-width:1.0;"/></g><!--SRC=[RO_D3e8m48JlVOeDTtW0GqZmXyJ461IDvoeR94ANB4KEndUtHL5GU-lCxEotuKaJmxv65efI16TMvAYq0pS1vfseh4WP0KALDOLayFs8IMbKQH28-sieGRuYzqETTi3ZK_tgYOZBQPCNATgkC5x2Tf7iJDSuveH9xAqNEvWHezDjbIMsn9VVQ4orpXYJpSe6vrBBewonmnFsCd237b_qPnZfJGWJE6jTYO_WSfwTjSaCQSNmuwNKAY_uvXndh3-06owmu-xOXd_-gFu1]--></g></svg>