<?xml version="1.0" encoding="us-ascii" standalone="no"?><svg xmlns="http://www.w3.org/2000/svg" xmlns:xlink="http://www.w3.org/1999/xlink" contentStyleType="text/css" height="284px" preserveAspectRatio="none" style="width:571px;height:284px;background:#FFFFFF;" version="1.1" viewBox="0 0 571 284" width="571px" zoomAndPan="magnify"><defs/><g><!--cluster Client--><g id="cluster_Client"><polygon fill="none" points="55.5,16,65.5,6,199.5,6,199.5,123.14,189.5,133.14,55.5,133.14,55.5,16" style="stroke:#181818;stroke-width:1.0;"/><line style="stroke:#181818;stroke-width:1.0;" x1="189.5" x2="199.5" y1="16" y2="6"/><line style="stroke:#181818;stroke-width:1.0;" x1="55.5" x2="189.5" y1="16" y2="16"/><line style="stroke:#181818;stroke-width:1.0;" x1="189.5" x2="189.5" y1="16" y2="133.14"/><text fill="#000000" font-family="sans-serif" font-size="14" font-weight="bold" lengthAdjust="spacing" textLength="40" x="103.5" y="33.9659">Client</text></g><!--cluster Server--><g id="cluster_Server"><polygon fill="none" points="229.5,16,239.5,6,554.5,6,554.5,257.74,544.5,267.74,229.5,267.74,229.5,16" style="stroke:#181818;stroke-width:1.0;"/><line style="stroke:#181818;stroke-width:1.0;" x1="544.5" x2="554.5" y1="16" y2="6"/><line style="stroke:#181818;stroke-width:1.0;" x1="229.5" x2="544.5" y1="16" y2="16"/><line style="stroke:#181818;stroke-width:1.0;" x1="544.5" x2="544.5" y1="16" y2="267.74"/><text fill="#000000" font-family="sans-serif" font-size="14" font-weight="bold" lengthAdjust="spacing" textLength="44" x="366" y="33.9659">Server</text></g><!--entity Angular--><g id="elem_Angular"><rect fill="#F1F1F1" height="68.1358" rx="2.5" ry="2.5" style="stroke:#181818;stroke-width:0.5;" width="111" x="72" y="49"/><rect fill="#F1F1F1" height="10" style="stroke:#181818;stroke-width:0.5;" width="15" x="163" y="54"/><rect fill="#F1F1F1" height="2" style="stroke:#181818;stroke-width:0.5;" width="4" x="161" y="56"/><rect fill="#F1F1F1" height="2" style="stroke:#181818;stroke-width:0.5;" width="4" x="161" y="60"/><text fill="#000000" font-family="sans-serif" font-size="14" font-style="italic" lengthAdjust="spacing" textLength="71" x="87" y="83.9659">&#171;Frontend&#187;</text><text fill="#000000" font-family="sans-serif" font-size="14" lengthAdjust="spacing" textLength="54" x="95.5" y="103.0339">Angular</text></g><!--entity WebServer--><g id="elem_WebServer"><polygon fill="#F1F1F1" points="245,68.54,255,58.54,358,58.54,358,97.6079,348,107.6079,245,107.6079,245,68.54" style="stroke:#181818;stroke-width:0.5;"/><line style="stroke:#181818;stroke-width:0.5;" x1="348" x2="358" y1="68.54" y2="58.54"/><line style="stroke:#181818;stroke-width:0.5;" x1="245" x2="348" y1="68.54" y2="68.54"/><line style="stroke:#181818;stroke-width:0.5;" x1="348" x2="348" y1="68.54" y2="107.6079"/><text fill="#000000" font-family="sans-serif" font-size="14" lengthAdjust="spacing" textLength="73" x="260" y="93.5059">WebServer</text></g><!--entity FormBuilderAPI--><g id="elem_FormBuilderAPI"><rect fill="#F1F1F1" height="68.1358" rx="2.5" ry="2.5" style="stroke:#181818;stroke-width:0.5;" width="145" x="393" y="49"/><rect fill="#F1F1F1" height="10" style="stroke:#181818;stroke-width:0.5;" width="15" x="518" y="54"/><rect fill="#F1F1F1" height="2" style="stroke:#181818;stroke-width:0.5;" width="4" x="516" y="56"/><rect fill="#F1F1F1" height="2" style="stroke:#181818;stroke-width:0.5;" width="4" x="516" y="60"/><text fill="#000000" font-family="sans-serif" font-size="14" font-style="italic" lengthAdjust="spacing" textLength="68" x="426.5" y="83.9659">&#171;API REST&#187;</text><text fill="#000000" font-family="sans-serif" font-size="14" lengthAdjust="spacing" textLength="105" x="408" y="103.0339">FormBuilderAPI</text></g><!--entity ASP.NET Core--><g id="elem_ASP.NET Core"><rect fill="#F1F1F1" height="68.1358" rx="2.5" ry="2.5" style="stroke:#181818;stroke-width:0.5;" width="131" x="245" y="183.6"/><rect fill="#F1F1F1" height="10" style="stroke:#181818;stroke-width:0.5;" width="15" x="356" y="188.6"/><rect fill="#F1F1F1" height="2" style="stroke:#181818;stroke-width:0.5;" width="4" x="354" y="190.6"/><rect fill="#F1F1F1" height="2" style="stroke:#181818;stroke-width:0.5;" width="4" x="354" y="194.6"/><text fill="#000000" font-family="sans-serif" font-size="14" font-style="italic" lengthAdjust="spacing" textLength="85" x="263" y="218.5659">&#171;Framework&#187;</text><text fill="#000000" font-family="sans-serif" font-size="14" lengthAdjust="spacing" textLength="91" x="260" y="237.6339">ASP.NET Core</text></g><!--entity SQL Server--><g id="elem_SQL Server"><rect fill="#F1F1F1" height="68.1358" rx="2.5" ry="2.5" style="stroke:#181818;stroke-width:0.5;" width="113" x="411" y="183.6"/><rect fill="#F1F1F1" height="10" style="stroke:#181818;stroke-width:0.5;" width="15" x="504" y="188.6"/><rect fill="#F1F1F1" height="2" style="stroke:#181818;stroke-width:0.5;" width="4" x="502" y="190.6"/><rect fill="#F1F1F1" height="2" style="stroke:#181818;stroke-width:0.5;" width="4" x="502" y="194.6"/><text fill="#000000" font-family="sans-serif" font-size="14" font-style="italic" lengthAdjust="spacing" textLength="73" x="426" y="218.5659">&#171;Database&#187;</text><text fill="#000000" font-family="sans-serif" font-size="14" lengthAdjust="spacing" textLength="73" x="426" y="237.6339">SQL Server</text></g><!--entity User--><g id="elem_User"><ellipse cx="21.5" cy="52.04" fill="#F1F1F1" rx="8" ry="8" style="stroke:#181818;stroke-width:0.5;"/><path d="M21.5,60.04 L21.5,87.04 M8.5,68.04 L34.5,68.04 M21.5,87.04 L8.5,102.04 M21.5,87.04 L34.5,102.04 " fill="none" style="stroke:#181818;stroke-width:0.5;"/><text fill="#000000" font-family="sans-serif" font-size="14" lengthAdjust="spacing" textLength="31" x="6" y="118.5059">User</text></g><!--link User to Angular--><g id="link_User_Angular"><path d="M37.23,83.07 C48.75,83.07 54.27,83.07 65.79,83.07 " fill="none" id="User-to-Angular" style="stroke:#181818;stroke-width:1.0;"/><polygon fill="#181818" points="71.79,83.07,62.79,79.07,66.79,83.07,62.79,87.07,71.79,83.07" style="stroke:#181818;stroke-width:1.0;"/></g><!--link Angular to WebServer--><g id="link_Angular_WebServer"><path d="M183.03,83.07 C202.73,83.07 218.9,83.07 238.7,83.07 " fill="none" id="Angular-to-WebServer" style="stroke:#181818;stroke-width:1.0;"/><polygon fill="#181818" points="244.7,83.07,235.7,79.07,239.7,83.07,235.7,87.07,244.7,83.07" style="stroke:#181818;stroke-width:1.0;"/><text fill="#000000" font-family="sans-serif" font-size="13" lengthAdjust="spacing" textLength="26" x="201" y="75.967">http</text></g><!--link WebServer to FormBuilderAPI--><g id="link_WebServer_FormBuilderAPI"><path d="M358.2,83.07 C369.65,83.07 375.11,83.07 386.57,83.07 " fill="none" id="WebServer-to-FormBuilderAPI" style="stroke:#181818;stroke-width:1.0;"/><polygon fill="#181818" points="392.57,83.07,383.57,79.07,387.57,83.07,383.57,87.07,392.57,83.07" style="stroke:#181818;stroke-width:1.0;"/></g><!--link FormBuilderAPI to ASP.NET Core--><g id="link_FormBuilderAPI_ASP.NET Core"><path d="M426.39,117.53 C402.89,137.63 377.6596,159.22 354.1596,179.32 " fill="none" id="FormBuilderAPI-to-ASP.NET Core" style="stroke:#181818;stroke-width:1.0;stroke-dasharray:7.0,7.0;"/><polygon fill="#181818" points="349.6,183.22,359.0394,180.4098,353.3997,179.97,353.8395,174.3303,349.6,183.22" style="stroke:#181818;stroke-width:1.0;"/></g><!--link FormBuilderAPI to SQL Server--><g id="link_FormBuilderAPI_SQL Server"><path d="M466,117.53 C466.31,137.63 466.5975,157.1207 466.9075,177.2207 " fill="none" id="FormBuilderAPI-to-SQL Server" style="stroke:#181818;stroke-width:1.0;stroke-dasharray:7.0,7.0;"/><polygon fill="#181818" points="467,183.22,470.8607,174.1594,466.9229,178.2206,462.8617,174.2828,467,183.22" style="stroke:#181818;stroke-width:1.0;"/></g><!--link WebServer to SQL Server--><g id="link_WebServer_SQL Server"><path d="M331.56,108.08 C357.82,129.06 391.5115,155.9759 420.8015,179.3659 " fill="none" id="WebServer-to-SQL Server" style="stroke:#181818;stroke-width:1.0;"/><polygon fill="#181818" points="425.49,183.11,420.9533,174.3682,421.5829,179.9899,415.9612,180.6196,425.49,183.11" style="stroke:#181818;stroke-width:1.0;"/></g><!--link WebServer to ASP.NET Core--><g id="link_WebServer_ASP.NET Core"><path d="M303.13,108.08 C304.56,129.13 306.2438,153.9438 307.8338,177.3738 " fill="none" id="WebServer-to-ASP.NET Core" style="stroke:#181818;stroke-width:1.0;"/><polygon fill="#181818" points="308.24,183.36,311.6215,174.1098,307.9015,178.3715,303.6398,174.6515,308.24,183.36" style="stroke:#181818;stroke-width:1.0;"/></g><!--SRC=[RK_R2e9047tVhnXyrmy84SmIWWXBe-TDXv9qHyQj7g9_RxKiB-t3m9uvSov-gebXNoCBHHc25HGvAct1Gu1vAPKLAGE0hqxNGZAuRiYaDAhCyyJpSnGZtv2xenOxuF6DZdH2ud9-pOiCsOzMHgwPksMS6BaXq_BZoDai4mY8qMgDPObtuikK6c_Nq8LmtONKyYXhR1EAfXpONjT0T4qCz0q9CpXhNOaVO7D-Ecl36GKMex-JqLqvtZZjXDPGUYdxJes2FLp3l_t0uGK0]--></g></svg>