<?xml version="1.0" encoding="us-ascii" standalone="no"?><svg xmlns="http://www.w3.org/2000/svg" xmlns:xlink="http://www.w3.org/1999/xlink" contentStyleType="text/css" height="2437.5px" preserveAspectRatio="none" style="width:3140px;height:2437px;background:#FFFFFF;" version="1.1" viewBox="0 0 3140 2437" width="3140.625px" zoomAndPan="magnify"><defs/><g><!--class form_structures--><g id="elem_form_structures"><rect codeLine="5" fill="#F1F1F1" height="547.9362" id="form_structures" rx="52.0833" ry="52.0833" style="stroke:#181818;stroke-width:2.6041666666666665;" width="1151.0417" x="1757.8125" y="36.4583"/><ellipse cx="2032.5521" cy="119.7917" fill="#ADD1B2" rx="57.2917" ry="57.2917" style="stroke:#181818;stroke-width:5.208333333333333;"/><path d="M2013.5905,153.6458 L2013.5905,90.4134 L2053.4668,90.4134 L2053.4668,101.4811 L2025.9603,101.4811 L2025.9603,115.3158 L2052.0833,115.3158 L2052.0833,126.3835 L2025.9603,126.3835 L2025.9603,142.5781 L2053.4668,142.5781 L2053.4668,153.6458 L2013.5905,153.6458 Z " fill="#000000"/><text fill="#000000" font-family="sans-serif" font-size="72.9167" lengthAdjust="spacing" textLength="557.2917" x="2139.3229" y="148.0832">form_structures</text><line style="stroke:#181818;stroke-width:2.6041666666666665;" x1="1763.0208" x2="2903.6458" y1="203.125" y2="203.125"/><ellipse cx="1815.1042" cy="281.4269" fill="#000000" rx="15.625" ry="15.625" style="stroke:#000000;stroke-width:5.208333333333333;"/><text fill="#000000" font-family="sans-serif" font-size="72.9167" lengthAdjust="spacing" textLength="859.375" x="1861.9792" y="301.9059">id : UUID &#171;PK&#187; &#171;not null&#187;</text><line style="stroke:#181818;stroke-width:5.208333333333333;" x1="1763.0208" x2="2903.6458" y1="344.1037" y2="344.1037"/><text fill="#000000" font-family="sans-serif" font-size="72.9167" lengthAdjust="spacing" textLength="890.625" x="1789.0625" y="442.8846">name : varchar &#171;not null&#187;</text><text fill="#000000" font-family="sans-serif" font-size="72.9167" lengthAdjust="spacing" textLength="1088.5417" x="1789.0625" y="542.1967">description : varchar &#171;not null&#187;</text></g><!--class inputs--><g id="elem_inputs"><rect codeLine="12" fill="#F1F1F1" height="746.5603" id="inputs" rx="52.0833" ry="52.0833" style="stroke:#181818;stroke-width:2.6041666666666665;" width="1093.75" x="1786.4583" y="1658.0208"/><ellipse cx="2199.2188" cy="1741.3542" fill="#ADD1B2" rx="57.2917" ry="57.2917" style="stroke:#181818;stroke-width:5.208333333333333;"/><path d="M2180.2572,1775.2083 L2180.2572,1711.9759 L2220.1335,1711.9759 L2220.1335,1723.0436 L2192.627,1723.0436 L2192.627,1736.8783 L2218.75,1736.8783 L2218.75,1747.946 L2192.627,1747.946 L2192.627,1764.1406 L2220.1335,1764.1406 L2220.1335,1775.2083 L2180.2572,1775.2083 Z " fill="#000000"/><text fill="#000000" font-family="sans-serif" font-size="72.9167" lengthAdjust="spacing" textLength="223.9583" x="2305.9896" y="1769.6457">inputs</text><line style="stroke:#181818;stroke-width:2.6041666666666665;" x1="1791.6667" x2="2875" y1="1824.6875" y2="1824.6875"/><ellipse cx="1843.75" cy="1902.9894" fill="#000000" rx="15.625" ry="15.625" style="stroke:#000000;stroke-width:5.208333333333333;"/><text fill="#000000" font-family="sans-serif" font-size="72.9167" lengthAdjust="spacing" textLength="859.375" x="1890.625" y="1923.4684">id : UUID &#171;PK&#187; &#171;not null&#187;</text><line style="stroke:#181818;stroke-width:5.208333333333333;" x1="1791.6667" x2="2875" y1="1965.6662" y2="1965.6662"/><text fill="#000000" font-family="sans-serif" font-size="72.9167" lengthAdjust="spacing" textLength="890.625" x="1817.7083" y="2064.4471">name : varchar &#171;not null&#187;</text><text fill="#000000" font-family="sans-serif" font-size="72.9167" lengthAdjust="spacing" textLength="1031.25" x="1817.7083" y="2163.7592">data_type : varchar &#171;not null&#187;</text><text fill="#000000" font-family="sans-serif" font-size="72.9167" lengthAdjust="spacing" textLength="744.7917" x="1817.7083" y="2263.0713">value : varchar &#171;null&#187;</text><text fill="#000000" font-family="sans-serif" font-size="72.9167" lengthAdjust="spacing" textLength="1015.625" x="1817.7083" y="2362.3833">required : boolean &#171;not null&#187;</text></g><!--class form_datas--><g id="elem_form_datas"><rect codeLine="21" fill="#F1F1F1" height="448.6241" id="form_datas" rx="52.0833" ry="52.0833" style="stroke:#181818;stroke-width:2.6041666666666665;" width="1541.6667" x="36.4583" y="86.0938"/><ellipse cx="589.8438" cy="169.4271" fill="#ADD1B2" rx="57.2917" ry="57.2917" style="stroke:#181818;stroke-width:5.208333333333333;"/><path d="M570.8822,203.2813 L570.8822,140.0488 L610.7585,140.0488 L610.7585,151.1165 L583.252,151.1165 L583.252,164.9512 L609.375,164.9512 L609.375,176.0189 L583.252,176.0189 L583.252,192.2135 L610.7585,192.2135 L610.7585,203.2813 L570.8822,203.2813 Z " fill="#000000"/><text fill="#000000" font-family="sans-serif" font-size="72.9167" lengthAdjust="spacing" textLength="390.625" x="696.6146" y="197.7186">form_datas</text><line style="stroke:#181818;stroke-width:2.6041666666666665;" x1="41.6667" x2="1572.9167" y1="252.7604" y2="252.7604"/><ellipse cx="93.75" cy="331.0623" fill="#000000" rx="15.625" ry="15.625" style="stroke:#000000;stroke-width:5.208333333333333;"/><text fill="#000000" font-family="sans-serif" font-size="72.9167" lengthAdjust="spacing" textLength="859.375" x="140.625" y="351.5413">id : UUID &#171;PK&#187; &#171;not null&#187;</text><text fill="#000000" font-family="sans-serif" font-size="72.9167" lengthAdjust="spacing" textLength="1406.25" x="140.625" y="450.8534">form_structure_id : UUID &#171;FK&#187; &#171;not null&#187;</text><line style="stroke:#181818;stroke-width:2.6041666666666665;" x1="41.6667" x2="1572.9167" y1="493.0512" y2="493.0512"/></g><!--class form_structure_inputs--><g id="elem_form_structure_inputs"><rect codeLine="26" fill="#F1F1F1" height="448.6241" id="form_structure_inputs" rx="52.0833" ry="52.0833" style="stroke:#181818;stroke-width:2.6041666666666665;" width="1541.6667" x="1562.5" y="896.875"/><ellipse cx="1923.1771" cy="980.2083" fill="#ADD1B2" rx="57.2917" ry="57.2917" style="stroke:#181818;stroke-width:5.208333333333333;"/><path d="M1904.2155,1014.0625 L1904.2155,950.8301 L1944.0918,950.8301 L1944.0918,961.8978 L1916.5853,961.8978 L1916.5853,975.7324 L1942.7083,975.7324 L1942.7083,986.8001 L1916.5853,986.8001 L1916.5853,1002.9948 L1944.0918,1002.9948 L1944.0918,1014.0625 L1904.2155,1014.0625 Z " fill="#000000"/><text fill="#000000" font-family="sans-serif" font-size="72.9167" lengthAdjust="spacing" textLength="776.0417" x="2029.9479" y="1008.4999">form_structure_inputs</text><line style="stroke:#181818;stroke-width:2.6041666666666665;" x1="1567.7083" x2="3098.9583" y1="1063.5417" y2="1063.5417"/><ellipse cx="1619.7917" cy="1141.8435" fill="#000000" rx="15.625" ry="15.625" style="stroke:#000000;stroke-width:5.208333333333333;"/><text fill="#000000" font-family="sans-serif" font-size="72.9167" lengthAdjust="spacing" textLength="1406.25" x="1666.6667" y="1162.3226">form_structure_id : UUID &#171;FK&#187; &#171;not null&#187;</text><ellipse cx="1619.7917" cy="1241.1556" fill="#000000" rx="15.625" ry="15.625" style="stroke:#000000;stroke-width:5.208333333333333;"/><text fill="#000000" font-family="sans-serif" font-size="72.9167" lengthAdjust="spacing" textLength="1072.9167" x="1666.6667" y="1261.6346">input_id : UUID &#171;FK&#187; &#171;not null&#187;</text><line style="stroke:#181818;stroke-width:2.6041666666666665;" x1="1567.7083" x2="3098.9583" y1="1303.8325" y2="1303.8325"/></g><!--link form_structures to form_structure_inputs--><g id="link_form_structures_form_structure_inputs"><path codeLine="31" d="M2333.3333,628.2812 C2333.3333,728.9583 2333.3333,758.4896 2333.3333,854.1146 " fill="none" id="form_structures-form_structure_inputs" style="stroke:#181818;stroke-width:5.208333333333333;"/><line style="stroke:#181818;stroke-width:5.208333333333333;" x1="2312.5" x2="2354.1667" y1="607.4479" y2="607.4479"/><line style="stroke:#181818;stroke-width:5.208333333333333;" x1="2312.5" x2="2354.1667" y1="623.0729" y2="623.0729"/><line style="stroke:#181818;stroke-width:5.208333333333333;" x1="2333.3333" x2="2333.3333" y1="628.2812" y2="586.6146"/><line style="stroke:#181818;stroke-width:5.208333333333333;" x1="2333.3333" x2="2364.5833" y1="854.1146" y2="895.7813"/><line style="stroke:#181818;stroke-width:5.208333333333333;" x1="2333.3333" x2="2302.0833" y1="854.1146" y2="895.7813"/><line style="stroke:#181818;stroke-width:5.208333333333333;" x1="2333.3333" x2="2333.3333" y1="854.1146" y2="895.7813"/><line style="stroke:#181818;stroke-width:5.208333333333333;" x1="2354.1667" x2="2312.5" y1="843.6979" y2="843.6979"/></g><!--link form_structure_inputs to inputs--><g id="link_form_structure_inputs_inputs"><path codeLine="32" d="M2333.3333,1388.1771 C2333.3333,1481.3021 2333.3333,1509.0104 2333.3333,1614.1146 " fill="none" id="form_structure_inputs-inputs" style="stroke:#181818;stroke-width:5.208333333333333;"/><line style="stroke:#181818;stroke-width:5.208333333333333;" x1="2333.3333" x2="2302.0833" y1="1388.1771" y2="1346.5104"/><line style="stroke:#181818;stroke-width:5.208333333333333;" x1="2333.3333" x2="2364.5833" y1="1388.1771" y2="1346.5104"/><line style="stroke:#181818;stroke-width:5.208333333333333;" x1="2333.3333" x2="2333.3333" y1="1388.1771" y2="1346.5104"/><line style="stroke:#181818;stroke-width:5.208333333333333;" x1="2312.5" x2="2354.1667" y1="1398.5938" y2="1398.5938"/><line style="stroke:#181818;stroke-width:5.208333333333333;" x1="2354.1667" x2="2312.5" y1="1634.9479" y2="1634.9479"/><line style="stroke:#181818;stroke-width:5.208333333333333;" x1="2354.1667" x2="2312.5" y1="1619.3229" y2="1619.3229"/><line style="stroke:#181818;stroke-width:5.208333333333333;" x1="2333.3333" x2="2333.3333" y1="1614.1146" y2="1655.7813"/></g><!--link form_datas to form_structures--><g id="link_form_datas_form_structures"><path codeLine="33" d="M1620.9375,310.4167 C1679.8437,310.4167 1655.4167,310.4167 1714.3229,310.4167 " fill="none" id="form_datas-form_structures" style="stroke:#181818;stroke-width:5.208333333333333;"/><line style="stroke:#181818;stroke-width:5.208333333333333;" x1="1620.9375" x2="1579.2708" y1="310.4167" y2="352.0833"/><line style="stroke:#181818;stroke-width:5.208333333333333;" x1="1620.9375" x2="1579.2708" y1="310.4167" y2="268.75"/><line style="stroke:#181818;stroke-width:5.208333333333333;" x1="1620.9375" x2="1579.2708" y1="310.4167" y2="310.4167"/><line style="stroke:#181818;stroke-width:5.208333333333333;" x1="1735.1562" x2="1735.1562" y1="289.5833" y2="331.25"/><line style="stroke:#181818;stroke-width:5.208333333333333;" x1="1719.5312" x2="1719.5312" y1="289.5833" y2="331.25"/><line style="stroke:#181818;stroke-width:5.208333333333333;" x1="1714.3229" x2="1755.9896" y1="310.4167" y2="310.4167"/></g><!--SRC=[jPB1QiCm38RlVWhtMd1w7oMdCHYxxD9py1nr4pXoAik5akJTcwImjKsoqSDyqK7VB_sIl49oFfMWisoJ17tSECibalKefwnEbLUh2H911EapNl8AI7fOxmDNHHHEJX93r8tI_LjZgP_qRlVwhBVRzxSyxmC5qPIyp_CHCMOCP2leqQDbzsLvYfKG7MCj66W9wxxD8DL9_i635Ll8gVuLEbgVxe2V9CCX8SDWw2C43vQMHXZtEJHyO8pR6nJNWfU9e5iuNN6xl8TgNdmE-h-Rtt-OjZMcRURDg7cBtI1fzImp5lIm5zDSxLAT0G00]--></g></svg>