<?xml version="1.0" encoding="us-ascii" standalone="no"?><svg xmlns="http://www.w3.org/2000/svg" xmlns:xlink="http://www.w3.org/1999/xlink" contentStyleType="text/css" height="2437.5px" preserveAspectRatio="none" style="width:1614px;height:2437px;background:#FFFFFF;" version="1.1" viewBox="0 0 1614 2437" width="1614.5833px" zoomAndPan="magnify"><defs/><g><!--class form_structures--><g id="elem_form_structures"><rect codeLine="5" fill="#F1F1F1" height="547.9362" id="form_structures" rx="52.0833" ry="52.0833" style="stroke:#181818;stroke-width:2.6041666666666665;" width="1151.0417" x="231.7708" y="36.4583"/><ellipse cx="506.5104" cy="119.7917" fill="#ADD1B2" rx="57.2917" ry="57.2917" style="stroke:#181818;stroke-width:5.208333333333333;"/><path d="M487.5488,153.6458 L487.5488,90.4134 L527.4251,90.4134 L527.4251,101.4811 L499.9186,101.4811 L499.9186,115.3158 L526.0417,115.3158 L526.0417,126.3835 L499.9186,126.3835 L499.9186,142.5781 L527.4251,142.5781 L527.4251,153.6458 L487.5488,153.6458 Z " fill="#000000"/><text fill="#000000" font-family="sans-serif" font-size="72.9167" lengthAdjust="spacing" textLength="557.2917" x="613.2813" y="148.0832">form_structures</text><line style="stroke:#181818;stroke-width:2.6041666666666665;" x1="236.9792" x2="1377.6042" y1="203.125" y2="203.125"/><ellipse cx="289.0625" cy="281.4269" fill="#000000" rx="15.625" ry="15.625" style="stroke:#000000;stroke-width:5.208333333333333;"/><text fill="#000000" font-family="sans-serif" font-size="72.9167" lengthAdjust="spacing" textLength="859.375" x="335.9375" y="301.9059">id : UUID &#171;PK&#187; &#171;not null&#187;</text><line style="stroke:#181818;stroke-width:5.208333333333333;" x1="236.9792" x2="1377.6042" y1="344.1037" y2="344.1037"/><text fill="#000000" font-family="sans-serif" font-size="72.9167" lengthAdjust="spacing" textLength="890.625" x="263.0208" y="442.8846">name : varchar &#171;not null&#187;</text><text fill="#000000" font-family="sans-serif" font-size="72.9167" lengthAdjust="spacing" textLength="1088.5417" x="263.0208" y="542.1967">description : varchar &#171;not null&#187;</text></g><!--class inputs--><g id="elem_inputs"><rect codeLine="12" fill="#F1F1F1" height="647.2483" id="inputs" rx="52.0833" ry="52.0833" style="stroke:#181818;stroke-width:2.6041666666666665;" width="1093.75" x="260.4167" y="1757.3438"/><ellipse cx="673.1771" cy="1840.6771" fill="#ADD1B2" rx="57.2917" ry="57.2917" style="stroke:#181818;stroke-width:5.208333333333333;"/><path d="M654.2155,1874.5313 L654.2155,1811.2988 L694.0918,1811.2988 L694.0918,1822.3665 L666.5853,1822.3665 L666.5853,1836.2012 L692.7083,1836.2012 L692.7083,1847.2689 L666.5853,1847.2689 L666.5853,1863.4635 L694.0918,1863.4635 L694.0918,1874.5313 L654.2155,1874.5313 Z " fill="#000000"/><text fill="#000000" font-family="sans-serif" font-size="72.9167" lengthAdjust="spacing" textLength="223.9583" x="779.9479" y="1868.9686">inputs</text><line style="stroke:#181818;stroke-width:2.6041666666666665;" x1="265.625" x2="1348.9583" y1="1924.0104" y2="1924.0104"/><ellipse cx="317.7083" cy="2002.3123" fill="#000000" rx="15.625" ry="15.625" style="stroke:#000000;stroke-width:5.208333333333333;"/><text fill="#000000" font-family="sans-serif" font-size="72.9167" lengthAdjust="spacing" textLength="859.375" x="364.5833" y="2022.7913">id : UUID &#171;PK&#187; &#171;not null&#187;</text><line style="stroke:#181818;stroke-width:5.208333333333333;" x1="265.625" x2="1348.9583" y1="2064.9892" y2="2064.9892"/><text fill="#000000" font-family="sans-serif" font-size="72.9167" lengthAdjust="spacing" textLength="890.625" x="291.6667" y="2163.7701">name : varchar &#171;not null&#187;</text><text fill="#000000" font-family="sans-serif" font-size="72.9167" lengthAdjust="spacing" textLength="1031.25" x="291.6667" y="2263.0821">data_type : varchar &#171;not null&#187;</text><text fill="#000000" font-family="sans-serif" font-size="72.9167" lengthAdjust="spacing" textLength="1015.625" x="291.6667" y="2362.3942">required : boolean &#171;not null&#187;</text></g><!--class form_structure_inputs--><g id="elem_form_structure_inputs"><rect codeLine="20" fill="#F1F1F1" height="547.9362" id="form_structure_inputs" rx="52.0833" ry="52.0833" style="stroke:#181818;stroke-width:2.6041666666666665;" width="1541.6667" x="36.4583" y="896.875"/><ellipse cx="397.1354" cy="980.2083" fill="#ADD1B2" rx="57.2917" ry="57.2917" style="stroke:#181818;stroke-width:5.208333333333333;"/><path d="M378.1738,1014.0625 L378.1738,950.8301 L418.0501,950.8301 L418.0501,961.8978 L390.5436,961.8978 L390.5436,975.7324 L416.6667,975.7324 L416.6667,986.8001 L390.5436,986.8001 L390.5436,1002.9948 L418.0501,1002.9948 L418.0501,1014.0625 L378.1738,1014.0625 Z " fill="#000000"/><text fill="#000000" font-family="sans-serif" font-size="72.9167" lengthAdjust="spacing" textLength="776.0417" x="503.9062" y="1008.4999">form_structure_inputs</text><line style="stroke:#181818;stroke-width:2.6041666666666665;" x1="41.6667" x2="1572.9167" y1="1063.5417" y2="1063.5417"/><ellipse cx="93.75" cy="1141.8435" fill="#000000" rx="15.625" ry="15.625" style="stroke:#000000;stroke-width:5.208333333333333;"/><text fill="#000000" font-family="sans-serif" font-size="72.9167" lengthAdjust="spacing" textLength="1406.25" x="140.625" y="1162.3226">form_structure_id : UUID &#171;FK&#187; &#171;not null&#187;</text><ellipse cx="93.75" cy="1241.1556" fill="#000000" rx="15.625" ry="15.625" style="stroke:#000000;stroke-width:5.208333333333333;"/><text fill="#000000" font-family="sans-serif" font-size="72.9167" lengthAdjust="spacing" textLength="1072.9167" x="140.625" y="1261.6346">input_id : UUID &#171;FK&#187; &#171;not null&#187;</text><line style="stroke:#181818;stroke-width:5.208333333333333;" x1="41.6667" x2="1572.9167" y1="1303.8325" y2="1303.8325"/><ellipse cx="93.75" cy="1382.1343" fill="#000000" rx="15.625" ry="15.625" style="stroke:#000000;stroke-width:5.208333333333333;"/><text fill="#000000" font-family="sans-serif" font-size="72.9167" lengthAdjust="spacing" textLength="744.7917" x="140.625" y="1402.6134">value : varchar &#171;null&#187;</text></g><!--link form_structures to form_structure_inputs--><g id="link_form_structures_form_structure_inputs"><path codeLine="27" d="M807.2917,628.5938 C807.2917,727.2396 807.2917,755.3125 807.2917,853.8021 " fill="none" id="form_structures-form_structure_inputs" style="stroke:#181818;stroke-width:5.208333333333333;"/><line style="stroke:#181818;stroke-width:5.208333333333333;" x1="786.4583" x2="828.125" y1="607.7604" y2="607.7604"/><line style="stroke:#181818;stroke-width:5.208333333333333;" x1="786.4583" x2="828.125" y1="623.3854" y2="623.3854"/><line style="stroke:#181818;stroke-width:5.208333333333333;" x1="807.2917" x2="807.2917" y1="628.5938" y2="586.9271"/><line style="stroke:#181818;stroke-width:5.208333333333333;" x1="807.2917" x2="838.5417" y1="853.8021" y2="895.4688"/><line style="stroke:#181818;stroke-width:5.208333333333333;" x1="807.2917" x2="776.0417" y1="853.8021" y2="895.4688"/><line style="stroke:#181818;stroke-width:5.208333333333333;" x1="807.2917" x2="807.2917" y1="853.8021" y2="895.4688"/><line style="stroke:#181818;stroke-width:5.208333333333333;" x1="828.125" x2="786.4583" y1="843.3854" y2="843.3854"/></g><!--link form_structure_inputs to inputs--><g id="link_form_structure_inputs_inputs"><path codeLine="28" d="M807.2917,1487.6563 C807.2917,1585 807.2917,1612.3958 807.2917,1713.5937 " fill="none" id="form_structure_inputs-inputs" style="stroke:#181818;stroke-width:5.208333333333333;"/><line style="stroke:#181818;stroke-width:5.208333333333333;" x1="807.2917" x2="776.0417" y1="1487.6563" y2="1445.9896"/><line style="stroke:#181818;stroke-width:5.208333333333333;" x1="807.2917" x2="838.5417" y1="1487.6563" y2="1445.9896"/><line style="stroke:#181818;stroke-width:5.208333333333333;" x1="807.2917" x2="807.2917" y1="1487.6563" y2="1445.9896"/><line style="stroke:#181818;stroke-width:5.208333333333333;" x1="786.4583" x2="828.125" y1="1498.0729" y2="1498.0729"/><line style="stroke:#181818;stroke-width:5.208333333333333;" x1="828.125" x2="786.4583" y1="1734.4271" y2="1734.4271"/><line style="stroke:#181818;stroke-width:5.208333333333333;" x1="828.125" x2="786.4583" y1="1718.8021" y2="1718.8021"/><line style="stroke:#181818;stroke-width:5.208333333333333;" x1="807.2917" x2="807.2917" y1="1713.5937" y2="1755.2604"/></g><!--SRC=[jP6nRi9038RtUufZZPImLoWJgbHrwS8SkHT3BLryuSv6GeHt9mI488IgIs_nuC-wxxTdnCvhZROevYhaqzn1h8d1a-oBLXjlPaz8GX7YJRhq3RBqi5s7s5H9eZhHYCaUZErVHhLziwlLnz8k5b-VPTaN3c9PlI_B0SdpeJ0qsACxYEu7uZDMOtAHMg70hx3ZJOQuLVa71n2ePD_-2aNSAaKy__aTWaVWLvQFAwiUfSVDkmplancoOVuFu3LijWEleoGtm_4rkoxFkyEqiPdESJoFTDTJc1C0]--></g></svg>